<?xml version="1.0" encoding="utf-8"?>
<!-- Generator: Adobe Illustrator 26.3.1, SVG Export Plug-In . SVG Version: 6.00 Build 0)  -->
<svg version="1.1" id="Layer_1" xmlns="http://www.w3.org/2000/svg" xmlns:xlink="http://www.w3.org/1999/xlink" x="0px" y="0px"
	 viewBox="0 0 82 73.87" style="enable-background:new 0 0 82 73.87;" xml:space="preserve">
<style type="text/css">
	.st0{clip-path:url(#SVGID_00000139285190463322144410000017247545109861017482_);}
	.st1{clip-path:url(#SVGID_00000040550041402266183250000010620375068181681292_);}
	.st2{fill:#F9C0A0;}
	.st3{fill:#F58E6B;}
	.st4{clip-path:url(#SVGID_00000067209158854556119470000014674584981640763319_);}
	
		.st5{clip-path:url(#SVGID_00000112628444118850452330000016655167902420037545_);fill-rule:evenodd;clip-rule:evenodd;fill:#E7DEED;}
	.st6{clip-path:url(#SVGID_00000150063004310234397830000016914329873458458253_);}
	.st7{clip-path:url(#SVGID_00000137119268030926023180000014518989016441623683_);}
	
		.st8{clip-path:url(#SVGID_00000155855740079286834960000006415304943452778938_);fill-rule:evenodd;clip-rule:evenodd;fill:#E7DEED;}
	.st9{clip-path:url(#SVGID_00000182489160747270115080000014147277182257122957_);}
	
		.st10{clip-path:url(#SVGID_00000040572046937007147010000000617952772926549138_);fill-rule:evenodd;clip-rule:evenodd;fill:#F9AE7B;}
	
		.st11{clip-path:url(#SVGID_00000040572046937007147010000000617952772926549138_);fill-rule:evenodd;clip-rule:evenodd;fill:#E7DEED;}
	
		.st12{clip-path:url(#SVGID_00000026851508166063878690000005262142494375348380_);fill:none;stroke:#8279A6;stroke-width:0.25;stroke-linecap:round;stroke-linejoin:round;stroke-miterlimit:10;}
	.st13{clip-path:url(#SVGID_00000085225452364499463030000010255799859927200943_);}
	
		.st14{clip-path:url(#SVGID_00000155108212359250084590000007664481791324859293_);fill-rule:evenodd;clip-rule:evenodd;fill:#D55053;}
	
		.st15{clip-path:url(#SVGID_00000071551808243646850670000006740007213385987253_);fill:none;stroke:#8279A6;stroke-width:0.25;stroke-linecap:round;stroke-linejoin:round;stroke-miterlimit:10;}
	.st16{clip-path:url(#SVGID_00000150815010937284872210000012843486445792901048_);}
	.st17{clip-path:url(#SVGID_00000047029244362432144440000004703323370195204522_);}
	.st18{fill:#233542;}
	.st19{fill:none;stroke:#232538;stroke-width:0.2;stroke-linecap:round;stroke-miterlimit:10;}
	.st20{fill:#232538;}
	.st21{fill:none;stroke:#D54F4E;stroke-width:0.2;stroke-linecap:round;stroke-linejoin:round;stroke-miterlimit:10;}
	.st22{fill:none;stroke:#232538;stroke-width:0.2;stroke-linecap:round;stroke-linejoin:round;stroke-miterlimit:10;}
	.st23{fill:#FFFFFF;}
	
		.st24{clip-path:url(#SVGID_00000047029244362432144440000004703323370195204522_);fill-rule:evenodd;clip-rule:evenodd;fill:#F5B69A;}
	
		.st25{clip-path:url(#SVGID_00000119826851374159315930000006385385691805262523_);fill:none;stroke:#F58E6B;stroke-width:0.25;stroke-miterlimit:10;}
	
		.st26{clip-path:url(#SVGID_00000031899748954986202400000006483411367432228799_);fill-rule:evenodd;clip-rule:evenodd;fill:#F5B69A;}
	
		.st27{clip-path:url(#SVGID_00000031899748954986202400000006483411367432228799_);fill-rule:evenodd;clip-rule:evenodd;fill:#F58E6B;}
	.st28{clip-path:url(#SVGID_00000080909781011449937990000016572569199198904476_);}
	.st29{fill:#ADA480;}
	.st30{fill:#F5B69A;}
	.st31{fill:#FBFCFC;}
	.st32{fill:#5D768E;}
	.st33{fill:#FFEABE;}
	.st34{clip-path:url(#SVGID_00000105407676168996888930000002940885852023170191_);}
	.st35{fill:#FBBF9E;}
	.st36{fill:#F7996E;}
	.st37{fill:#263238;}
	.st38{fill:#455B64;}
	.st39{fill:#263238;stroke:#263238;stroke-width:0.25;stroke-miterlimit:10;}
	.st40{fill:#FFFFFF;stroke:#263238;stroke-width:0.1;stroke-miterlimit:10;}
	.st41{fill:#E7DEED;}
	.st42{fill:#8279A6;}
	.st43{opacity:0.3;}
	.st44{fill:#FBBF9E;stroke:#F7996E;stroke-width:0.05;stroke-miterlimit:10;}
	.st45{clip-path:url(#SVGID_00000060747654324153626160000009515044510237022871_);}
	.st46{fill:#FFFBD8;}
	.st47{fill:#F7A689;}
	.st48{fill:#CD7E74;}
	.st49{fill:#F37F59;}
	.st50{fill:none;stroke:#F7996E;stroke-width:0.25;stroke-linecap:round;stroke-miterlimit:10;}
	.st51{fill:#F3725F;}
	.st52{fill:#6F453A;}
	.st53{fill:#F9B9A5;}
	.st54{clip-path:url(#SVGID_00000176019321307487559760000004601283408287819420_);}
	.st55{clip-path:url(#SVGID_00000127015709569332726430000014357303293933283251_);}
	.st56{fill:#C3B6D9;}
	.st57{fill:#FAFBFB;}
	.st58{fill:#ADA4D0;}
	.st59{fill:#A4A0C2;}
	.st60{opacity:0.37;}
	
		.st61{clip-path:url(#SVGID_00000176019321307487559760000004601283408287819420_);fill:none;stroke:#263238;stroke-width:0.25;stroke-linecap:round;stroke-miterlimit:10;}
	.st62{fill:#F4F9FC;}
	.st63{clip-path:url(#SVGID_00000132798089259513782740000015567957447795042732_);}
	.st64{clip-path:url(#SVGID_00000163791422096394085210000007131993280667622063_);}
	.st65{clip-path:url(#SVGID_00000183247496829789661790000013806252257297506731_);}
	
		.st66{clip-path:url(#SVGID_00000111912721433876055700000001535230349760441744_);fill-rule:evenodd;clip-rule:evenodd;fill:#E7DEED;}
	.st67{clip-path:url(#SVGID_00000041982031849186622870000012904828411891812754_);}
	.st68{clip-path:url(#SVGID_00000103966399057168570460000015170917621639709854_);}
	
		.st69{clip-path:url(#SVGID_00000092414336691580201910000015634443179095538878_);fill-rule:evenodd;clip-rule:evenodd;fill:#E7DEED;}
	.st70{clip-path:url(#SVGID_00000002346022521554904520000009985937912655011983_);}
	
		.st71{clip-path:url(#SVGID_00000155113077930012350330000017715356235978962323_);fill-rule:evenodd;clip-rule:evenodd;fill:#F9AE7B;}
	
		.st72{clip-path:url(#SVGID_00000155113077930012350330000017715356235978962323_);fill-rule:evenodd;clip-rule:evenodd;fill:#E7DEED;}
	
		.st73{clip-path:url(#SVGID_00000116944495881363603330000000133678338316119459_);fill:none;stroke:#8279A6;stroke-width:0.25;stroke-linecap:round;stroke-linejoin:round;stroke-miterlimit:10;}
	.st74{clip-path:url(#SVGID_00000025425824271812431130000008344892402036083335_);}
	
		.st75{clip-path:url(#SVGID_00000094592495715321216880000002378730778020660611_);fill-rule:evenodd;clip-rule:evenodd;fill:#D55053;}
	
		.st76{clip-path:url(#SVGID_00000032615739581566822120000013946006235752022681_);fill:none;stroke:#8279A6;stroke-width:0.25;stroke-linecap:round;stroke-linejoin:round;stroke-miterlimit:10;}
	.st77{clip-path:url(#SVGID_00000086661677929642848390000015695059565676683907_);}
	.st78{clip-path:url(#SVGID_00000027589599482625892090000016844880491091395482_);}
	
		.st79{clip-path:url(#SVGID_00000027589599482625892090000016844880491091395482_);fill-rule:evenodd;clip-rule:evenodd;fill:#F5B69A;}
	
		.st80{clip-path:url(#SVGID_00000028303178392350050970000011108831155053344913_);fill:none;stroke:#F58E6B;stroke-width:0.25;stroke-miterlimit:10;}
	
		.st81{clip-path:url(#SVGID_00000011021571857408893620000008148043005359533470_);fill-rule:evenodd;clip-rule:evenodd;fill:#F5B69A;}
	
		.st82{clip-path:url(#SVGID_00000011021571857408893620000008148043005359533470_);fill-rule:evenodd;clip-rule:evenodd;fill:#F58E6B;}
	.st83{clip-path:url(#SVGID_00000007429623009581658360000010330948118065682103_);}
	.st84{clip-path:url(#SVGID_00000091694914893570810630000002006532561401732254_);}
	.st85{clip-path:url(#SVGID_00000027581984472322367620000009521229568038912431_);}
	.st86{clip-path:url(#SVGID_00000022540710100991374460000014409691827688246157_);}
	.st87{clip-path:url(#SVGID_00000021801810217380898080000006598871698328643465_);}
	
		.st88{clip-path:url(#SVGID_00000022540710100991374460000014409691827688246157_);fill:none;stroke:#263238;stroke-width:0.25;stroke-linecap:round;stroke-miterlimit:10;}
	.st89{clip-path:url(#SVGID_00000016059931649458284490000016425804697762482065_);}
	.st90{clip-path:url(#SVGID_00000127734077548053347150000008558261133924362942_);}
	.st91{clip-path:url(#SVGID_00000082364913842381876140000008877906192404201630_);}
	.st92{clip-path:url(#SVGID_00000012468427427714469200000008038275140680253587_);}
	.st93{fill-rule:evenodd;clip-rule:evenodd;fill:#E7DEED;}
	.st94{clip-path:url(#SVGID_00000114061818677617347540000016718688013062079876_);}
	.st95{clip-path:url(#SVGID_00000026843031319127542880000004813596520881068465_);}
	.st96{clip-path:url(#SVGID_00000168825195678407078580000014670485784961976764_);}
	.st97{clip-path:url(#SVGID_00000014629107476840897600000004115250691805467830_);}
	.st98{clip-path:url(#SVGID_00000080208196868222142310000003884727705635085501_);}
	.st99{fill-rule:evenodd;clip-rule:evenodd;fill:#F9AE7B;}
	.st100{clip-path:url(#SVGID_00000024680108448984596080000016461471346609916580_);}
	.st101{clip-path:url(#SVGID_00000076579291669123650840000001311334041172253572_);}
	.st102{clip-path:url(#SVGID_00000183223561726781302240000015113537753561446794_);}
	.st103{fill-rule:evenodd;clip-rule:evenodd;fill:#D55053;}
	.st104{clip-path:url(#SVGID_00000027591585883918827270000015839096634600586903_);}
	.st105{clip-path:url(#SVGID_00000011732407011286939990000016848074306349518011_);}
	.st106{clip-path:url(#SVGID_00000134956887943193574280000016328822651989228957_);}
	.st107{fill:#D54F4E;}
	.st108{fill-rule:evenodd;clip-rule:evenodd;fill:#F5B69A;}
	.st109{clip-path:url(#SVGID_00000052796046211804272020000016996641773270418056_);}
	.st110{clip-path:url(#SVGID_00000136403259870874206750000009735915416879460997_);}
	.st111{fill-rule:evenodd;clip-rule:evenodd;fill:#F58E6B;}
	.st112{clip-path:url(#SVGID_00000155146043542484300700000000624265097252338319_);}
	.st113{clip-path:url(#SVGID_00000042738519563470780140000017912782155072277173_);}
	.st114{clip-path:url(#SVGID_00000176013783216074328360000002145298606176614529_);}
	.st115{clip-path:url(#SVGID_00000134221727968454210540000001428801039601093283_);}
	.st116{clip-path:url(#SVGID_00000021096140474692313110000008505402076297246384_);}
	
		.st117{clip-path:url(#SVGID_00000134221727968454210540000001428801039601093283_);fill:none;stroke:#263238;stroke-width:0.25;stroke-linecap:round;stroke-miterlimit:10;}
	.st118{clip-path:url(#SVGID_00000047018903830522257880000014225676133466628271_);}
	.st119{clip-path:url(#SVGID_00000122689082741121187600000011220039326960856981_);}
	.st120{clip-path:url(#SVGID_00000169518314269070693410000008496566426075184292_);}
	
		.st121{clip-path:url(#SVGID_00000088117864299429185530000008220952316901076140_);fill-rule:evenodd;clip-rule:evenodd;fill:#E7DEED;}
	.st122{clip-path:url(#SVGID_00000118370774577556505210000008611922776775441082_);}
	.st123{clip-path:url(#SVGID_00000051377151659905172970000003069290131892345754_);}
	
		.st124{clip-path:url(#SVGID_00000154385026335149110330000000633442607597334930_);fill-rule:evenodd;clip-rule:evenodd;fill:#E7DEED;}
	.st125{clip-path:url(#SVGID_00000042736348305579292840000009704357089140880314_);}
	
		.st126{clip-path:url(#SVGID_00000127765638215523337090000011799246643604471696_);fill-rule:evenodd;clip-rule:evenodd;fill:#F9AE7B;}
	
		.st127{clip-path:url(#SVGID_00000127765638215523337090000011799246643604471696_);fill-rule:evenodd;clip-rule:evenodd;fill:#E7DEED;}
	
		.st128{clip-path:url(#SVGID_00000131354646044658939570000017792448853375111846_);fill:none;stroke:#8279A6;stroke-width:0.25;stroke-linecap:round;stroke-linejoin:round;stroke-miterlimit:10;}
	.st129{clip-path:url(#SVGID_00000031895818355915875860000012037911257004883076_);}
	
		.st130{clip-path:url(#SVGID_00000042721463422949368910000018354271238193280934_);fill-rule:evenodd;clip-rule:evenodd;fill:#D55053;}
	
		.st131{clip-path:url(#SVGID_00000015322043162680164880000008331837779038458295_);fill:none;stroke:#8279A6;stroke-width:0.25;stroke-linecap:round;stroke-linejoin:round;stroke-miterlimit:10;}
	.st132{clip-path:url(#SVGID_00000084527828032718202800000003454708532429455496_);}
	.st133{clip-path:url(#SVGID_00000104667568570832292400000017537864615500692902_);}
	
		.st134{clip-path:url(#SVGID_00000104667568570832292400000017537864615500692902_);fill-rule:evenodd;clip-rule:evenodd;fill:#F5B69A;}
	
		.st135{clip-path:url(#SVGID_00000094611393207575047730000009394877453554264227_);fill:none;stroke:#F58E6B;stroke-width:0.25;stroke-miterlimit:10;}
	
		.st136{clip-path:url(#SVGID_00000088104169071027964300000014425304907338332599_);fill-rule:evenodd;clip-rule:evenodd;fill:#F5B69A;}
	
		.st137{clip-path:url(#SVGID_00000088104169071027964300000014425304907338332599_);fill-rule:evenodd;clip-rule:evenodd;fill:#F58E6B;}
	.st138{clip-path:url(#SVGID_00000077316811783239804430000013332682292115871107_);}
	.st139{clip-path:url(#SVGID_00000075872215338465878170000012908847389794073523_);}
	.st140{clip-path:url(#SVGID_00000140007403431580518080000004039314314022934412_);}
	.st141{clip-path:url(#SVGID_00000132789381303390925300000014718337993455807665_);}
	.st142{clip-path:url(#SVGID_00000146466580849666748820000009410638932717040303_);}
	
		.st143{clip-path:url(#SVGID_00000132789381303390925300000014718337993455807665_);fill:none;stroke:#263238;stroke-width:0.25;stroke-linecap:round;stroke-miterlimit:10;}
	.st144{clip-path:url(#SVGID_00000042725630796952695450000001602643666858970248_);}
	.st145{fill:#342475;}
	.st146{fill:#515056;}
	.st147{fill:#938DA0;}
	.st148{opacity:0.2;fill:#221F20;enable-background:new    ;}
	.st149{fill:#7C7496;}
	.st150{fill:#655E7F;}
	.st151{fill:#D67D63;}
	.st152{fill:#887DAD;}
	.st153{fill:#EBA380;}
	.st154{fill:#998ABC;}
	.st155{fill:none;stroke:#263238;stroke-width:3;stroke-miterlimit:10;}
	.st156{fill:#DAD3E0;}
	.st157{clip-path:url(#SVGID_00000052106443426508901650000010203639716767703989_);}
	.st158{fill:#E16F67;}
	.st159{fill:none;stroke:#E16F67;stroke-width:0.5;stroke-miterlimit:10;}
	.st160{fill:#EC6C66;}
</style>
<g>
	<defs>
		<circle id="SVGID_00000018943450390943970570000004697452572298812061_" cx="41" cy="36.93" r="34.8"/>
	</defs>
	<clipPath id="SVGID_00000127031544958117763320000017305979368887401344_">
		<use xlink:href="#SVGID_00000018943450390943970570000004697452572298812061_"  style="overflow:visible;"/>
	</clipPath>
	<g style="clip-path:url(#SVGID_00000127031544958117763320000017305979368887401344_);">
		<path class="st37" d="M19.9,44.68c0.02-0.08,0.05-0.16,0.07-0.23c0.14-0.46,0.33-0.91,0.55-1.34c0.72-1.41,2.39-4.75,2.39-5.34
			c0-0.75,0.68-3.73-0.68-8.95s2.71-8.95,2.71-8.95s3.39-3.73,4.74-6.71c1.15-2.53,8.62-3.45,12.11-1.86
			c1.16,0.53,2.43,0.81,3.7,0.81c3.29-0.02,9.19,1.64,11.02,13.28c0.17,1.11,0.12,2.24-0.15,3.33c-0.6,2.41-1.4,7.45,1.09,11.28
			c1.05,1.61,1.51,3.44,1.65,5.19c0.33,4.12-2.45,7.86-6.46,8.89l-12.84,3.3c-1.31,0.34-2.68,0.36-4,0.07l-9.43-2.08
			c-4.82-1.06-7.83-5.96-6.46-10.7L19.9,44.68z"/>
		<path class="st35" d="M45.65,33.1l1.2,8.77c0.28,2.03,1.47,3.82,3.24,4.85c3.4,1.99,10.12,5.31,13.49,7.73
			c5.04,3.62,3.27,17.12,3.27,17.12H16.7c0,0-0.66-10.3,0.3-13.81c1.21-4.42,5.83-6.42,8.45-7.41c1.89-0.72,6.43-2.67,8.82-3.7
			c0.92-0.4,1.49-1.32,1.45-2.32l-0.19-4.35l10.12-6.89V33.1z"/>
		<path class="st47" d="M46.35,35.72c0,0-0.61,7.07-7.19,8.55c-0.95,0.21-3.45-0.22-3.51-1.27l-0.07-1.99
			C35.58,41.01,46.35,35.72,46.35,35.72z"/>
		<path class="st35" d="M50.64,27.84c-1.38-0.55-1.74,0.59-2.71,1.21c-2.42-0.45-2.79-3.07-3.79-6.07
			c-0.67-2.02-2.23-3.46-3.61-3.86c-1.55-0.45-3.72,0.43-5.2,0.52c-1.3,0.08-1.89-0.53-2.95-0.3c-1.36,0.3-2.07,1.51-2.34,2.76
			c-1.1,5.09,0.06,9.37,0.06,9.37c-1,2.89,1.52,10.02,7.08,10.23c6.41,0.24,9.27-4.32,10.54-8.22c0.12,0.1,0.25,0.18,0.39,0.26
			c1.51,0.81,2.27-0.06,3.08-1.95c0.55-1.29,1.18-3.27-0.55-3.96V27.84z"/>
		<g>
			<path class="st33" d="M35.58,45.24c1.23,5.23,11.97,5.04,13.11,0.31l12.41,4.53l-2.45,21.5l-33.46-0.03l-2.45-22.82l12.85-3.49
				L35.58,45.24z"/>
			<path class="st33" d="M67.26,62.72c0,0,0.88-10.03-6.75-12.86L58.4,62.72H67.26z"/>
			<path class="st33" d="M24.94,62.69l-2.2-13.96c0,0-4.2,1.31-5.45,5.29c-0.98,3.1-1.6,8.7-1.6,8.7h3.81
				C19.5,62.72,24.94,62.69,24.94,62.69z"/>
			<path class="st29" d="M59.62,55.39c0,0,0,0.02-0.02,0.07c-0.01,0.06-0.03,0.12-0.05,0.21c-0.04,0.19-0.1,0.46-0.18,0.78
				c-0.14,0.67-0.34,1.57-0.55,2.57c-0.06,0.3-0.13,0.59-0.18,0.87l0,0l0,0c0.05,0.81,0.09,1.51,0.11,2.02
				c0.02,0.24,0.03,0.44,0.04,0.59c0,0.06,0,0.12,0.01,0.16c0,0.04,0,0.05,0,0.05s0-0.02,0-0.06s0-0.09,0-0.16
				c0-0.15-0.01-0.35-0.02-0.59c-0.02-0.51-0.05-1.21-0.09-2.02l0,0c0.06-0.27,0.12-0.56,0.19-0.86c0.21-1,0.4-1.91,0.54-2.58
				c0.06-0.32,0.12-0.59,0.15-0.78c0.02-0.09,0.03-0.16,0.04-0.21c0-0.05,0.01-0.07,0-0.08L59.62,55.39z"/>
			<path class="st29" d="M24.18,62.72c0,0,0-0.02,0.01-0.05c0-0.04,0.01-0.09,0.02-0.15c0.01-0.14,0.03-0.32,0.06-0.55
				c0.04-0.48,0.1-1.14,0.17-1.89l0,0l0,0c-0.03-0.26-0.05-0.54-0.08-0.82c-0.1-0.95-0.19-1.81-0.26-2.45
				c-0.04-0.31-0.07-0.56-0.09-0.74c-0.01-0.08-0.02-0.15-0.03-0.2c0-0.05-0.01-0.07-0.01-0.07s0,0.02,0,0.07s0,0.12,0.01,0.2
				c0.02,0.18,0.04,0.44,0.07,0.74c0.06,0.64,0.15,1.5,0.24,2.45c0.03,0.28,0.06,0.56,0.09,0.82l0,0c-0.06,0.75-0.11,1.41-0.15,1.89
				c-0.01,0.23-0.03,0.42-0.04,0.55c0,0.06,0,0.11,0,0.15C24.19,62.7,24.19,62.72,24.18,62.72L24.18,62.72z"/>
		</g>
		<path class="st50" d="M51.23,30.23c0.42-1.46-1.31-2.83-2.6-1.01"/>
		<path class="st37" d="M46.03,26.09c-2.07,2.31,0.84,6.61,0.84,6.61c0.17-1.05,0.16-3.2,1.44-4.02
			C47.71,27.41,47.1,27.06,46.03,26.09z"/>
		<path class="st37" d="M30.58,27.52c0.03-0.15,0.81-0.08,1.58-0.55c0.77-0.46,1.09-1.2,1.23-1.15c0.07,0.02,0.08,0.24-0.06,0.57
			c-0.13,0.32-0.44,0.75-0.92,1.04c-0.48,0.29-0.99,0.36-1.33,0.32c-0.35-0.04-0.53-0.16-0.51-0.22L30.58,27.52z"/>
		<path class="st37" d="M35.61,34.03c0-0.05-0.55-0.16-1.45-0.3c-0.23-0.03-0.44-0.08-0.48-0.24c-0.05-0.17,0.05-0.41,0.17-0.68
			c0.23-0.55,0.47-1.13,0.72-1.73c1-2.46,1.73-4.49,1.63-4.53s-0.99,1.92-1.99,4.38c-0.24,0.61-0.47,1.19-0.69,1.74
			c-0.09,0.26-0.25,0.55-0.14,0.9c0.06,0.17,0.22,0.3,0.37,0.34c0.15,0.05,0.27,0.05,0.39,0.06c0.91,0.07,1.47,0.09,1.48,0.04
			L35.61,34.03z"/>
		<path class="st37" d="M42.87,26.63c-0.06-0.14-0.81,0.11-1.66-0.18c-0.85-0.27-1.33-0.92-1.46-0.85
			c-0.06,0.03-0.02,0.25,0.18,0.54s0.6,0.63,1.13,0.8c0.53,0.17,1.04,0.13,1.37,0.01c0.33-0.11,0.48-0.27,0.45-0.33L42.87,26.63z"/>
		<path class="st36" d="M34.77,36.68c0.02,0.32,0.17,0.61,0.38,0.82c0.42,0.42,1.07,0.51,1.57,0.22c0.5-0.29,0.61-0.85,0.57-1.48
			l0,0c-0.24-0.39-0.41-0.77-0.86-0.85c-0.07-0.01-0.14-0.02-0.21-0.02c-0.35-0.02-0.7,0.07-0.99,0.3
			C34.95,35.9,34.75,36.29,34.77,36.68z"/>
		<path class="st37" d="M34.61,37.51c0.11,0.07,0.55-0.66,1.48-0.81c0.94-0.15,1.67,0.4,1.74,0.3c0.04-0.04-0.09-0.25-0.41-0.45
			s-0.85-0.38-1.43-0.29c-0.57,0.09-0.99,0.42-1.2,0.7C34.58,37.25,34.55,37.48,34.61,37.51z"/>
		<polygon class="st35" points="44.42,56.7 54.56,76.67 45.67,78.4 38.45,57.08 		"/>
		<circle class="st158" cx="40.39" cy="45.19" r="1.43"/>
		<circle class="st159" cx="40.36" cy="45.14" r="2.14"/>
		<circle class="st159" cx="40.35" cy="45.1" r="2.97"/>
		<g>
			<g>
				<g>
					<path class="st35" d="M44.19,55.37c0,0,0.56-2.17,0.22-3.33s-2.51-6.43-2.51-6.43s-0.46-0.46-1.06-0.19
						c-0.6,0.27-0.34,1.16-0.16,2.08c0.17,0.92,0.44,1.98,0.44,1.98s-3.83-8.23-4.6-8.16s-0.76,0.45-0.62,0.86
						c0.14,0.4,1.35,3.49,1.35,3.49s-1.77-4.66-2.69-4.49s-0.53,0.58-0.42,1.19c0.1,0.61,1.16,3.39,1.16,3.39s-1.31-3.04-1.96-2.73
						c-0.64,0.31-0.52,0.54-0.24,1.35c0.28,0.81,0.92,2.58,0.92,2.58s-0.88-0.77-1.28-0.42c-0.4,0.35-0.23,0.68,0.24,1.36
						s2.45,3.43,3.13,4.78s2.33,4.42,2.33,4.42l5.98-0.38l-0.24-1.33L44.19,55.37z"/>
					<path class="st36" d="M38.44,57.09L38.44,57.09c0,0-1.65-3.1-2.33-4.43c-0.6-1.17-2.2-3.45-2.88-4.42
						c-0.1-0.15-0.19-0.27-0.25-0.35c-0.47-0.68-0.64-1.01-0.24-1.36c0.17-0.14,0.44-0.12,0.8,0.08c0.23,0.13,0.42,0.28,0.48,0.33
						c-0.07-0.2-0.65-1.81-0.91-2.56c-0.02-0.05-0.03-0.09-0.05-0.13c-0.24-0.7-0.32-0.93,0.29-1.22c0.06-0.03,0.12-0.03,0.19,0
						c0,0,0.01,0,0.02,0c0.28,0.11,0.67,0.6,1.13,1.46c0.24,0.44,0.44,0.86,0.54,1.09c-0.24-0.63-1.01-2.7-1.1-3.21
						c-0.02-0.13-0.06-0.26-0.09-0.37c-0.06-0.22-0.12-0.41-0.03-0.56c0.08-0.12,0.25-0.21,0.55-0.26c0.21-0.04,0.48,0.17,0.81,0.63
						c0.26,0.37,0.56,0.89,0.88,1.55c0.24,0.49,0.46,0.99,0.63,1.4c-0.37-0.95-0.91-2.32-0.99-2.58c-0.06-0.19-0.12-0.42,0-0.6
						c0.1-0.15,0.3-0.24,0.63-0.27c0.02,0,0.04,0,0.06,0c0.36,0.11,1.21,1.47,2.54,4.05c0.95,1.84,1.83,3.72,1.98,4.05
						c-0.06-0.23-0.28-1.13-0.43-1.92c-0.02-0.1-0.04-0.21-0.06-0.31c-0.08-0.4-0.16-0.78-0.15-1.09c0.01-0.35,0.13-0.57,0.37-0.68
						c0.59-0.27,1.06,0.19,1.07,0.19l0,0c0.02,0.05,2.17,5.29,2.51,6.44c0.33,1.13-0.2,3.27-0.22,3.33l0.24,1.33l0,0L38.44,57.09
						L38.44,57.09z M33.23,46.48c-0.18-0.06-0.36-0.06-0.48,0.05c-0.19,0.17-0.26,0.34-0.2,0.55c0.05,0.2,0.2,0.45,0.44,0.8
						c0.06,0.09,0.14,0.2,0.25,0.35c0.68,0.97,2.29,3.25,2.88,4.43c0.67,1.31,2.27,4.31,2.33,4.42l5.97-0.38l-0.23-1.32
						c0,0,0.56-2.19,0.22-3.33c-0.33-1.14-2.47-6.33-2.51-6.43c-0.02-0.02-0.48-0.45-1.05-0.19c-0.24,0.11-0.36,0.32-0.37,0.67
						c0,0.31,0.07,0.69,0.15,1.09c0.02,0.1,0.04,0.21,0.06,0.31c0.17,0.9,0.44,1.96,0.44,1.98h-0.01c-0.04-0.08-3.67-7.88-4.54-8.14
						c-0.02,0-0.04,0-0.05,0c-0.32,0.03-0.53,0.12-0.62,0.26c-0.11,0.17-0.05,0.4,0.01,0.59c0.11,0.32,0.93,2.41,1.24,3.19
						c0.07,0.18,0.11,0.29,0.12,0.3h-0.01c0,0-0.05-0.11-0.12-0.29c-0.17-0.42-0.5-1.22-0.88-2.01c-0.46-0.94-1.07-2.02-1.53-2.17
						c-0.05-0.02-0.1-0.02-0.15-0.01c-0.3,0.06-0.47,0.14-0.54,0.26c-0.09,0.14-0.03,0.32,0.03,0.55c0.03,0.11,0.07,0.24,0.09,0.37
						c0.1,0.6,1.15,3.36,1.16,3.39h-0.01c0,0-1.08-2.47-1.75-2.72c-0.07-0.03-0.14-0.03-0.2,0c-0.6,0.29-0.53,0.5-0.29,1.21
						c0.01,0.04,0.03,0.09,0.05,0.13c0.27,0.8,0.91,2.56,0.92,2.58v0.02v-0.01c0,0-0.41-0.35-0.79-0.47L33.23,46.48z"/>
				</g>
				<path class="st36" d="M38.07,48.34c0,0-0.07-0.24-0.16-0.63c-0.1-0.39-0.25-0.92-0.47-1.48c-0.22-0.57-0.47-1.06-0.62-1.43
					c-0.15-0.37-0.21-0.62-0.19-0.62s0.1,0.23,0.27,0.59c0.17,0.36,0.43,0.85,0.65,1.42s0.36,1.11,0.44,1.5
					c0.08,0.39,0.1,0.64,0.09,0.64L38.07,48.34z"/>
				<path class="st36" d="M36.44,48.64c0,0-0.08-0.19-0.19-0.51c-0.11-0.32-0.27-0.75-0.46-1.23c-0.19-0.47-0.38-0.9-0.53-1.2
					c-0.14-0.3-0.23-0.49-0.22-0.5c0.01,0,0.13,0.17,0.29,0.47c0.16,0.3,0.37,0.72,0.56,1.2c0.19,0.48,0.34,0.92,0.43,1.25
					s0.13,0.53,0.12,0.53L36.44,48.64z"/>
				<path class="st36" d="M35.3,49.56c0,0-0.34-0.56-0.68-1.29c-0.17-0.36-0.32-0.69-0.43-0.93s-0.18-0.38-0.17-0.39
					c0.04-0.03,0.36,0.55,0.7,1.28S35.32,49.55,35.3,49.56L35.3,49.56z"/>
			</g>
			<g>
				<g>
					<path class="st33" d="M65.93,53.91c-0.35-0.48-0.96-0.87-1.69-1.11c-3.13-1.02-7.16,0.38-7.09,5.97l0.77,11.73l0.66,9.33
						l-4.02-5.22l-8.82,1.76c0,0,7.06,14.17,9.59,17.18s4.71,2.85,7.56,1.71c0,0,3.42-0.91,4.93-9.99
						c1.31-7.84,2.51-25.33-1.88-31.36L65.93,53.91z"/>
					<path class="st33" d="M65.14,93.16c0,0-0.03,0.05-0.09,0.14s-0.15,0.22-0.27,0.39c-0.25,0.33-0.65,0.82-1.29,1.29
						c-0.64,0.48-1.52,0.95-2.65,1.14c-0.56,0.09-1.18,0.13-1.81,0.01c-0.64-0.11-1.28-0.39-1.87-0.79
						c-1.18-0.82-2.2-2.05-3.08-3.47c-0.9-1.41-1.79-2.97-2.71-4.61c-1.82-3.3-3.74-6.97-5.7-10.87l-0.04-0.08l0.09-0.02
						c0.13-0.03,0.27-0.05,0.41-0.08c2.92-0.58,5.75-1.14,8.41-1.67h0.04l0.02,0.02c1.42,1.85,2.77,3.6,4.01,5.22l-0.11,0.04
						c-0.17-2.49-0.32-4.78-0.46-6.82c-0.15-2.03-0.28-3.8-0.38-5.27c-0.11-1.46-0.19-2.61-0.25-3.4c-0.03-0.39-0.05-0.69-0.06-0.9
						c0-0.1,0-0.17-0.01-0.23c0-0.05,0-0.08,0-0.08s0,0.03,0.01,0.08c0,0.06,0.01,0.13,0.02,0.23c0.02,0.21,0.04,0.51,0.08,0.9
						c0.06,0.79,0.16,1.94,0.28,3.4c0.11,1.46,0.27,3.23,0.41,5.27c0.14,2.03,0.31,4.32,0.48,6.82v0.2l-0.11-0.16
						c-1.25-1.62-2.6-3.37-4.02-5.22l0.06,0.02c-2.66,0.53-5.49,1.1-8.41,1.68c-0.14,0.03-0.28,0.06-0.41,0.08l0.05-0.1
						c1.95,3.89,3.87,7.57,5.68,10.87c0.91,1.65,1.79,3.2,2.69,4.61c0.88,1.42,1.88,2.64,3.04,3.45c0.58,0.4,1.21,0.68,1.83,0.79
						c0.62,0.12,1.23,0.08,1.79,0c1.11-0.19,1.99-0.65,2.63-1.11c0.64-0.47,1.05-0.94,1.3-1.27c0.12-0.17,0.21-0.29,0.28-0.38
						c0.06-0.09,0.1-0.13,0.1-0.13L65.14,93.16z"/>
				</g>
				<path class="st160" d="M64.13,54.03c0,0-0.46-0.05-1.21-0.02c-0.37,0.01-0.81,0.06-1.3,0.16c-0.48,0.1-1.01,0.25-1.49,0.53
					c-0.49,0.28-0.86,0.68-1.14,1.08s-0.48,0.8-0.63,1.14s-0.27,0.62-0.35,0.82c-0.08,0.19-0.13,0.3-0.14,0.3
					c0,0,0.02-0.12,0.09-0.31c0.06-0.2,0.16-0.49,0.31-0.84c0.14-0.35,0.34-0.76,0.62-1.17s0.67-0.83,1.17-1.13
					c0.51-0.29,1.05-0.44,1.54-0.53s0.94-0.13,1.32-0.13s0.68,0.03,0.89,0.05C64.02,54.01,64.13,54.04,64.13,54.03L64.13,54.03z"/>
			</g>
		</g>
		<path class="st37" d="M33.89,29.9c-0.09-0.08-0.49,0.39-1.13,0.49c-0.64,0.12-1.16-0.18-1.21-0.08c-0.03,0.05,0.07,0.19,0.29,0.33
			s0.59,0.24,0.99,0.17s0.71-0.3,0.88-0.5C33.88,30.1,33.93,29.93,33.89,29.9z"/>
		<path class="st37" d="M39.95,29.26c-0.09-0.07-0.46,0.42-1.1,0.57c-0.63,0.16-1.16-0.1-1.22,0c-0.03,0.05,0.08,0.19,0.31,0.31
			c0.23,0.12,0.6,0.2,0.99,0.1c0.39-0.1,0.69-0.35,0.85-0.57s0.2-0.4,0.16-0.43L39.95,29.26z"/>
	</g>
</g>
</svg>
