<?xml version="1.0" encoding="utf-8"?>
<!-- Generator: Adobe Illustrator 26.3.1, SVG Export Plug-In . SVG Version: 6.00 Build 0)  -->
<svg version="1.1" id="Layer_1" xmlns="http://www.w3.org/2000/svg" xmlns:xlink="http://www.w3.org/1999/xlink" x="0px" y="0px"
	 viewBox="0 0 58 60.58" style="enable-background:new 0 0 58 60.58;" xml:space="preserve">
<style type="text/css">
	.st0{display:none;fill:#F0EFEF;}
	.st1{display:none;fill:none;stroke:#22A199;stroke-linecap:round;stroke-linejoin:round;stroke-miterlimit:10;}
	.st2{fill:#333333;}
	.st3{opacity:0.5;}
	.st4{fill:#F0E0E4;}
	.st5{fill:#972F48;}
	.st6{fill:#E9E9E9;}
	.st7{fill:none;}
	.st8{fill:#FFFFFF;}
	.st9{fill:none;stroke:#333333;stroke-linecap:round;stroke-miterlimit:10;}
	.st10{fill:none;stroke:#972F48;stroke-linecap:round;stroke-miterlimit:10;}
	.st11{fill:none;stroke:#333333;stroke-miterlimit:10;}
	.st12{fill:#F0E0E4;stroke:#972F48;stroke-linecap:round;stroke-linejoin:round;stroke-miterlimit:10;}
	.st13{fill:#E9E9E9;stroke:#972F48;stroke-linecap:round;stroke-linejoin:round;stroke-miterlimit:10;}
	.st14{fill:none;stroke:#972F48;stroke-miterlimit:10;}
	.st15{fill:none;stroke:#21A199;stroke-linecap:round;stroke-linejoin:round;stroke-miterlimit:10;}
	.st16{fill:#FFFFFF;stroke:#333333;stroke-linecap:round;stroke-linejoin:round;stroke-miterlimit:10;}
	.st17{fill:none;stroke:#333333;stroke-linecap:round;stroke-linejoin:round;stroke-miterlimit:10;}
	.st18{fill:#F0E0E4;stroke:#972F48;stroke-miterlimit:10;}
	.st19{fill:#E9E9E9;stroke:#972F48;stroke-linecap:round;stroke-miterlimit:10;}
	.st20{fill:#E9E9E9;stroke:#333333;stroke-linecap:round;stroke-linejoin:round;stroke-miterlimit:10;}
	.st21{fill:none;stroke:#972F48;stroke-linecap:round;stroke-linejoin:round;stroke-miterlimit:10;}
	.st22{fill:none;stroke:#333333;stroke-width:0.9722;stroke-linecap:round;stroke-miterlimit:10;}
	.st23{fill:none;stroke:#333333;stroke-width:0.9722;stroke-miterlimit:10;}
	.st24{fill:#F0E0E4;stroke:#972F48;stroke-width:0.9722;stroke-miterlimit:10;}
	.st25{fill:#FFFFFF;stroke:#982F48;stroke-width:0.9722;stroke-miterlimit:10;}
	.st26{fill:none;stroke:#972F48;stroke-width:0.9722;stroke-miterlimit:10;}
	.st27{fill:none;stroke:#333333;stroke-linecap:round;stroke-linejoin:round;}
	.st28{fill:none;stroke:#333333;stroke-linecap:round;stroke-linejoin:round;stroke-dasharray:2.2305,2.2305;}
	.st29{fill:#98D4C6;stroke:#21A199;stroke-linecap:round;stroke-linejoin:round;stroke-miterlimit:10;}
	.st30{fill:#F0E0E4;stroke:#972F48;stroke-width:0.75;stroke-linecap:round;stroke-linejoin:round;stroke-miterlimit:10;}
	.st31{fill:#E9E9E9;stroke:#972F48;stroke-width:0.75;stroke-linecap:round;stroke-linejoin:round;stroke-miterlimit:10;}
	.st32{fill:none;stroke:#21A199;stroke-linecap:round;stroke-miterlimit:10;}
	.st33{fill:none;stroke:#21A199;stroke-miterlimit:10;}
	.st34{fill:#CCE9E2;stroke:#21A199;stroke-linecap:round;stroke-linejoin:round;stroke-miterlimit:10;}
	.st35{fill:#21A199;}
	.st36{fill-rule:evenodd;clip-rule:evenodd;fill:#22A199;}
	.st37{fill:#22A199;}
	.st38{fill:#CDCFCE;}
	.st39{clip-path:url(#SVGID_00000069374100578589699750000000130007064214608786_);}
	.st40{fill:#F4F8F9;}
	.st41{fill:none;stroke:#F4F8F9;stroke-width:0.25;stroke-linecap:round;stroke-miterlimit:10;}
	.st42{fill:#E5F4F2;}
	.st43{clip-path:url(#SVGID_00000004514452552695017700000003826808497828352428_);}
	.st44{fill:#98D4C6;}
	.st45{fill:#EFE0E5;}
	.st46{fill:#963048;}
	.st47{clip-path:url(#SVGID_00000137117143468489729130000005559392540889846145_);}
	.st48{clip-path:url(#SVGID_00000043436799535273714380000014977952155038734268_);}
	.st49{fill:#FAC1A2;}
	.st50{fill:#F68F6C;}
	.st51{clip-path:url(#SVGID_00000020390530503348157360000001862430350465990530_);}
	
		.st52{clip-path:url(#SVGID_00000114774156892690599300000006496640244255544488_);fill-rule:evenodd;clip-rule:evenodd;fill:#E9DFEF;}
	.st53{clip-path:url(#SVGID_00000000907446519706134180000011561864220909986494_);}
	.st54{clip-path:url(#SVGID_00000156572208169687264740000013283560689270226848_);}
	
		.st55{clip-path:url(#SVGID_00000062153543408892356000000014243555123824612013_);fill-rule:evenodd;clip-rule:evenodd;fill:#E9DFEF;}
	.st56{clip-path:url(#SVGID_00000050633550353073771640000009163693958890261660_);}
	
		.st57{clip-path:url(#SVGID_00000012459226522267396770000014778662382966901176_);fill-rule:evenodd;clip-rule:evenodd;fill:#FAAF7B;}
	
		.st58{clip-path:url(#SVGID_00000012459226522267396770000014778662382966901176_);fill-rule:evenodd;clip-rule:evenodd;fill:#E9DFEF;}
	
		.st59{clip-path:url(#SVGID_00000044879695634517523420000002157322875737351822_);fill:none;stroke:#847AA7;stroke-width:0.25;stroke-linecap:round;stroke-linejoin:round;stroke-miterlimit:10;}
	.st60{clip-path:url(#SVGID_00000017489014699460834030000004398359360569889175_);}
	
		.st61{clip-path:url(#SVGID_00000156580170824296380230000014577566837183431610_);fill-rule:evenodd;clip-rule:evenodd;fill:#D65154;}
	
		.st62{clip-path:url(#SVGID_00000066482489570816180960000017348322320712941484_);fill:none;stroke:#847AA7;stroke-width:0.25;stroke-linecap:round;stroke-linejoin:round;stroke-miterlimit:10;}
	.st63{clip-path:url(#SVGID_00000105424203605322126440000002337879301073438125_);}
	.st64{clip-path:url(#SVGID_00000001643379011880331550000016986442649240578982_);}
	.st65{fill:#242638;}
	.st66{fill:none;stroke:#242638;stroke-width:0.2;stroke-linecap:round;stroke-miterlimit:10;}
	.st67{fill:none;stroke:#D64F4F;stroke-width:0.2;stroke-linecap:round;stroke-linejoin:round;stroke-miterlimit:10;}
	.st68{fill:none;stroke:#242638;stroke-width:0.2;stroke-linecap:round;stroke-linejoin:round;stroke-miterlimit:10;}
	
		.st69{clip-path:url(#SVGID_00000001643379011880331550000016986442649240578982_);fill-rule:evenodd;clip-rule:evenodd;fill:#F6B89C;}
	
		.st70{clip-path:url(#SVGID_00000070093951544014407560000005774470107142627208_);fill:none;stroke:#F68F6C;stroke-width:0.25;stroke-miterlimit:10;}
	
		.st71{clip-path:url(#SVGID_00000044142918846881408330000002967555221698630847_);fill-rule:evenodd;clip-rule:evenodd;fill:#F6B89C;}
	
		.st72{clip-path:url(#SVGID_00000044142918846881408330000002967555221698630847_);fill-rule:evenodd;clip-rule:evenodd;fill:#F68F6C;}
	.st73{clip-path:url(#SVGID_00000037673531491940411270000012383687024092061084_);}
	.st74{fill:#233642;}
	.st75{fill:#AEA580;}
	.st76{fill:#F6B89C;}
	.st77{fill:#FCFDFD;}
	.st78{fill:#5D778F;}
	.st79{fill:#FFEBBF;}
	.st80{clip-path:url(#SVGID_00000119094412685387568510000002148593244132100003_);}
	.st81{fill:#FBBF9E;}
	.st82{fill:#F7996E;}
	.st83{fill:#263238;}
	.st84{fill:#455B64;}
	.st85{fill:#263238;stroke:#263238;stroke-width:0.25;stroke-miterlimit:10;}
	.st86{fill:#FFFFFF;stroke:#263238;stroke-width:0.1;stroke-miterlimit:10;}
	.st87{fill:#E9DFEF;}
	.st88{fill:#847AA7;}
	.st89{opacity:0.3;}
	.st90{fill:#FBBF9E;stroke:#F7996E;stroke-width:0.05;stroke-miterlimit:10;}
	.st91{clip-path:url(#SVGID_00000035506806809177291800000014771596859951981469_);}
	.st92{fill:#FFFCD9;}
	.st93{fill:#F8A78A;}
	.st94{fill:#CE7E75;}
	.st95{fill:#F4805A;}
	.st96{fill:none;stroke:#F7996E;stroke-width:0.25;stroke-linecap:round;stroke-miterlimit:10;}
	.st97{fill:#F3725F;}
	.st98{fill:#6F453A;}
	.st99{fill:#FABAA7;}
	.st100{clip-path:url(#SVGID_00000138555794515408162650000002255705568577331597_);}
	.st101{clip-path:url(#SVGID_00000106127500700740509530000004800187490109076919_);}
	.st102{fill:#C4B7DA;}
	.st103{fill:#FAFBFB;}
	.st104{fill:#AEA5D1;}
	.st105{fill:#A5A2C3;}
	.st106{opacity:0.37;}
	
		.st107{clip-path:url(#SVGID_00000138555794515408162650000002255705568577331597_);fill:none;stroke:#263238;stroke-width:0.25;stroke-linecap:round;stroke-miterlimit:10;}
	.st108{fill:#F4F9FD;}
	.st109{clip-path:url(#SVGID_00000098941679679055539630000012058469022705833389_);}
	.st110{clip-path:url(#SVGID_00000018218553747382944770000013631564010458610086_);}
	.st111{clip-path:url(#SVGID_00000170241649499055440630000003648779632806391231_);}
	
		.st112{clip-path:url(#SVGID_00000109716551149375515650000016677597363708655769_);fill-rule:evenodd;clip-rule:evenodd;fill:#E9DFEF;}
	.st113{clip-path:url(#SVGID_00000152974252755468958030000009339373774450378652_);}
	.st114{clip-path:url(#SVGID_00000176020869951212141880000014142699827109731238_);}
	
		.st115{clip-path:url(#SVGID_00000080925172341528800300000015368728898117218728_);fill-rule:evenodd;clip-rule:evenodd;fill:#E9DFEF;}
	.st116{clip-path:url(#SVGID_00000178892733937594122240000005363498029329067699_);}
	
		.st117{clip-path:url(#SVGID_00000067203807707002143970000012653593212909856190_);fill-rule:evenodd;clip-rule:evenodd;fill:#FAAF7B;}
	
		.st118{clip-path:url(#SVGID_00000067203807707002143970000012653593212909856190_);fill-rule:evenodd;clip-rule:evenodd;fill:#E9DFEF;}
	
		.st119{clip-path:url(#SVGID_00000051375439225553444930000015661016418615864968_);fill:none;stroke:#847AA7;stroke-width:0.25;stroke-linecap:round;stroke-linejoin:round;stroke-miterlimit:10;}
	.st120{clip-path:url(#SVGID_00000149360458339270244990000016915640033612145594_);}
	
		.st121{clip-path:url(#SVGID_00000023240013238958714420000011868585753747088781_);fill-rule:evenodd;clip-rule:evenodd;fill:#D65154;}
	
		.st122{clip-path:url(#SVGID_00000072989419358397082950000004584531309228163764_);fill:none;stroke:#847AA7;stroke-width:0.25;stroke-linecap:round;stroke-linejoin:round;stroke-miterlimit:10;}
	.st123{clip-path:url(#SVGID_00000123399114256277628670000000173988034059469970_);}
	.st124{clip-path:url(#SVGID_00000007392627778790347870000000468839690949182636_);}
	
		.st125{clip-path:url(#SVGID_00000007392627778790347870000000468839690949182636_);fill-rule:evenodd;clip-rule:evenodd;fill:#F6B89C;}
	
		.st126{clip-path:url(#SVGID_00000163764368491930294690000007713477090053959585_);fill:none;stroke:#F68F6C;stroke-width:0.25;stroke-miterlimit:10;}
	
		.st127{clip-path:url(#SVGID_00000138557590990558956110000007291487515464156832_);fill-rule:evenodd;clip-rule:evenodd;fill:#F6B89C;}
	
		.st128{clip-path:url(#SVGID_00000138557590990558956110000007291487515464156832_);fill-rule:evenodd;clip-rule:evenodd;fill:#F68F6C;}
	.st129{clip-path:url(#SVGID_00000124156865344329337600000015394731321512759743_);}
	.st130{clip-path:url(#SVGID_00000127764898858686402310000006803090964143923113_);}
	.st131{clip-path:url(#SVGID_00000127013016766885177470000005311434217214403763_);}
	.st132{clip-path:url(#SVGID_00000031923312229857791220000014664353106919529653_);}
	.st133{clip-path:url(#SVGID_00000136371154998391028350000004921090643310512059_);}
	
		.st134{clip-path:url(#SVGID_00000031923312229857791220000014664353106919529653_);fill:none;stroke:#263238;stroke-width:0.25;stroke-linecap:round;stroke-miterlimit:10;}
	.st135{clip-path:url(#SVGID_00000110450087653845902950000013695982636452910771_);}
	.st136{clip-path:url(#SVGID_00000065796996237162981500000009232996678386780555_);}
	.st137{clip-path:url(#SVGID_00000073712336625305320760000001971156627521416330_);}
	
		.st138{clip-path:url(#SVGID_00000168817576671710747830000013956620631621956502_);fill-rule:evenodd;clip-rule:evenodd;fill:#E9DFEF;}
	.st139{clip-path:url(#SVGID_00000022525850948235981080000013002091746240329102_);}
	.st140{clip-path:url(#SVGID_00000065074621285567314690000009881618602338551227_);}
	
		.st141{clip-path:url(#SVGID_00000128442809996066884440000015634219064411244929_);fill-rule:evenodd;clip-rule:evenodd;fill:#E9DFEF;}
	.st142{clip-path:url(#SVGID_00000145024316858399865880000008600766692678253986_);}
	
		.st143{clip-path:url(#SVGID_00000035525151304613067240000016534218507382189218_);fill-rule:evenodd;clip-rule:evenodd;fill:#FAAF7B;}
	
		.st144{clip-path:url(#SVGID_00000035525151304613067240000016534218507382189218_);fill-rule:evenodd;clip-rule:evenodd;fill:#E9DFEF;}
	
		.st145{clip-path:url(#SVGID_00000146488628446307281420000003881423188225715610_);fill:none;stroke:#847AA7;stroke-width:0.25;stroke-linecap:round;stroke-linejoin:round;stroke-miterlimit:10;}
	.st146{clip-path:url(#SVGID_00000060713799535939308190000013296879546618984109_);}
	
		.st147{clip-path:url(#SVGID_00000086656933496353235790000012793446676779506825_);fill-rule:evenodd;clip-rule:evenodd;fill:#D65154;}
	
		.st148{clip-path:url(#SVGID_00000136381006533318070330000000581988146896328635_);fill:none;stroke:#847AA7;stroke-width:0.25;stroke-linecap:round;stroke-linejoin:round;stroke-miterlimit:10;}
	.st149{clip-path:url(#SVGID_00000031901225572320397090000012022645500219664563_);}
	.st150{clip-path:url(#SVGID_00000056389994008038955000000017738255666926593446_);}
	
		.st151{clip-path:url(#SVGID_00000056389994008038955000000017738255666926593446_);fill-rule:evenodd;clip-rule:evenodd;fill:#F6B89C;}
	
		.st152{clip-path:url(#SVGID_00000012434131845902261200000007055894736681000595_);fill:none;stroke:#F68F6C;stroke-width:0.25;stroke-miterlimit:10;}
	
		.st153{clip-path:url(#SVGID_00000155861200255653465490000016643290453485578678_);fill-rule:evenodd;clip-rule:evenodd;fill:#F6B89C;}
	
		.st154{clip-path:url(#SVGID_00000155861200255653465490000016643290453485578678_);fill-rule:evenodd;clip-rule:evenodd;fill:#F68F6C;}
	.st155{clip-path:url(#SVGID_00000000184601880683638940000017272136376912441239_);}
	.st156{clip-path:url(#SVGID_00000163785054861785138360000012663141810651202224_);}
	.st157{clip-path:url(#SVGID_00000105416904633670703990000008929778739201102226_);}
	.st158{clip-path:url(#SVGID_00000114775379141825566000000005914834063510407576_);}
	.st159{clip-path:url(#SVGID_00000041994303554509043280000001169005723129862559_);}
	
		.st160{clip-path:url(#SVGID_00000114775379141825566000000005914834063510407576_);fill:none;stroke:#263238;stroke-width:0.25;stroke-linecap:round;stroke-miterlimit:10;}
	.st161{clip-path:url(#SVGID_00000145056285654805700600000001966970622891486642_);}
	.st162{clip-path:url(#SVGID_00000005955280169957737690000016491482997392500141_);}
	.st163{clip-path:url(#SVGID_00000140734873401087634740000007969110846473739906_);}
	
		.st164{clip-path:url(#SVGID_00000111191960650580651990000008979858664563297164_);fill-rule:evenodd;clip-rule:evenodd;fill:#E9DFEF;}
	.st165{clip-path:url(#SVGID_00000087400831250198265800000003027333716783769489_);}
	.st166{clip-path:url(#SVGID_00000168096130944185236640000004141005983705724047_);}
	
		.st167{clip-path:url(#SVGID_00000128447008499457288410000002167291999013406377_);fill-rule:evenodd;clip-rule:evenodd;fill:#E9DFEF;}
	.st168{clip-path:url(#SVGID_00000106110796927876544000000000234282930567100313_);}
	
		.st169{clip-path:url(#SVGID_00000122693533532445682050000007059596381794006676_);fill-rule:evenodd;clip-rule:evenodd;fill:#FAAF7B;}
	
		.st170{clip-path:url(#SVGID_00000122693533532445682050000007059596381794006676_);fill-rule:evenodd;clip-rule:evenodd;fill:#E9DFEF;}
	
		.st171{clip-path:url(#SVGID_00000165925327149791767060000005455912655529345933_);fill:none;stroke:#847AA7;stroke-width:0.25;stroke-linecap:round;stroke-linejoin:round;stroke-miterlimit:10;}
	.st172{clip-path:url(#SVGID_00000179647228988660758000000014799280506218726325_);}
	
		.st173{clip-path:url(#SVGID_00000021111707015942871360000006661849061472580531_);fill-rule:evenodd;clip-rule:evenodd;fill:#D65154;}
	
		.st174{clip-path:url(#SVGID_00000052068756233561556200000018043834796758998926_);fill:none;stroke:#847AA7;stroke-width:0.25;stroke-linecap:round;stroke-linejoin:round;stroke-miterlimit:10;}
	.st175{clip-path:url(#SVGID_00000057122420726491055440000000060611879759837580_);}
	.st176{clip-path:url(#SVGID_00000122692983083461285180000013414716187288480947_);}
	
		.st177{clip-path:url(#SVGID_00000122692983083461285180000013414716187288480947_);fill-rule:evenodd;clip-rule:evenodd;fill:#F6B89C;}
	
		.st178{clip-path:url(#SVGID_00000141419323450301083170000004943609132238310051_);fill:none;stroke:#F68F6C;stroke-width:0.25;stroke-miterlimit:10;}
	
		.st179{clip-path:url(#SVGID_00000126317821208187956740000011550863028975096456_);fill-rule:evenodd;clip-rule:evenodd;fill:#F6B89C;}
	
		.st180{clip-path:url(#SVGID_00000126317821208187956740000011550863028975096456_);fill-rule:evenodd;clip-rule:evenodd;fill:#F68F6C;}
	.st181{clip-path:url(#SVGID_00000109740142527218503290000001169831186068904604_);}
	.st182{clip-path:url(#SVGID_00000126308872213944348060000001640560711144716932_);}
	.st183{clip-path:url(#SVGID_00000050624945568072420660000003832449667774862995_);}
	.st184{clip-path:url(#SVGID_00000027594812764007346990000015085747332499283895_);}
	.st185{clip-path:url(#SVGID_00000022560823146644628280000016615607094810363314_);}
	
		.st186{clip-path:url(#SVGID_00000027594812764007346990000015085747332499283895_);fill:none;stroke:#263238;stroke-width:0.25;stroke-linecap:round;stroke-miterlimit:10;}
	.st187{fill:#D8D8D8;}
	.st188{fill-rule:evenodd;clip-rule:evenodd;fill:#F7EBEE;}
	.st189{fill:#595A5A;}
	.st190{fill:#383838;}
	.st191{fill:#9FA3A9;}
	.st192{fill:#EC795A;}
	.st193{fill:#93C9C3;}
	.st194{fill:#3D2316;}
	.st195{fill:#B3B3B3;}
	.st196{fill:#BB5336;}
	.st197{fill:#763D36;}
	.st198{fill:#401E1E;}
	.st199{fill:#572B23;}
	.st200{fill:#4F271F;}
	.st201{fill:#5C5C5C;}
	.st202{fill-rule:evenodd;clip-rule:evenodd;fill:#21A199;}
	.st203{fill:#24406F;}
	.st204{fill-rule:evenodd;clip-rule:evenodd;fill:#C95835;}
	.st205{fill:#C95835;}
	.st206{fill-rule:evenodd;clip-rule:evenodd;fill:#383838;}
	.st207{fill-rule:evenodd;clip-rule:evenodd;fill:#D8D8D8;}
	.st208{fill-rule:evenodd;clip-rule:evenodd;fill:#E3633D;}
	.st209{fill-rule:evenodd;clip-rule:evenodd;fill:#4A2B1B;}
	.st210{fill-rule:evenodd;clip-rule:evenodd;fill:#5C5C5C;}
	.st211{fill-rule:evenodd;clip-rule:evenodd;fill:#F0E0E4;}
	.st212{fill-rule:evenodd;clip-rule:evenodd;fill:#643D1F;}
	.st213{fill:#DBC2C9;}
	.st214{fill-rule:evenodd;clip-rule:evenodd;fill:#972F48;}
	.st215{fill-rule:evenodd;clip-rule:evenodd;fill:#E2E2E2;}
	.st216{fill-rule:evenodd;clip-rule:evenodd;fill:#9FA3A9;}
	.st217{fill-rule:evenodd;clip-rule:evenodd;fill:#909396;}
	.st218{fill-rule:evenodd;clip-rule:evenodd;fill:#FFF9F5;}
	.st219{fill:none;stroke:#383838;stroke-linecap:round;stroke-linejoin:round;stroke-miterlimit:10;}
	.st220{fill:#F4F9F8;}
	.st221{fill:#BDC1C6;}
	.st222{fill-rule:evenodd;clip-rule:evenodd;fill:#595A5A;}
	.st223{fill:#E9F5F2;}
	.st224{fill:none;stroke:#21A199;stroke-width:0.5;stroke-linecap:round;stroke-linejoin:round;stroke-miterlimit:10;}
	.st225{fill:none;stroke:#383838;stroke-width:0.25;stroke-linecap:round;stroke-linejoin:round;stroke-miterlimit:10;}
	.st226{fill-rule:evenodd;clip-rule:evenodd;fill:#F4F4F5;}
	.st227{fill:#D3D3D3;}
	.st228{fill:#334564;}
	.st229{fill-rule:evenodd;clip-rule:evenodd;fill:#883C25;}
	.st230{fill-rule:evenodd;clip-rule:evenodd;fill:#FFFFFF;}
	.st231{fill:#EAF5F2;}
	.st232{fill:#A2BDE2;}
	.st233{fill:#CCE9E2;}
	.st234{fill:#9C4522;}
	.st235{fill:#222E42;}
	.st236{fill:#AB533A;}
	.st237{fill:none;stroke:#21A199;stroke-width:0.25;stroke-linecap:round;stroke-linejoin:round;}
	.st238{fill:none;stroke:#21A199;stroke-width:0.25;stroke-linecap:round;stroke-linejoin:round;stroke-dasharray:6.6923;}
	.st239{fill:none;stroke:#972F48;stroke-width:0.25;stroke-linecap:round;stroke-linejoin:round;}
	
		.st240{fill:none;stroke:#972F48;stroke-width:0.25;stroke-linecap:round;stroke-linejoin:round;stroke-dasharray:3.7662,0.9416,0,0;}
	.st241{fill:none;stroke:#68919D;stroke-width:1.5;stroke-linecap:round;stroke-miterlimit:10;}
	.st242{fill:none;stroke:#68919D;stroke-width:1.5;stroke-linecap:round;stroke-linejoin:round;stroke-miterlimit:10;}
	.st243{fill:#68919D;}
	.st244{fill:none;stroke:#68919D;stroke-linecap:round;stroke-miterlimit:10;}
</style>
<g>
	<defs>
		<circle id="SVGID_00000136411836486986680420000013640063375872765626_" cx="29" cy="30.58" r="25.58"/>
	</defs>
	<clipPath id="SVGID_00000098935684724251598200000006465569742393056431_">
		<use xlink:href="#SVGID_00000136411836486986680420000013640063375872765626_"  style="overflow:visible;"/>
	</clipPath>
	
		<g id="man_00000066488358683423738050000007537240804910150845_" style="clip-path:url(#SVGID_00000098935684724251598200000006465569742393056431_);">
		<g>
			<path class="st74" d="M34.67,25.85c-0.01,0-0.02,0-0.03-0.01c-0.08-0.02-0.12-0.1-0.09-0.18c0.37-1.19,0.88-1.9,0.9-1.93
				c0.05-0.06,0.14-0.08,0.2-0.03c0.06,0.05,0.08,0.14,0.03,0.2l0,0c0,0.01-0.5,0.7-0.86,1.85C34.8,25.81,34.74,25.85,34.67,25.85z"
				/>
		</g>
		<path class="st75" d="M22.19,63.06c0,0,1.45-2.29,1.05-4.44c-0.24-1.34-1.79,1.22-1.6,2.7C21.83,62.79,22.19,63.06,22.19,63.06z"
			/>
		<path class="st74" d="M35.03,24.14c0,0-1.59,2.57-2,4.63c-0.41,2.06-0.42-5.24-0.42-5.24L35.03,24.14z"/>
		<path class="st76" d="M19.89,18.54c0,0-2.99,11.92,3.53,12.89c6.51,0.97,8.17-2.21,8.17-2.21l2.29-4.88c0,0,3.2-0.19,3.23-2.14
			s-3.11-1.14-3.11-1.14s-0.94-7.16-7.36-6.47C20.22,15.27,19.89,18.54,19.89,18.54z"/>
		<path class="st76" d="M33.5,23.9c0,0,0.14,8.98,1.22,11.37c0.89,1.97,3.65,5.82,8.16,7.58c0,0-7.87,8.19-19.92,4.17
			s-7.47-4.94-7.47-4.94s7.84-1.82,8.49-5.27c0.65-3.45,1.06-9.28,1.06-9.28L33.5,23.9z"/>
		<path class="st50" d="M33.28,25.95c0,0-4.34,1.97-4.84,2.08c-0.51,0.11-0.39-0.08-0.58-0.04c-0.2,0.05-0.55,0.09-0.55,0.09
			l-0.22-0.25l6.48-3.03l-0.01,0.25l-0.22,0.47L33.28,25.95z"/>
		<path class="st74" d="M37.11,22.2c0,0,1.46-0.62,1.61-2.54c0.09-1.15-1.06-1.66-1.06-1.66s1.12-0.62,1-2.33
			c-0.18-2.7-3.49-2.43-3.49-2.43s-2.27-6.18-8.02-5.96c-4.23,0.16-5.21,2.78-4.65,4.67c0,0-4.07-1.13-5.62,2s2.56,5.32,8.29,3.26
			c0,0,0.74,2.4,3.97,1.52c0,0,3.55-1.06,4.46,2.91C33.61,21.65,36.68,19.6,37.11,22.2z"/>
		<path class="st74" d="M18.36,16.99c0,0,1.02,4.49,1.03,4.39c0.01-0.1,0.43-2.96,1.01-4L18.36,16.99z"/>
		<g>
			<path class="st74" d="M37.32,19.39c-0.05,0-0.09-0.03-0.12-0.07c-0.04-0.07-0.02-0.16,0.05-0.2c0.01,0,0.59-0.34,1.08-0.98
				c0.65-0.84,0.84-1.77,0.56-2.76c-0.27-0.99-0.97-1.63-2.09-1.9c-0.85-0.2-1.62-0.11-1.63-0.11c-0.08,0.01-0.15-0.05-0.16-0.12
				c-0.01-0.08,0.05-0.15,0.12-0.16c0.03,0,0.83-0.1,1.73,0.11c1.21,0.29,2.01,1.02,2.3,2.1c0.29,1.08,0.08,2.12-0.62,3.02
				c-0.52,0.68-1.13,1.03-1.15,1.04C37.38,19.39,37.35,19.39,37.32,19.39z"/>
		</g>
		<g>
			<path class="st74" d="M15.72,16.11c-0.06,0-0.12-0.05-0.13-0.12c-0.16-0.79-0.1-1.47,0.16-2.1c0.33-0.78,1.01-1.47,2.02-2.04
				c0.91-0.52,2.03-0.69,3.23-0.49c0.9,0.15,1.53,0.45,1.56,0.46c0.07,0.03,0.1,0.12,0.07,0.19c-0.03,0.07-0.12,0.1-0.19,0.07l0,0
				c-0.01,0-0.62-0.3-1.49-0.44c-0.79-0.13-1.96-0.16-3.03,0.46c-2.26,1.29-2.25,2.81-2.05,3.84c0.02,0.08-0.04,0.15-0.11,0.17
				C15.75,16.11,15.73,16.11,15.72,16.11z"/>
		</g>
		<g>
			<polygon class="st77" points="27.51,27.25 26.98,27.65 27.2,28.08 27.9,27.82 			"/>
			<path class="st77" d="M27.57,27.45l0.09,0.16c0.13,0.23,0.42,0.31,0.66,0.19l5.19-2.72c0.39-0.22,0.52-0.72,0.3-1.11l0,0
				c-0.22-0.39-0.72-0.52-1.11-0.3l-4.97,3.11C27.51,26.93,27.44,27.22,27.57,27.45z"/>
			<g>
				<path class="st75" d="M27.22,27.93c-0.04,0-0.07-0.02-0.09-0.06c-0.03-0.06-0.01-0.13,0.04-0.16l5.94-3.41
					c0.06-0.03,0.13-0.01,0.16,0.04c0.03,0.06,0.01,0.13-0.04,0.16l-5.94,3.41C27.27,27.93,27.25,27.93,27.22,27.93z"/>
			</g>
			<g>
				<path class="st78" d="M28.26,27.65c-0.05,0-0.1-0.03-0.12-0.08l-0.27-0.54c-0.04-0.07-0.01-0.16,0.06-0.19
					c0.07-0.04,0.16-0.01,0.19,0.06l0.27,0.54c0.04,0.07,0.01,0.16-0.06,0.19C28.31,27.65,28.29,27.65,28.26,27.65z"/>
			</g>
			<g>
				<path class="st78" d="M28.99,27.24c-0.05,0-0.1-0.03-0.12-0.08l-0.27-0.54c-0.04-0.07-0.01-0.16,0.06-0.19
					c0.07-0.04,0.16-0.01,0.19,0.06l0.27,0.54c0.04,0.07,0.01,0.16-0.06,0.19C29.04,27.24,29.01,27.24,28.99,27.24z"/>
			</g>
			<g>
				<path class="st78" d="M29.7,26.8c-0.05,0-0.1-0.03-0.12-0.08l-0.27-0.54c-0.04-0.07-0.01-0.16,0.06-0.19
					c0.07-0.04,0.16-0.01,0.19,0.06l0.27,0.54c0.04,0.07,0.01,0.16-0.06,0.19C29.75,26.8,29.73,26.8,29.7,26.8z"/>
			</g>
			<g>
				<path class="st78" d="M30.47,26.37c-0.05,0-0.1-0.03-0.12-0.08l-0.27-0.54c-0.04-0.07-0.01-0.16,0.06-0.19
					c0.07-0.04,0.16-0.01,0.19,0.06l0.27,0.54c0.04,0.07,0.01,0.16-0.06,0.19C30.52,26.36,30.49,26.37,30.47,26.37z"/>
			</g>
			<g>
				<path class="st78" d="M31.18,25.96c-0.05,0-0.1-0.03-0.12-0.08l-0.27-0.54c-0.04-0.07-0.01-0.16,0.06-0.19
					c0.07-0.04,0.16-0.01,0.19,0.06l0.27,0.54c0.04,0.07,0.01,0.16-0.06,0.19C31.23,25.96,31.21,25.96,31.18,25.96z"/>
			</g>
			<g>
				<path class="st78" d="M31.92,25.49c-0.05,0-0.1-0.03-0.12-0.08l-0.27-0.54c-0.04-0.07-0.01-0.16,0.06-0.19
					c0.07-0.04,0.16-0.01,0.19,0.06l0.27,0.54c0.04,0.07,0.01,0.16-0.06,0.19C31.97,25.49,31.95,25.5,31.92,25.49z"/>
			</g>
			<g>
				<path class="st78" d="M32.65,25.07c-0.05,0-0.1-0.03-0.12-0.08l-0.27-0.54c-0.04-0.07-0.01-0.16,0.06-0.19
					c0.07-0.04,0.16-0.01,0.19,0.06l0.27,0.54c0.04,0.07,0.01,0.16-0.06,0.19C32.7,25.07,32.67,25.07,32.65,25.07z"/>
			</g>
		</g>
		<path class="st74" d="M27.84,21.83c-0.07,0.43-0.3,0.74-0.55,0.72c-0.28-0.02-0.48-0.45-0.44-0.96c0.02-0.3,0.12-0.56,0.25-0.72
			C27.24,21.17,27.48,21.55,27.84,21.83z"/>
		<path class="st74" d="M21.35,21.38c0.01,0.43,0.2,0.77,0.45,0.79c0.28,0.02,0.54-0.38,0.57-0.89c0.02-0.3-0.04-0.57-0.15-0.75
			C22.03,20.81,21.74,21.15,21.35,21.38z"/>
		<g>
			<path class="st74" d="M24.22,25.29c-0.02,0-0.04-0.01-0.05-0.01c-0.46-0.23-0.7-0.5-0.71-0.82c-0.01-0.56,0.73-0.98,0.82-1.03
				c0.07-0.04,0.16-0.01,0.2,0.06c0.04,0.07,0.01,0.16-0.06,0.2l0,0c-0.19,0.1-0.67,0.44-0.66,0.77c0.01,0.25,0.3,0.44,0.55,0.57
				c0.07,0.04,0.1,0.12,0.07,0.19C24.33,25.26,24.27,25.29,24.22,25.29z"/>
		</g>
		<g>
			<path class="st74" d="M27.31,28.77c-0.07,0-0.12-0.06-0.13-0.12c-0.06-0.45-0.25-0.77-0.56-0.96c-0.74-0.44-1.94-0.02-1.95-0.02
				c-0.08,0.03-0.16-0.01-0.19-0.09c-0.03-0.08,0.01-0.16,0.09-0.19c0.05-0.02,1.34-0.47,2.19,0.04c0.39,0.23,0.62,0.63,0.7,1.16
				c0.01,0.08-0.04,0.15-0.12,0.16C27.33,28.77,27.32,28.77,27.31,28.77z"/>
		</g>
		<path class="st50" d="M24.67,31.57c0,0,2.84,0.1,5.2-0.88c0,0-2.44,2.41-5.4,2.67L24.67,31.57z"/>
		<g>
			<path class="st74" d="M26.56,28.81c-0.06,0-0.11-0.04-0.13-0.1c-0.11-0.3-0.63-0.3-0.64-0.3c-0.08,0-0.15-0.06-0.15-0.14
				c0-0.08,0.06-0.15,0.14-0.15c0.03,0,0.74-0.01,0.92,0.5c0.03,0.08-0.01,0.16-0.09,0.18C26.6,28.81,26.58,28.81,26.56,28.81z"/>
		</g>
		<path class="st77" d="M30.85,20c0,0-0.93,1.78-0.07,1.78C31.59,21.78,30.85,20,30.85,20z"/>
		<path class="st77" d="M20.88,18.79c0,0-0.93,1.78-0.07,1.78C21.62,20.57,20.88,18.79,20.88,18.79z"/>
		<path class="st77" d="M31.79,19.39c0,0-0.57,1.08-0.04,1.08C32.24,20.47,31.79,19.39,31.79,19.39z"/>
		<path class="st77" d="M30.52,18.95c0,0-0.39,0.74-0.03,0.74C30.82,19.69,30.52,18.95,30.52,18.95z"/>
		<path class="st77" d="M21.69,18.63c0,0-0.39,0.74-0.03,0.74C22,19.37,21.69,18.63,21.69,18.63z"/>
		<path class="st79" d="M26.56,62.6c2.66,0.17,7.18,0.13,8.56,0.99c0,0,0.84-5.26,1.04-5.15c0.2,0.11,1.46,1.21,1.46,1.21
			s0.35,0.18,0.44,0.31c0.85,1.13,0.12,3.84,0.12,3.84s2.14,0.82,9.83-1.19c7.68-2.01,2.42-12.08-0.35-17.03
			c-2.24-3.99-4.47-6.87-7.7-8.39c-1.5-0.71-4.79-1.89-5.42-2.54l-1.22,0.81c-2.15,1.4-4.8,1.8-7.27,1.09l-1.83-0.65
			c-0.48,0.37-0.44,0.8-3.22,1.73s-6.85,2.95-9.04,6.97C9.57,49,1.66,61.47,9.44,63.09s12.76-0.03,12.76-0.03s-0.89-3.11,0.88-4.74
			C23.07,58.32,24.08,62.44,26.56,62.6z"/>
		<g>
			<path class="st74" d="M34.04,23.47C34.04,23.47,34.04,23.47,34.04,23.47c-0.08-0.01-0.14-0.08-0.13-0.16
				c0-0.03,0.08-0.75,0.55-1.38c0.67-0.9,1.58-0.44,1.59-0.43c0.07,0.04,0.1,0.12,0.06,0.2c-0.04,0.07-0.12,0.1-0.2,0.06
				c-0.03-0.02-0.7-0.35-1.22,0.35c-0.42,0.57-0.49,1.23-0.49,1.24C34.19,23.42,34.12,23.48,34.04,23.47z"/>
		</g>
		<g>
			<path class="st74" d="M35.27,22.55c-0.07,0-0.12-0.05-0.13-0.12c0-0.01-0.03-0.14-0.14-0.21c-0.1-0.06-0.24-0.06-0.42-0.01
				c-0.08,0.02-0.16-0.02-0.18-0.1c-0.02-0.08,0.02-0.16,0.1-0.18c0.26-0.08,0.48-0.07,0.66,0.04c0.22,0.14,0.27,0.38,0.27,0.4
				c0.01,0.08-0.04,0.15-0.12,0.17C35.29,22.55,35.28,22.55,35.27,22.55z"/>
		</g>
		<g>
			<path class="st75" d="M23.07,58.43c-0.01,0-0.02,0-0.03-0.01c-0.07-0.02-6.83-2.38-8.72-3.3c-0.06-0.03-0.08-0.1-0.05-0.15
				c0.03-0.06,0.1-0.08,0.15-0.05c1.88,0.91,8.63,3.27,8.69,3.29c0.06,0.02,0.09,0.09,0.07,0.14
				C23.16,58.41,23.12,58.44,23.07,58.43z"/>
		</g>
		<g>
			<path class="st75" d="M16.81,56.07c-0.01,0-0.03,0-0.04-0.01c-0.06-0.03-0.08-0.09-0.06-0.15c1-2.25,1.31-3.66,1.32-3.68
				c0.01-0.06,0.07-0.1,0.14-0.09c0.06,0.01,0.1,0.07,0.09,0.14c0,0.01-0.33,1.45-1.33,3.72C16.9,56.05,16.85,56.07,16.81,56.07z"/>
		</g>
		<g>
			<path class="st75" d="M38.03,60c-0.03,0-0.06-0.02-0.08-0.04c-0.04-0.05-0.03-0.12,0.02-0.16c0.01-0.01,0.96-0.73,2.29-1.48
				c1.23-0.69,3.04-1.55,4.7-1.68c0.06-0.01,0.12,0.04,0.12,0.1c0.01,0.06-0.04,0.12-0.1,0.12c-1.61,0.13-3.4,0.97-4.61,1.66
				c-1.31,0.74-2.26,1.46-2.26,1.47C38.08,59.99,38.06,60,38.03,60z"/>
		</g>
		<g>
			<path class="st75" d="M43.52,57.06c-0.04,0-0.08-0.03-0.1-0.07c-0.31-0.68-3.23-5.04-3.26-5.08c-0.03-0.05-0.02-0.12,0.03-0.16
				c0.05-0.03,0.12-0.02,0.16,0.03c0.12,0.18,2.95,4.41,3.27,5.11c0.03,0.06,0,0.12-0.06,0.15C43.56,57.06,43.54,57.06,43.52,57.06z
				"/>
		</g>
		<g>
			<path class="st75" d="M28.26,38.26c-1.11-0.08-2.08-0.31-2.78-0.52c-1.04-0.31-1.68-0.65-1.71-0.66
				c-0.06-0.03-0.08-0.1-0.05-0.15c0.03-0.06,0.1-0.08,0.15-0.05c0.01,0,0.65,0.34,1.67,0.64c0.94,0.28,2.4,0.6,4.03,0.52
				c1.62-0.09,3.04-0.73,3.94-1.25c0.99-0.57,1.59-1.12,1.6-1.12c0.05-0.04,0.12-0.04,0.16,0.01c0.04,0.05,0.04,0.12-0.01,0.16
				c-0.03,0.02-0.63,0.57-1.64,1.15c-0.93,0.53-2.39,1.19-4.05,1.28C29.13,38.3,28.69,38.29,28.26,38.26z"/>
		</g>
		<g>
			<path class="st75" d="M34.35,36.53c-0.03,0-0.06-0.02-0.08-0.05l-0.79-1.1c-0.04-0.05-0.02-0.12,0.03-0.16
				c0.05-0.04,0.12-0.02,0.16,0.03l0.79,1.1c0.04,0.05,0.02,0.12-0.03,0.16C34.4,36.52,34.37,36.53,34.35,36.53z"/>
		</g>
		<g>
			<path class="st75" d="M33.15,37.24c-0.04,0-0.07-0.02-0.09-0.06L32.4,36c-0.03-0.05-0.01-0.12,0.04-0.15
				c0.05-0.03,0.12-0.01,0.15,0.04l0.66,1.18c0.03,0.05,0.01,0.12-0.04,0.15C33.2,37.24,33.18,37.24,33.15,37.24z"/>
		</g>
		<g>
			<path class="st75" d="M31.8,37.83c-0.04,0-0.08-0.03-0.1-0.07l-0.46-1.28c-0.02-0.06,0.01-0.12,0.07-0.15
				c0.06-0.02,0.12,0.01,0.15,0.07l0.46,1.28c0.02,0.06-0.01,0.12-0.07,0.15C31.83,37.82,31.82,37.83,31.8,37.83z"/>
		</g>
		<g>
			<path class="st75" d="M30.3,38.2c-0.05,0-0.1-0.04-0.1-0.1l-0.18-1.33c-0.01-0.06,0.04-0.12,0.1-0.13
				c0.06-0.01,0.12,0.04,0.13,0.1l0.18,1.33c0.01,0.06-0.04,0.12-0.1,0.13C30.32,38.2,30.31,38.2,30.3,38.2z"/>
		</g>
		<g>
			<path class="st75" d="M28.72,38.28c-0.06,0-0.11-0.06-0.11-0.12l0.09-1.29c0-0.06,0.06-0.11,0.12-0.11
				c0.06,0,0.11,0.06,0.11,0.12l-0.09,1.29C28.83,38.24,28.78,38.29,28.72,38.28z"/>
		</g>
		<g>
			<path class="st75" d="M27.12,38.13c0,0-0.01,0-0.01,0c-0.06-0.01-0.1-0.07-0.09-0.13l0.22-1.18c0.01-0.06,0.07-0.1,0.13-0.09
				c0.06,0.01,0.1,0.07,0.09,0.13l-0.22,1.18C27.23,38.09,27.18,38.13,27.12,38.13z"/>
		</g>
		<g>
			<path class="st75" d="M25.46,37.73c-0.01,0-0.02,0-0.03-0.01c-0.06-0.02-0.09-0.08-0.07-0.14l0.37-1.13
				c0.02-0.06,0.08-0.09,0.14-0.07c0.06,0.02,0.09,0.08,0.07,0.14l-0.37,1.13C25.56,37.71,25.51,37.74,25.46,37.73z"/>
		</g>
		<g>
			<path class="st75" d="M24.21,37.13c-0.01,0-0.02,0-0.04-0.01c-0.06-0.02-0.08-0.09-0.06-0.15l0.4-0.95
				c0.02-0.06,0.09-0.08,0.15-0.06c0.06,0.02,0.08,0.09,0.06,0.15l-0.4,0.95C24.31,37.1,24.26,37.13,24.21,37.13z"/>
		</g>
		<g>
			<path class="st76" d="M38.3,60.38c-0.21-0.45-0.38-1.45-0.75-1.84c-0.37-0.39-1.67-1.64-2.22-1.78
				c-0.56-0.13-2.72,0.21-3.12,0.36c-0.4,0.15-1.28,0.19-1.45,0.45c-0.17,0.26-0.22,0.86,0.42,1.04c0,0-0.57,0.27-0.72,0.49
				c-0.15,0.22-0.09,0.53-0.06,0.64c0.04,0.11,0.27,0.27,0.27,0.27s-0.24,0.49-0.29,0.81c-0.04,0.32,0.3,0.5,0.3,0.5
				s-0.44,0.42-0.29,0.96c0.15,0.54,0.96,0.69,0.96,0.69s-0.35,0.08-0.3,0.55c0.04,0.47,2.64,1.02,3.08,1.07
				c0.44,0.06,2.68-0.89,3.32-1.09c0.65-0.19,0.96-0.07,0.96-0.07S38.71,61.28,38.3,60.38z"/>
			<g>
				<path class="st50" d="M31.79,60.36c-0.61-0.04-1.15-0.11-1.2-0.12c-0.09-0.01-0.15-0.09-0.14-0.18
					c0.01-0.09,0.09-0.15,0.18-0.14c0.02,0,1.89,0.25,2.57,0.1c0.09-0.02,0.17,0.04,0.19,0.13c0.02,0.09-0.04,0.17-0.13,0.19
					C32.93,60.42,32.34,60.4,31.79,60.36z"/>
			</g>
			<g>
				<path class="st50" d="M31.15,58.77c-0.07,0-0.13-0.06-0.15-0.13c-0.02-0.09,0.04-0.17,0.13-0.19c0.06-0.01,1.42-0.29,1.89-0.26
					c0,0,0,0,0,0c0.19,0.01,0.37,0.04,0.53,0.06c0.19,0.03,0.4,0.06,0.46,0.04c0.03-0.01,0.11-0.04,0.19-0.07
					c0.6-0.22,0.99-0.33,1.2-0.24c0.08,0.04,0.12,0.13,0.08,0.21c-0.04,0.08-0.13,0.12-0.21,0.08c-0.09-0.04-0.41,0.05-0.96,0.25
					c-0.1,0.04-0.17,0.06-0.22,0.08c-0.13,0.03-0.32,0.01-0.59-0.03c-0.16-0.02-0.33-0.05-0.51-0.06c0,0,0,0,0,0
					c-0.35-0.02-1.42,0.17-1.8,0.25C31.18,58.77,31.17,58.78,31.15,58.77z"/>
			</g>
		</g>
		<g>
			<path class="st76" d="M21.65,59.63c0,0,4.68-2.11,5.18-2.14c0.5-0.03,5.14,1.05,6.11,2.42c0.45,0.64-0.57,0.56-0.84,0.72
				c0,0,1.77,1.31-0.46,1.36c0,0,1.18,1.28-0.67,1.28c0,0,0.46,1.37-0.87,0.98c-1.41-0.42-3.93-0.33-4.19-0.42
				c-0.26-0.09-4.02-0.31-4.44-0.61C21.05,62.91,18.97,61.88,21.65,59.63z"/>
			<g>
				<path class="st50" d="M32.16,60.76c-0.02,0-0.04-0.01-0.06-0.02c-0.01-0.01-1.13-0.57-2.18-0.94c-0.99-0.35-1.43-0.24-1.44-0.24
					c-0.09,0.03-0.17-0.02-0.2-0.11s0.03-0.18,0.11-0.2c0.05-0.02,0.55-0.14,1.63,0.25c1.07,0.38,2.2,0.95,2.21,0.96
					c0.08,0.04,0.11,0.14,0.07,0.22C32.28,60.73,32.22,60.77,32.16,60.76z"/>
			</g>
		</g>
	</g>
</g>
</svg>
