<?xml version="1.0" encoding="utf-8"?>
<!-- Generator: Adobe Illustrator 26.3.1, SVG Export Plug-In . SVG Version: 6.00 Build 0)  -->
<svg version="1.1" id="Layer_1" xmlns="http://www.w3.org/2000/svg" xmlns:xlink="http://www.w3.org/1999/xlink" x="0px" y="0px"
	 viewBox="0 0 58 60.58" style="enable-background:new 0 0 58 60.58;" xml:space="preserve">
<style type="text/css">
	.st0{display:none;fill:#F0EFEF;}
	.st1{display:none;fill:none;stroke:#22A199;stroke-linecap:round;stroke-linejoin:round;stroke-miterlimit:10;}
	.st2{fill:#333333;}
	.st3{opacity:0.5;}
	.st4{fill:#F0E0E4;}
	.st5{fill:#972F48;}
	.st6{fill:#E9E9E9;}
	.st7{fill:none;}
	.st8{fill:#FFFFFF;}
	.st9{fill:none;stroke:#333333;stroke-linecap:round;stroke-miterlimit:10;}
	.st10{fill:none;stroke:#972F48;stroke-linecap:round;stroke-miterlimit:10;}
	.st11{fill:none;stroke:#333333;stroke-miterlimit:10;}
	.st12{fill:#F0E0E4;stroke:#972F48;stroke-linecap:round;stroke-linejoin:round;stroke-miterlimit:10;}
	.st13{fill:#E9E9E9;stroke:#972F48;stroke-linecap:round;stroke-linejoin:round;stroke-miterlimit:10;}
	.st14{fill:none;stroke:#972F48;stroke-miterlimit:10;}
	.st15{fill:none;stroke:#21A199;stroke-linecap:round;stroke-linejoin:round;stroke-miterlimit:10;}
	.st16{fill:#FFFFFF;stroke:#333333;stroke-linecap:round;stroke-linejoin:round;stroke-miterlimit:10;}
	.st17{fill:none;stroke:#333333;stroke-linecap:round;stroke-linejoin:round;stroke-miterlimit:10;}
	.st18{fill:#F0E0E4;stroke:#972F48;stroke-miterlimit:10;}
	.st19{fill:#E9E9E9;stroke:#972F48;stroke-linecap:round;stroke-miterlimit:10;}
	.st20{fill:#E9E9E9;stroke:#333333;stroke-linecap:round;stroke-linejoin:round;stroke-miterlimit:10;}
	.st21{fill:none;stroke:#972F48;stroke-linecap:round;stroke-linejoin:round;stroke-miterlimit:10;}
	.st22{fill:none;stroke:#333333;stroke-width:0.9722;stroke-linecap:round;stroke-miterlimit:10;}
	.st23{fill:none;stroke:#333333;stroke-width:0.9722;stroke-miterlimit:10;}
	.st24{fill:#F0E0E4;stroke:#972F48;stroke-width:0.9722;stroke-miterlimit:10;}
	.st25{fill:#FFFFFF;stroke:#982F48;stroke-width:0.9722;stroke-miterlimit:10;}
	.st26{fill:none;stroke:#972F48;stroke-width:0.9722;stroke-miterlimit:10;}
	.st27{fill:none;stroke:#333333;stroke-linecap:round;stroke-linejoin:round;}
	.st28{fill:none;stroke:#333333;stroke-linecap:round;stroke-linejoin:round;stroke-dasharray:2.2305,2.2305;}
	.st29{fill:#98D4C6;stroke:#21A199;stroke-linecap:round;stroke-linejoin:round;stroke-miterlimit:10;}
	.st30{fill:#F0E0E4;stroke:#972F48;stroke-width:0.75;stroke-linecap:round;stroke-linejoin:round;stroke-miterlimit:10;}
	.st31{fill:#E9E9E9;stroke:#972F48;stroke-width:0.75;stroke-linecap:round;stroke-linejoin:round;stroke-miterlimit:10;}
	.st32{fill:none;stroke:#21A199;stroke-linecap:round;stroke-miterlimit:10;}
	.st33{fill:none;stroke:#21A199;stroke-miterlimit:10;}
	.st34{fill:#CCE9E2;stroke:#21A199;stroke-linecap:round;stroke-linejoin:round;stroke-miterlimit:10;}
	.st35{fill:#21A199;}
	.st36{fill-rule:evenodd;clip-rule:evenodd;fill:#22A199;}
	.st37{fill:#22A199;}
	.st38{fill:#CDCFCE;}
	.st39{clip-path:url(#SVGID_00000082343314147089385520000011231654505916919719_);}
	.st40{fill:#F4F8F9;}
	.st41{fill:none;stroke:#F4F8F9;stroke-width:0.25;stroke-linecap:round;stroke-miterlimit:10;}
	.st42{fill:#E5F4F2;}
	.st43{clip-path:url(#SVGID_00000142860516409936754360000003769972143706995080_);}
	.st44{fill:#98D4C6;}
	.st45{fill:#EFE0E5;}
	.st46{fill:#963048;}
	.st47{clip-path:url(#SVGID_00000088816589524871711910000005823503925075870625_);}
	.st48{clip-path:url(#SVGID_00000026859876899994123270000016924050930781385615_);}
	.st49{fill:#FAC1A2;}
	.st50{fill:#F68F6C;}
	.st51{clip-path:url(#SVGID_00000057147080238079409590000012135023036556030640_);}
	
		.st52{clip-path:url(#SVGID_00000034078362244322340780000004579213450038982329_);fill-rule:evenodd;clip-rule:evenodd;fill:#E9DFEF;}
	.st53{clip-path:url(#SVGID_00000033366412859088916380000001460870921395434389_);}
	.st54{clip-path:url(#SVGID_00000073693085883088506770000004682815134176646812_);}
	
		.st55{clip-path:url(#SVGID_00000147909085033876055970000017851106452190803587_);fill-rule:evenodd;clip-rule:evenodd;fill:#E9DFEF;}
	.st56{clip-path:url(#SVGID_00000088101853017626773120000000683602456027931526_);}
	
		.st57{clip-path:url(#SVGID_00000045592325940792538620000014667538446980059070_);fill-rule:evenodd;clip-rule:evenodd;fill:#FAAF7B;}
	
		.st58{clip-path:url(#SVGID_00000045592325940792538620000014667538446980059070_);fill-rule:evenodd;clip-rule:evenodd;fill:#E9DFEF;}
	
		.st59{clip-path:url(#SVGID_00000076596605781244832790000000518102877302552727_);fill:none;stroke:#847AA7;stroke-width:0.25;stroke-linecap:round;stroke-linejoin:round;stroke-miterlimit:10;}
	.st60{clip-path:url(#SVGID_00000145749395606924743430000006929790256944049059_);}
	
		.st61{clip-path:url(#SVGID_00000025409621432368497660000006888169324187757742_);fill-rule:evenodd;clip-rule:evenodd;fill:#D65154;}
	
		.st62{clip-path:url(#SVGID_00000144331311961037588860000000858213977391430580_);fill:none;stroke:#847AA7;stroke-width:0.25;stroke-linecap:round;stroke-linejoin:round;stroke-miterlimit:10;}
	.st63{clip-path:url(#SVGID_00000008841966166103506370000008913668244849634469_);}
	.st64{clip-path:url(#SVGID_00000157267988044286498690000006329446673218241455_);}
	.st65{fill:#242638;}
	.st66{fill:none;stroke:#242638;stroke-width:0.2;stroke-linecap:round;stroke-miterlimit:10;}
	.st67{fill:none;stroke:#D64F4F;stroke-width:0.2;stroke-linecap:round;stroke-linejoin:round;stroke-miterlimit:10;}
	.st68{fill:none;stroke:#242638;stroke-width:0.2;stroke-linecap:round;stroke-linejoin:round;stroke-miterlimit:10;}
	
		.st69{clip-path:url(#SVGID_00000157267988044286498690000006329446673218241455_);fill-rule:evenodd;clip-rule:evenodd;fill:#F6B89C;}
	
		.st70{clip-path:url(#SVGID_00000016780926028465012040000007575781890468891834_);fill:none;stroke:#F68F6C;stroke-width:0.25;stroke-miterlimit:10;}
	
		.st71{clip-path:url(#SVGID_00000085219363761982654920000008480293337483068318_);fill-rule:evenodd;clip-rule:evenodd;fill:#F6B89C;}
	
		.st72{clip-path:url(#SVGID_00000085219363761982654920000008480293337483068318_);fill-rule:evenodd;clip-rule:evenodd;fill:#F68F6C;}
	.st73{clip-path:url(#SVGID_00000065783034614679642260000009476170289145505157_);}
	.st74{fill:#233642;}
	.st75{fill:#AEA580;}
	.st76{fill:#F6B89C;}
	.st77{fill:#FCFDFD;}
	.st78{fill:#5D778F;}
	.st79{fill:#FFEBBF;}
	.st80{clip-path:url(#SVGID_00000173154747324854259480000015561025625193794991_);}
	.st81{fill:#FBBF9E;}
	.st82{fill:#F7996E;}
	.st83{fill:#263238;}
	.st84{fill:#455B64;}
	.st85{fill:#263238;stroke:#263238;stroke-width:0.25;stroke-miterlimit:10;}
	.st86{fill:#FFFFFF;stroke:#263238;stroke-width:0.1;stroke-miterlimit:10;}
	.st87{fill:#E9DFEF;}
	.st88{fill:#847AA7;}
	.st89{opacity:0.3;}
	.st90{fill:#FBBF9E;stroke:#F7996E;stroke-width:0.05;stroke-miterlimit:10;}
	.st91{clip-path:url(#SVGID_00000041980853541446417500000016571653662169469861_);}
	.st92{fill:#FFFCD9;}
	.st93{fill:#F8A78A;}
	.st94{fill:#CE7E75;}
	.st95{fill:#F4805A;}
	.st96{fill:none;stroke:#F7996E;stroke-width:0.25;stroke-linecap:round;stroke-miterlimit:10;}
	.st97{fill:#F3725F;}
	.st98{fill:#6F453A;}
	.st99{fill:#FABAA7;}
	.st100{clip-path:url(#SVGID_00000034779916845978481460000003816446891964587668_);}
	.st101{clip-path:url(#SVGID_00000085242932985488213600000006578252606997453449_);}
	.st102{fill:#C4B7DA;}
	.st103{fill:#FAFBFB;}
	.st104{fill:#AEA5D1;}
	.st105{fill:#A5A2C3;}
	.st106{opacity:0.37;}
	
		.st107{clip-path:url(#SVGID_00000034779916845978481460000003816446891964587668_);fill:none;stroke:#263238;stroke-width:0.25;stroke-linecap:round;stroke-miterlimit:10;}
	.st108{fill:#F4F9FD;}
	.st109{clip-path:url(#SVGID_00000096049368718245008640000011730319298556011164_);}
	.st110{clip-path:url(#SVGID_00000164482302129122220200000009581285887456658826_);}
	.st111{clip-path:url(#SVGID_00000054946284020859981640000007308225445544992654_);}
	
		.st112{clip-path:url(#SVGID_00000127039008842695203140000009589456620573464965_);fill-rule:evenodd;clip-rule:evenodd;fill:#E9DFEF;}
	.st113{clip-path:url(#SVGID_00000178900042971299580390000017053094601712802978_);}
	.st114{clip-path:url(#SVGID_00000059988933525532462550000004570092413388103092_);}
	
		.st115{clip-path:url(#SVGID_00000152965883166634748220000014076165097589135285_);fill-rule:evenodd;clip-rule:evenodd;fill:#E9DFEF;}
	.st116{clip-path:url(#SVGID_00000018930492009418329460000004618789422027603900_);}
	
		.st117{clip-path:url(#SVGID_00000163794101827470462930000007742581756491783584_);fill-rule:evenodd;clip-rule:evenodd;fill:#FAAF7B;}
	
		.st118{clip-path:url(#SVGID_00000163794101827470462930000007742581756491783584_);fill-rule:evenodd;clip-rule:evenodd;fill:#E9DFEF;}
	
		.st119{clip-path:url(#SVGID_00000035519374220323923350000015926931636887395771_);fill:none;stroke:#847AA7;stroke-width:0.25;stroke-linecap:round;stroke-linejoin:round;stroke-miterlimit:10;}
	.st120{clip-path:url(#SVGID_00000142866130778805662130000017089110779460259980_);}
	
		.st121{clip-path:url(#SVGID_00000126323163250247437000000002234720335821389710_);fill-rule:evenodd;clip-rule:evenodd;fill:#D65154;}
	
		.st122{clip-path:url(#SVGID_00000029014590843912128200000006329761712190974393_);fill:none;stroke:#847AA7;stroke-width:0.25;stroke-linecap:round;stroke-linejoin:round;stroke-miterlimit:10;}
	.st123{clip-path:url(#SVGID_00000022538141732282646530000011995507938802767505_);}
	.st124{clip-path:url(#SVGID_00000081631109289727776230000016957155342067260090_);}
	
		.st125{clip-path:url(#SVGID_00000081631109289727776230000016957155342067260090_);fill-rule:evenodd;clip-rule:evenodd;fill:#F6B89C;}
	
		.st126{clip-path:url(#SVGID_00000003067877254616293180000011402033812018148001_);fill:none;stroke:#F68F6C;stroke-width:0.25;stroke-miterlimit:10;}
	
		.st127{clip-path:url(#SVGID_00000141444695753191190850000016100124289351526552_);fill-rule:evenodd;clip-rule:evenodd;fill:#F6B89C;}
	
		.st128{clip-path:url(#SVGID_00000141444695753191190850000016100124289351526552_);fill-rule:evenodd;clip-rule:evenodd;fill:#F68F6C;}
	.st129{clip-path:url(#SVGID_00000024693332494227084340000000234393234896615594_);}
	.st130{clip-path:url(#SVGID_00000067194636982818388680000008152483065503831711_);}
	.st131{clip-path:url(#SVGID_00000091720367481417228470000007567027950524236975_);}
	.st132{clip-path:url(#SVGID_00000164500311236739076680000007439014614905432733_);}
	.st133{clip-path:url(#SVGID_00000130640380276699186040000001314521306605810870_);}
	
		.st134{clip-path:url(#SVGID_00000164500311236739076680000007439014614905432733_);fill:none;stroke:#263238;stroke-width:0.25;stroke-linecap:round;stroke-miterlimit:10;}
	.st135{clip-path:url(#SVGID_00000044170108604678445390000001112080792488507560_);}
	.st136{clip-path:url(#SVGID_00000064355459025205274300000014684154223429275549_);}
	.st137{clip-path:url(#SVGID_00000052101123088077011320000002997161981915642805_);}
	
		.st138{clip-path:url(#SVGID_00000093146993795758250400000016042774924107911823_);fill-rule:evenodd;clip-rule:evenodd;fill:#E9DFEF;}
	.st139{clip-path:url(#SVGID_00000002345383051855436830000013795956273724406922_);}
	.st140{clip-path:url(#SVGID_00000047751004783943326700000017581840895661121189_);}
	
		.st141{clip-path:url(#SVGID_00000143586989148698127180000005961281308429384617_);fill-rule:evenodd;clip-rule:evenodd;fill:#E9DFEF;}
	.st142{clip-path:url(#SVGID_00000139980260720361558980000015301380826503027885_);}
	
		.st143{clip-path:url(#SVGID_00000046332520147020515260000009844929247419340452_);fill-rule:evenodd;clip-rule:evenodd;fill:#FAAF7B;}
	
		.st144{clip-path:url(#SVGID_00000046332520147020515260000009844929247419340452_);fill-rule:evenodd;clip-rule:evenodd;fill:#E9DFEF;}
	
		.st145{clip-path:url(#SVGID_00000133497894189174175540000004608933651876556208_);fill:none;stroke:#847AA7;stroke-width:0.25;stroke-linecap:round;stroke-linejoin:round;stroke-miterlimit:10;}
	.st146{clip-path:url(#SVGID_00000134961515235038850880000018003023206395568057_);}
	
		.st147{clip-path:url(#SVGID_00000090290473335321795720000011920847248580307361_);fill-rule:evenodd;clip-rule:evenodd;fill:#D65154;}
	
		.st148{clip-path:url(#SVGID_00000059998851157902514110000017680440998910524072_);fill:none;stroke:#847AA7;stroke-width:0.25;stroke-linecap:round;stroke-linejoin:round;stroke-miterlimit:10;}
	.st149{clip-path:url(#SVGID_00000024721494448779734440000004013192533800180646_);}
	.st150{clip-path:url(#SVGID_00000103224730790367271860000009527067804538186671_);}
	
		.st151{clip-path:url(#SVGID_00000103224730790367271860000009527067804538186671_);fill-rule:evenodd;clip-rule:evenodd;fill:#F6B89C;}
	
		.st152{clip-path:url(#SVGID_00000165216790544495944960000002358660312196938679_);fill:none;stroke:#F68F6C;stroke-width:0.25;stroke-miterlimit:10;}
	
		.st153{clip-path:url(#SVGID_00000070093308522711098780000015226709084238869691_);fill-rule:evenodd;clip-rule:evenodd;fill:#F6B89C;}
	
		.st154{clip-path:url(#SVGID_00000070093308522711098780000015226709084238869691_);fill-rule:evenodd;clip-rule:evenodd;fill:#F68F6C;}
	.st155{clip-path:url(#SVGID_00000108311487919341731260000002840225723931199378_);}
	.st156{clip-path:url(#SVGID_00000064327362215367588760000012738032492395838353_);}
	.st157{clip-path:url(#SVGID_00000050665386874245466690000002652408196309559182_);}
	.st158{clip-path:url(#SVGID_00000063603786356530325830000014442758782709612735_);}
	.st159{clip-path:url(#SVGID_00000124876753941051168790000003985469226325979788_);}
	
		.st160{clip-path:url(#SVGID_00000063603786356530325830000014442758782709612735_);fill:none;stroke:#263238;stroke-width:0.25;stroke-linecap:round;stroke-miterlimit:10;}
	.st161{clip-path:url(#SVGID_00000059310697390311812580000009209978705060447112_);}
	.st162{clip-path:url(#SVGID_00000156547430225914143560000018417407504414777742_);}
	.st163{clip-path:url(#SVGID_00000153686005303056562830000018311793281717628091_);}
	
		.st164{clip-path:url(#SVGID_00000020364741590353000600000001434266161926615439_);fill-rule:evenodd;clip-rule:evenodd;fill:#E9DFEF;}
	.st165{clip-path:url(#SVGID_00000067229687161699569350000003112674696403330732_);}
	.st166{clip-path:url(#SVGID_00000035523670087817848180000012037591953147693184_);}
	
		.st167{clip-path:url(#SVGID_00000097497720651093248060000013970512741036458937_);fill-rule:evenodd;clip-rule:evenodd;fill:#E9DFEF;}
	.st168{clip-path:url(#SVGID_00000166671464289113169890000015230418138197190571_);}
	
		.st169{clip-path:url(#SVGID_00000083804408962323863720000015125001993004247684_);fill-rule:evenodd;clip-rule:evenodd;fill:#FAAF7B;}
	
		.st170{clip-path:url(#SVGID_00000083804408962323863720000015125001993004247684_);fill-rule:evenodd;clip-rule:evenodd;fill:#E9DFEF;}
	
		.st171{clip-path:url(#SVGID_00000117676082831734739090000009376552338575349163_);fill:none;stroke:#847AA7;stroke-width:0.25;stroke-linecap:round;stroke-linejoin:round;stroke-miterlimit:10;}
	.st172{clip-path:url(#SVGID_00000052787084221497847180000013229239126208911034_);}
	
		.st173{clip-path:url(#SVGID_00000182495096031319407140000013521921033444243360_);fill-rule:evenodd;clip-rule:evenodd;fill:#D65154;}
	
		.st174{clip-path:url(#SVGID_00000147212975396036087760000011159819480984712626_);fill:none;stroke:#847AA7;stroke-width:0.25;stroke-linecap:round;stroke-linejoin:round;stroke-miterlimit:10;}
	.st175{clip-path:url(#SVGID_00000177444277913261243670000007102199188545246361_);}
	.st176{clip-path:url(#SVGID_00000097473212713142427710000008109540384527613864_);}
	
		.st177{clip-path:url(#SVGID_00000097473212713142427710000008109540384527613864_);fill-rule:evenodd;clip-rule:evenodd;fill:#F6B89C;}
	
		.st178{clip-path:url(#SVGID_00000170256530087776923480000012263902056734972834_);fill:none;stroke:#F68F6C;stroke-width:0.25;stroke-miterlimit:10;}
	
		.st179{clip-path:url(#SVGID_00000099634936817984288120000003495248582138280625_);fill-rule:evenodd;clip-rule:evenodd;fill:#F6B89C;}
	
		.st180{clip-path:url(#SVGID_00000099634936817984288120000003495248582138280625_);fill-rule:evenodd;clip-rule:evenodd;fill:#F68F6C;}
	.st181{clip-path:url(#SVGID_00000054983881113264893320000015121043013849187209_);}
	.st182{clip-path:url(#SVGID_00000093155042494923468230000000464843943915240585_);}
	.st183{clip-path:url(#SVGID_00000103987352649382427090000006794014691838884484_);}
	.st184{clip-path:url(#SVGID_00000072984909806549689730000011862558757124479111_);}
	.st185{clip-path:url(#SVGID_00000178165543987330189410000001766005733802656923_);}
	
		.st186{clip-path:url(#SVGID_00000072984909806549689730000011862558757124479111_);fill:none;stroke:#263238;stroke-width:0.25;stroke-linecap:round;stroke-miterlimit:10;}
	.st187{fill:#D8D8D8;}
	.st188{fill-rule:evenodd;clip-rule:evenodd;fill:#F7EBEE;}
	.st189{fill:#595A5A;}
	.st190{fill:#383838;}
	.st191{fill:#9FA3A9;}
	.st192{fill:#EC795A;}
	.st193{fill:#93C9C3;}
	.st194{fill:#3D2316;}
	.st195{fill:#B3B3B3;}
	.st196{fill:#BB5336;}
	.st197{fill:#763D36;}
	.st198{fill:#401E1E;}
	.st199{fill:#572B23;}
	.st200{fill:#4F271F;}
	.st201{fill:#5C5C5C;}
	.st202{fill-rule:evenodd;clip-rule:evenodd;fill:#21A199;}
	.st203{fill:#24406F;}
	.st204{fill-rule:evenodd;clip-rule:evenodd;fill:#C95835;}
	.st205{fill:#C95835;}
	.st206{fill-rule:evenodd;clip-rule:evenodd;fill:#383838;}
	.st207{fill-rule:evenodd;clip-rule:evenodd;fill:#D8D8D8;}
	.st208{fill-rule:evenodd;clip-rule:evenodd;fill:#E3633D;}
	.st209{fill-rule:evenodd;clip-rule:evenodd;fill:#4A2B1B;}
	.st210{fill-rule:evenodd;clip-rule:evenodd;fill:#5C5C5C;}
	.st211{fill-rule:evenodd;clip-rule:evenodd;fill:#F0E0E4;}
	.st212{fill-rule:evenodd;clip-rule:evenodd;fill:#643D1F;}
	.st213{fill:#DBC2C9;}
	.st214{fill-rule:evenodd;clip-rule:evenodd;fill:#972F48;}
	.st215{fill-rule:evenodd;clip-rule:evenodd;fill:#E2E2E2;}
	.st216{fill-rule:evenodd;clip-rule:evenodd;fill:#9FA3A9;}
	.st217{fill-rule:evenodd;clip-rule:evenodd;fill:#909396;}
	.st218{fill-rule:evenodd;clip-rule:evenodd;fill:#FFF9F5;}
	.st219{fill:none;stroke:#383838;stroke-linecap:round;stroke-linejoin:round;stroke-miterlimit:10;}
	.st220{fill:#F4F9F8;}
	.st221{fill:#BDC1C6;}
	.st222{fill-rule:evenodd;clip-rule:evenodd;fill:#595A5A;}
	.st223{fill:#E9F5F2;}
	.st224{fill:none;stroke:#21A199;stroke-width:0.5;stroke-linecap:round;stroke-linejoin:round;stroke-miterlimit:10;}
	.st225{fill:none;stroke:#383838;stroke-width:0.25;stroke-linecap:round;stroke-linejoin:round;stroke-miterlimit:10;}
	.st226{fill-rule:evenodd;clip-rule:evenodd;fill:#F4F4F5;}
	.st227{fill:#D3D3D3;}
	.st228{fill:#334564;}
	.st229{fill-rule:evenodd;clip-rule:evenodd;fill:#883C25;}
	.st230{fill-rule:evenodd;clip-rule:evenodd;fill:#FFFFFF;}
	.st231{fill:#EAF5F2;}
	.st232{fill:#A2BDE2;}
	.st233{fill:#CCE9E2;}
	.st234{fill:#9C4522;}
	.st235{fill:#222E42;}
	.st236{fill:#AB533A;}
	.st237{fill:none;stroke:#21A199;stroke-width:0.25;stroke-linecap:round;stroke-linejoin:round;}
	.st238{fill:none;stroke:#21A199;stroke-width:0.25;stroke-linecap:round;stroke-linejoin:round;stroke-dasharray:6.6923;}
	.st239{fill:none;stroke:#972F48;stroke-width:0.25;stroke-linecap:round;stroke-linejoin:round;}
	
		.st240{fill:none;stroke:#972F48;stroke-width:0.25;stroke-linecap:round;stroke-linejoin:round;stroke-dasharray:3.7662,0.9416,0,0;}
	.st241{fill:none;stroke:#68919D;stroke-width:1.5;stroke-linecap:round;stroke-miterlimit:10;}
	.st242{fill:none;stroke:#68919D;stroke-width:1.5;stroke-linecap:round;stroke-linejoin:round;stroke-miterlimit:10;}
	.st243{fill:#68919D;}
	.st244{fill:none;stroke:#68919D;stroke-linecap:round;stroke-miterlimit:10;}
</style>
<g>
	<defs>
		<circle id="SVGID_00000105387030673835252820000010594161357507574917_" cx="29" cy="30.58" r="25.58"/>
	</defs>
	<clipPath id="SVGID_00000011028015428988265210000000470558490097645711_">
		<use xlink:href="#SVGID_00000105387030673835252820000010594161357507574917_"  style="overflow:visible;"/>
	</clipPath>
	<g style="clip-path:url(#SVGID_00000011028015428988265210000000470558490097645711_);">
		<defs>
			<rect id="SVGID_00000063599053489109193670000002099009735807100551_" x="9.36" y="10.7" width="43.27" height="46.18"/>
		</defs>
		<clipPath id="SVGID_00000159443998772745631750000009572676259353448383_">
			<use xlink:href="#SVGID_00000063599053489109193670000002099009735807100551_"  style="overflow:visible;"/>
		</clipPath>
		<g style="clip-path:url(#SVGID_00000159443998772745631750000009572676259353448383_);">
			<g>
				<g>
					<g>
						<path class="st102" d="M30.74,31.67c0.76-0.35,1.59-0.51,2.42-0.61c1.06-0.13,2.27-0.12,3.03,0.63
							c0.72,0.7,0.85,1.9,1.66,2.49c0.63,0.46,1.47,0.43,2.24,0.52c1.69,0.21,3.26,1.13,4.37,2.43c1.1,1.3,1.75,2.96,1.95,4.65
							c0.24,1.99-0.08,4.14,0.93,5.87c0.9,1.54,2.65,2.36,4.37,2.84c-1.07,1.73-7.09,5.4-8.97,6.16l-1.76-14.78
							c0,0-6.91-7.97-9.36-7.87L30.74,31.67z"/>
					</g>
					<g>
						<g>
							<path class="st103" d="M46.27,40.95c0,0,0,0.02-0.02,0.05c-0.02,0.04-0.05,0.08-0.09,0.14c-0.08,0.12-0.22,0.28-0.44,0.44
								c-0.21,0.15-0.5,0.29-0.84,0.36c-0.34,0.07-0.72,0.08-1.12,0.08c-0.4-0.01-0.77-0.02-1.11,0c-0.34,0.02-0.64,0.07-0.89,0.14
								c-0.49,0.15-0.73,0.38-0.74,0.36c0,0,0.01-0.02,0.04-0.04c0.03-0.03,0.07-0.06,0.13-0.11c0.12-0.09,0.3-0.19,0.55-0.28
								c0.25-0.08,0.56-0.14,0.9-0.17c0.34-0.02,0.72-0.01,1.12,0c0.39,0.01,0.77,0,1.1-0.07c0.33-0.06,0.61-0.19,0.82-0.33
								C46.11,41.25,46.25,40.94,46.27,40.95z"/>
						</g>
					</g>
					<g>
						<g>
							<path class="st103" d="M46.62,45.41c0,0.01-0.06,0.05-0.18,0.13c-0.06,0.04-0.13,0.09-0.22,0.14
								c-0.09,0.05-0.19,0.11-0.3,0.16c-0.23,0.12-0.51,0.23-0.83,0.34c-0.32,0.1-0.68,0.19-1.07,0.24
								c-0.39,0.05-0.76,0.06-1.1,0.04c-0.34-0.02-0.64-0.06-0.89-0.11c-0.13-0.02-0.24-0.06-0.33-0.08
								c-0.1-0.02-0.18-0.05-0.25-0.08c-0.13-0.05-0.21-0.08-0.21-0.08c0.01-0.02,0.3,0.08,0.8,0.17c0.25,0.04,0.55,0.08,0.88,0.09
								c0.33,0.01,0.7,0,1.08-0.05c0.38-0.05,0.74-0.13,1.06-0.23c0.32-0.1,0.6-0.21,0.83-0.31C46.35,45.57,46.61,45.4,46.62,45.41z
								"/>
						</g>
					</g>
					<g>
						<g>
							<path class="st103" d="M49.03,49.36c0,0.01-0.1,0.01-0.29,0.03c-0.18,0.03-0.44,0.1-0.73,0.26
								c-0.28,0.17-0.59,0.41-0.92,0.71c-0.33,0.29-0.67,0.64-1.09,0.93c-0.42,0.29-0.87,0.5-1.29,0.64
								c-0.42,0.13-0.83,0.18-1.16,0.18c-0.34,0-0.6-0.06-0.78-0.11c-0.09-0.02-0.16-0.05-0.2-0.07c-0.05-0.02-0.07-0.03-0.07-0.03
								c0.01-0.02,0.39,0.15,1.05,0.14c0.33,0,0.72-0.06,1.13-0.2c0.41-0.14,0.85-0.35,1.26-0.63c0.41-0.29,0.76-0.63,1.09-0.92
								c0.33-0.29,0.65-0.54,0.94-0.7c0.3-0.16,0.57-0.23,0.75-0.24c0.09-0.01,0.17-0.01,0.22,0C49,49.35,49.03,49.36,49.03,49.36z"
								/>
						</g>
					</g>
					<g>
						<g>
							<path class="st103" d="M44.45,37.14c0,0,0,0.02-0.02,0.06c-0.01,0.04-0.04,0.1-0.07,0.17c-0.07,0.14-0.21,0.34-0.45,0.52
								c-0.23,0.18-0.55,0.33-0.91,0.43c-0.37,0.11-0.79,0.16-1.22,0.19c-0.43,0.04-0.85,0.06-1.22,0.13
								c-0.37,0.07-0.69,0.17-0.94,0.3c-0.51,0.25-0.71,0.56-0.73,0.55c0,0,0.01-0.02,0.03-0.06c0.02-0.04,0.06-0.08,0.12-0.14
								c0.11-0.12,0.29-0.27,0.55-0.41c0.26-0.14,0.58-0.25,0.96-0.32c0.37-0.07,0.79-0.1,1.22-0.14c0.43-0.04,0.84-0.08,1.2-0.18
								c0.36-0.1,0.67-0.24,0.9-0.4c0.23-0.16,0.37-0.35,0.45-0.48C44.41,37.22,44.44,37.13,44.45,37.14z"/>
						</g>
					</g>
					<g>
						<g>
							<path class="st103" d="M36.41,37.14c0,0,0.02,0.01,0.04,0.02c0.03,0.01,0.08,0,0.13-0.03c0.05-0.03,0.1-0.08,0.17-0.15
								c0.07-0.06,0.14-0.13,0.22-0.21c0.33-0.31,0.79-0.74,1.36-1.15c0.57-0.41,1.15-0.67,1.59-0.79c0.22-0.06,0.4-0.09,0.53-0.1
								c0.13-0.01,0.2-0.01,0.2,0c0,0.02-0.28,0.03-0.71,0.17c-0.43,0.13-1,0.4-1.56,0.8c-0.56,0.4-1.02,0.82-1.37,1.12
								c-0.08,0.07-0.16,0.14-0.23,0.2c-0.07,0.06-0.13,0.11-0.19,0.14c-0.06,0.03-0.12,0.03-0.15,0.02
								C36.41,37.16,36.4,37.14,36.41,37.14z"/>
						</g>
					</g>
					<g>
						<g>
							<path class="st103" d="M36.34,32.2c0,0-0.04,0.07-0.13,0.18c-0.09,0.11-0.23,0.25-0.43,0.4c-0.2,0.15-0.47,0.29-0.8,0.37
								c-0.33,0.08-0.7,0.05-1.07-0.01c-0.37-0.06-0.72-0.13-1.05-0.13C32.54,33,32.24,33.03,32,33.07
								c-0.48,0.09-0.76,0.21-0.77,0.2c0-0.01,0.06-0.04,0.19-0.09c0.13-0.05,0.32-0.12,0.56-0.17c0.24-0.05,0.54-0.09,0.87-0.09
								c0.33,0,0.69,0.06,1.06,0.13c0.37,0.06,0.73,0.09,1.04,0.02c0.31-0.07,0.57-0.2,0.78-0.34
								C36.14,32.45,36.32,32.19,36.34,32.2z"/>
						</g>
					</g>
				</g>
				<g>
					<g>
						<path class="st87" d="M35.65,33.34c-1.32-0.36-2.3-0.75-3.64-0.81L17.38,34.4l-1.52,10.06c0,0,4.85,9.92,5.77,11.12
							c1.72,2.25-2.17,7.88-1.98,9.31h24.01c0,0-0.26-16.34-1.81-25.55c-0.27-1.62-1.2-3.29-2.43-4.17
							C38.31,34.36,36.92,33.68,35.65,33.34z"/>
					</g>
					<g>
						<g>
							<path class="st83" d="M31.85,63.61c0,0-0.03-0.02-0.08-0.07c-0.06-0.06-0.13-0.13-0.23-0.22c-0.19-0.19-0.48-0.46-0.83-0.8
								C30,61.86,29,60.96,27.84,60.04c-1.17-0.92-2.27-1.69-3.08-2.22c-0.41-0.27-0.74-0.48-0.97-0.62
								c-0.11-0.07-0.19-0.12-0.26-0.17c-0.06-0.04-0.09-0.06-0.09-0.06c0,0,0.04,0.01,0.1,0.05c0.07,0.04,0.16,0.09,0.27,0.15
								c0.24,0.13,0.57,0.34,0.99,0.6c0.82,0.52,1.94,1.28,3.11,2.2c1.17,0.92,2.16,1.83,2.86,2.51c0.35,0.34,0.62,0.62,0.81,0.82
								c0.09,0.09,0.16,0.17,0.21,0.23C31.83,63.58,31.85,63.61,31.85,63.61z"/>
						</g>
					</g>
					<g>
						<g>
							<path class="st83" d="M28.14,57.2c0.18,0.2,0.2,0.48,0.04,0.63c-0.16,0.15-0.44,0.1-0.62-0.1c-0.18-0.2-0.2-0.48-0.04-0.63
								C27.68,56.96,27.96,57,28.14,57.2z"/>
						</g>
					</g>
					<g>
						<g>
							<path class="st83" d="M24.31,60.83c0.04,0.13,0.01,0.27-0.1,0.39c-0.11,0.11-0.3,0.19-0.52,0.19c-0.22-0.01-0.4-0.1-0.5-0.23
								c-0.1-0.12-0.13-0.27-0.07-0.39c0.05-0.13,0.16-0.22,0.27-0.28c0.11-0.06,0.23-0.09,0.35-0.09c0.12,0,0.24,0.05,0.34,0.12
								C24.17,60.61,24.26,60.7,24.31,60.83z"/>
						</g>
					</g>
				</g>
				<g>
					<g>
						<path class="st83" d="M18.13,16.3c-0.5,0.65-1,1.32-1.31,2.08c-0.31,0.76-0.43,1.63-0.13,2.4c0.15,0.37,0.39,0.71,0.46,1.11
							c0.14,0.75-0.33,1.46-0.57,2.19c-0.35,1.09-0.14,2.34,0.55,3.25c0.58,0.76,1.44,1.25,2.33,1.57c1.66,0.59,3.74,0.5,4.88-0.84"
							/>
					</g>
					<g>
						<g>
							<g>
								<g>
									<path class="st83" d="M31.4,14.85c0.32,1.66,2.7,2.34,2.93,4.01c0.1,0.72-0.25,1.43-0.23,2.16c0.03,0.98,0.7,1.8,1.04,2.71
										c0.7,1.88-0.11,4.11-1.63,5.43c-1.52,1.32-3.59,1.85-5.61,1.88"/>
								</g>
							</g>
							<g>
								<g>
									<g>
										<path class="st83" d="M31.88,15.77c-0.1-0.82-0.95-1.33-1.75-1.51c-0.8-0.18-1.66-0.17-2.41-0.52
											c-0.66-0.31-1.16-0.88-1.74-1.31c-1.43-1.07-3.45-1.3-5.09-0.57c-1.64,0.73-2.82,2.37-2.99,4.16
											c-0.11,1.2,0.29,2.54,1.32,3.18c1.2,0.73,2.74,0.29,4.06-0.19c1.32-0.49,2.81-0.99,4.07-0.37c0.76,0.38,1.27,1.1,1.8,1.76
											c0.53,0.66,1.17,1.32,2,1.47c0.83,0.15,1.84-0.48,1.74-1.32"/>
									</g>
								</g>
								<g>
									<g>
										<g>
											<g>
												<g>
													<g>
														<g>
															<g>
																<g>
																	<g>
																		<g>
																			<g>
																				<g>
																					<g>
																						<g>
																							<path class="st81" d="M23.95,36.38c-0.3-1.87-0.58-3.68-0.58-3.68c0,0-3.04-0.05-4.24-3.83
																								c-0.6-1.88-0.97-5.05-1.2-7.66c-0.2-2.35,0.91-5.43,3.26-5.53l7.51,0.74c0.71-0.03,1.33,0.49,1.43,1.2l0,0
																								l2.01,17.64c0.26,2.24-1.33,4.27-3.56,4.56l0,0C26.35,40.12,24.3,38.59,23.95,36.38z"/>
																						</g>
																					</g>
																				</g>
																			</g>
																		</g>
																	</g>
																</g>
															</g>
															<g>
																<g>
																	<g>
																		<g>
																			<g>
																				<g>
																					<g>
																						<g>
																							<g>
																								<g>
																									<path class="st83" d="M20.92,23.11c-0.07-0.06-0.41,0.28-0.94,0.36c-0.53,0.09-0.97-0.13-1.02-0.06
																										c-0.02,0.03,0.06,0.14,0.25,0.24c0.19,0.1,0.49,0.18,0.82,0.12c0.33-0.05,0.59-0.22,0.74-0.37
																										C20.92,23.26,20.96,23.13,20.92,23.11z"/>
																								</g>
																							</g>
																						</g>
																					</g>
																				</g>
																			</g>
																		</g>
																	</g>
																</g>
															</g>
															<g>
																<g>
																	<g>
																		<g>
																			<g>
																				<g>
																					<g>
																						<g>
																							<g>
																								<g>
																									<path class="st83" d="M25.99,22.64c-0.07-0.05-0.39,0.3-0.92,0.42c-0.53,0.12-0.97-0.07-1.02,0.01
																										c-0.02,0.03,0.06,0.14,0.26,0.22c0.19,0.09,0.5,0.15,0.83,0.07c0.33-0.07,0.58-0.25,0.71-0.41
																										C26,22.79,26.03,22.66,25.99,22.64z"/>
																								</g>
																							</g>
																						</g>
																					</g>
																				</g>
																			</g>
																		</g>
																	</g>
																</g>
															</g>
															<g>
																<g>
																	<g>
																		<g>
																			<g>
																				<g>
																					<g>
																						<g>
																							<g>
																								<path class="st83" d="M22.78,26.32c0-0.03-0.34-0.04-0.89-0.03c-0.14,0.01-0.27,0-0.31-0.09
																									c-0.05-0.09-0.01-0.25,0.03-0.42c0.08-0.35,0.16-0.72,0.25-1.1c0.34-1.56,0.56-2.84,0.5-2.86
																									c-0.06-0.01-0.39,1.24-0.73,2.81c-0.08,0.39-0.16,0.75-0.23,1.1c-0.03,0.16-0.09,0.35,0.01,0.55
																									c0.05,0.1,0.16,0.16,0.25,0.17c0.09,0.01,0.17,0,0.24,0C22.45,26.4,22.79,26.35,22.78,26.32z"/>
																							</g>
																						</g>
																					</g>
																				</g>
																			</g>
																		</g>
																	</g>
																</g>
															</g>
															<g>
																<g>
																	<g>
																		<g>
																			<g>
																				<g>
																					<g>
																						<g>
																							<path class="st82" d="M23.37,32.7c0,0,2.63-0.22,4.98-2.16c-0.04,0.02-1.02,2.91-4.79,3.07L23.37,32.7z"/>
																						</g>
																					</g>
																				</g>
																			</g>
																		</g>
																	</g>
																</g>
															</g>
														</g>
													</g>
												</g>
												<g>
													<g>
														<g>
															<g>
																<g>
																	<g>
																		<g>
																			<g>
																				<path class="st83" d="M25.69,21.16c-0.1-0.12-0.58,0.14-1.2,0.29c-0.62,0.17-1.16,0.18-1.19,0.33
																					c-0.01,0.07,0.12,0.17,0.36,0.23c0.24,0.06,0.6,0.07,0.97-0.03c0.37-0.1,0.67-0.28,0.86-0.45
																					C25.67,21.37,25.74,21.22,25.69,21.16z"/>
																			</g>
																		</g>
																	</g>
																</g>
															</g>
														</g>
													</g>
												</g>
												<g>
													<g>
														<g>
															<g>
																<g>
																	<g>
																		<g>
																			<g>
																				<path class="st83" d="M20.87,22c-0.09-0.13-0.47-0.01-0.92-0.02c-0.45,0.01-0.82-0.11-0.92,0.01
																					c-0.04,0.06,0.02,0.19,0.18,0.31c0.16,0.12,0.43,0.23,0.74,0.23c0.28,0.03,0.49,0,0.74-0.22
																					C20.85,22.19,20.91,22.07,20.87,22z"/>
																			</g>
																		</g>
																	</g>
																</g>
															</g>
														</g>
													</g>
												</g>
											</g>
										</g>
									</g>
								</g>
								<g>
									<g>
										<path class="st83" d="M32.31,29.13c-1.03,0.38-1.21-0.15-2.12-0.77c-0.91-0.62-1.49-1.69-1.52-2.79
											c-0.02-0.97,0.34-2.02-0.13-2.87c-0.62-1.12-2.34-1.24-2.97-2.36c-0.36-0.65-0.25-1.49-0.65-2.13
											c-0.37-0.59-1.1-0.86-1.78-1c-0.69-0.14-1.41-0.19-2.02-0.53c-0.61-0.34-1.08-1.09-0.81-1.74
											c2.94-0.09,5.9,0.16,8.78,0.77c0.67,0.14,1.38,0.32,1.83,0.83c0.49,0.53,0.58,1.31,0.66,2.02
											c0.37,3.5,0.74,7.01,1.1,10.51"/>
									</g>
								</g>
							</g>
							<g>
								<g>
									<path class="st83" d="M33.54,20.86c-0.07-1.3,0.8-2.59,2.02-3.01c1.23-0.42,2.71,0.06,3.45,1.12
										c0.71,1.01,0.72,2.37,0.39,3.56c-0.4,1.41-1.44,2.8-2.89,2.96c-1.37,0.15-2.65-0.88-3.24-2.13
										c-0.59-1.25-0.65-2.67-0.69-4.05"/>
								</g>
							</g>
							<g>
								<g>
									<g>
										<path class="st84" d="M35.11,26.05c0.01,0,0.08-0.08,0.17-0.26c0.09-0.18,0.17-0.46,0.17-0.82c0-0.36-0.07-0.78-0.22-1.22
											c-0.15-0.44-0.37-0.9-0.56-1.39c-0.19-0.49-0.32-0.97-0.3-1.42c0.01-0.44,0.16-0.84,0.2-1.19
											c0.05-0.35-0.01-0.65-0.1-0.83c-0.09-0.18-0.19-0.25-0.19-0.24c-0.01,0.01,0.06,0.09,0.13,0.27
											c0.07,0.18,0.1,0.45,0.04,0.79c-0.05,0.34-0.21,0.73-0.24,1.21c-0.03,0.48,0.11,0.99,0.3,1.49
											c0.19,0.5,0.42,0.95,0.57,1.38c0.15,0.43,0.24,0.83,0.25,1.17C35.36,25.66,35.07,26.03,35.11,26.05z"/>
									</g>
								</g>
							</g>
							<g>
								<g>
									<g>
										<path class="st84" d="M34.46,21.39c-0.01,0.01,0.21,0.25,0.68,0.49c0.46,0.24,1.19,0.44,2,0.33
											c0.8-0.11,1.46-0.5,1.84-0.85c0.39-0.35,0.54-0.65,0.53-0.65c-0.02-0.02-0.21,0.24-0.61,0.56
											c-0.39,0.32-1.02,0.67-1.78,0.77c-0.76,0.1-1.46-0.07-1.92-0.27C34.72,21.57,34.47,21.36,34.46,21.39z"/>
									</g>
								</g>
							</g>
							<g>
								<g>
									<g>
										<path class="st84" d="M34.74,21.96c-0.02,0.01,0.12,0.25,0.42,0.56c0.3,0.31,0.79,0.68,1.41,0.94
											c0.62,0.25,1.23,0.33,1.66,0.32c0.43-0.01,0.7-0.08,0.69-0.1c0-0.03-0.27,0-0.69-0.02c-0.42-0.02-1-0.12-1.6-0.36
											c-0.59-0.25-1.07-0.59-1.39-0.87C34.93,22.15,34.76,21.95,34.74,21.96z"/>
									</g>
								</g>
							</g>
							<g>
								<g>
									<g>
										<path class="st84" d="M34.58,27.45c0,0,0.01-0.02,0.03-0.05c0.02-0.04,0.05-0.09,0.08-0.17c0.07-0.15,0.14-0.4,0.15-0.72
											c0.01-0.32-0.04-0.72-0.24-1.13c-0.19-0.41-0.56-0.83-1.09-1.07c-0.51-0.25-1.14-0.39-1.6-0.85
											c-0.23-0.22-0.36-0.54-0.35-0.88c0-0.34,0.1-0.69,0.18-1.06c0.19-0.74,0.06-1.61-0.4-2.3c-0.23-0.35-0.55-0.66-0.93-0.86
											c-0.39-0.21-0.83-0.28-1.26-0.31c-0.43-0.03-0.86-0.02-1.27-0.08c-0.4-0.06-0.8-0.17-1.11-0.41
											c-0.32-0.23-0.49-0.58-0.6-0.95c-0.11-0.37-0.2-0.75-0.35-1.1c-0.3-0.7-0.77-1.28-1.32-1.67
											c-0.56-0.39-1.19-0.57-1.77-0.57c-0.58,0-1.09,0.18-1.46,0.45c-0.37,0.27-0.61,0.6-0.75,0.88
											c-0.14,0.29-0.19,0.54-0.2,0.7c-0.02,0.17,0,0.25,0,0.25c0.03,0.01-0.03-0.37,0.26-0.93c0.15-0.27,0.38-0.58,0.75-0.83
											c0.36-0.25,0.85-0.42,1.41-0.41c0.55,0.01,1.16,0.18,1.69,0.56c0.53,0.38,0.98,0.94,1.26,1.62
											c0.15,0.34,0.23,0.7,0.34,1.08c0.11,0.38,0.3,0.78,0.66,1.03c0.34,0.26,0.77,0.38,1.19,0.44
											c0.43,0.06,0.85,0.05,1.28,0.08c0.42,0.03,0.84,0.1,1.2,0.29c0.36,0.19,0.65,0.47,0.87,0.8c0.44,0.66,0.57,1.47,0.39,2.18
											c-0.08,0.36-0.18,0.72-0.18,1.09c-0.01,0.37,0.15,0.74,0.4,0.98c0.51,0.49,1.16,0.61,1.65,0.86
											c0.51,0.23,0.86,0.61,1.05,1.01c0.2,0.39,0.26,0.78,0.26,1.09C34.77,27.14,34.55,27.45,34.58,27.45z"/>
									</g>
								</g>
							</g>
							<g>
								<g>
									<g>
										<path class="st84" d="M32.67,16.68c0,0,0.03-0.06,0.02-0.19c-0.01-0.12-0.05-0.31-0.21-0.49
											c-0.15-0.18-0.4-0.36-0.73-0.44c-0.34-0.07-0.73-0.01-1.12,0.13c-0.39,0.14-0.79,0.37-1.24,0.52
											c-0.44,0.16-0.98,0.25-1.43-0.01c-0.46-0.25-0.75-0.76-1.04-1.27c-0.29-0.52-0.67-1.03-1.14-1.46
											c-0.94-0.86-2.11-1.37-3.22-1.45c-0.55-0.03-1.09,0.06-1.54,0.28c-0.45,0.22-0.8,0.54-1.02,0.91
											c-0.22,0.36-0.3,0.76-0.27,1.09c0.02,0.34,0.13,0.61,0.25,0.81c0.12,0.2,0.26,0.33,0.36,0.4c0.1,0.07,0.16,0.1,0.16,0.09
											c0.02-0.02-0.24-0.13-0.46-0.53c-0.11-0.2-0.2-0.46-0.22-0.78c-0.02-0.32,0.06-0.69,0.28-1.02
											c0.21-0.34,0.55-0.64,0.98-0.84c0.43-0.2,0.94-0.28,1.47-0.25c1.06,0.08,2.2,0.58,3.11,1.42
											c0.46,0.42,0.82,0.91,1.11,1.42c0.3,0.5,0.59,1.04,1.11,1.32c0.25,0.14,0.54,0.19,0.81,0.17
											c0.27-0.01,0.52-0.09,0.75-0.17c0.46-0.17,0.85-0.4,1.23-0.54c0.38-0.15,0.75-0.21,1.06-0.15
											c0.31,0.06,0.55,0.22,0.7,0.39c0.15,0.17,0.21,0.34,0.22,0.45C32.68,16.61,32.66,16.68,32.67,16.68z"/>
									</g>
								</g>
							</g>
						</g>
						<g>
							<g>
								<path class="st84" d="M35.42,26.52c0,0-0.01,0.07-0.05,0.2c-0.04,0.13-0.11,0.3-0.23,0.51c-0.22,0.42-0.63,0.95-1.23,1.36
									c-0.6,0.41-1.26,0.58-1.73,0.63c-0.24,0.03-0.43,0.03-0.56,0.02c-0.13-0.01-0.2-0.02-0.2-0.03c0-0.02,0.29,0.01,0.76-0.05
									c0.46-0.06,1.09-0.24,1.68-0.64c0.59-0.4,1-0.92,1.23-1.32C35.32,26.8,35.4,26.52,35.42,26.52z"/>
							</g>
						</g>
					</g>
					<g>
						<g>
							<path class="st82" d="M26.81,29.62c0,0.01-0.08,0.02-0.24,0.02c-0.15,0-0.38-0.01-0.65-0.08c-0.27-0.06-0.58-0.18-0.89-0.37
								c-0.31-0.19-0.61-0.48-0.84-0.84c-0.22-0.36-0.33-0.77-0.36-1.13c-0.02-0.37,0.03-0.7,0.12-0.96
								c0.09-0.26,0.21-0.46,0.3-0.58c0.04-0.06,0.09-0.1,0.11-0.14c0.03-0.03,0.04-0.04,0.05-0.04c0.02,0.01-0.23,0.26-0.39,0.78
								c-0.08,0.26-0.12,0.58-0.1,0.93c0.03,0.35,0.14,0.74,0.35,1.09c0.22,0.35,0.51,0.62,0.81,0.81c0.3,0.19,0.6,0.31,0.86,0.38
								C26.46,29.63,26.81,29.6,26.81,29.62z"/>
						</g>
					</g>
					<g>
						<g>
							<path class="st82" d="M22.99,21.65c0,0.01-0.05,0.04-0.15,0.05c-0.1,0.01-0.24-0.01-0.36-0.1c-0.13-0.09-0.19-0.22-0.22-0.31
								c-0.02-0.09-0.01-0.16,0-0.16c0.03-0.01,0.06,0.23,0.27,0.38C22.75,21.67,22.99,21.62,22.99,21.65z"/>
						</g>
					</g>
					<g>
						<g>
							<path class="st82" d="M21.37,21.98c-0.02-0.02,0.07-0.17,0.09-0.38c0.02-0.21-0.04-0.38-0.01-0.39
								c0.02-0.02,0.14,0.16,0.11,0.4C21.53,21.85,21.39,22,21.37,21.98z"/>
						</g>
					</g>
					<g>
						<g>
							<path class="st82" d="M21.68,21.64c-0.02-0.01,0.03-0.15,0.03-0.32c0-0.17-0.06-0.3-0.03-0.32c0.02-0.02,0.13,0.12,0.13,0.32
								C21.81,21.52,21.7,21.65,21.68,21.64z"/>
						</g>
					</g>
				</g>
				<g>
					<g>
						<path class="st102" d="M24.2,32.73c0.52,0.32,1.19,0.22,1.76,0.01c1.16-0.41,2.17-1.17,3.28-1.71
							c1.11-0.53,2.46-0.83,3.56-0.27c0.24,0.12,0.48,0.31,0.52,0.57c0.03,0.21-0.07,0.42-0.13,0.62c-0.37,1.17,0.41,2.35,0.65,3.55
							c0.35,1.7-0.51,3.58-2.03,4.43c-0.87,0.49-1.89,0.64-2.89,0.64c-1.95-0.01-3.96-0.66-5.32-2.06
							c-0.31-0.31-0.58-0.67-0.73-1.08c-0.16-0.47-0.14-0.99-0.07-1.49c0.18-1.22,0.65-2.4,1.36-3.41"/>
					</g>
					<g>
						<g>
							<path class="st104" d="M33.21,38.68c-0.01,0,0.06-0.12,0.17-0.34c0.11-0.22,0.26-0.54,0.38-0.95
								c0.12-0.41,0.22-0.93,0.16-1.5c-0.03-0.28-0.11-0.57-0.22-0.86c-0.11-0.29-0.25-0.59-0.36-0.9c-0.23-0.64-0.27-1.3-0.16-1.87
								c0.05-0.28,0.11-0.56,0.04-0.79c-0.06-0.24-0.21-0.43-0.37-0.57c-0.33-0.28-0.68-0.37-0.92-0.41
								c-0.24-0.03-0.37-0.02-0.38-0.03c0,0,0.03-0.01,0.1-0.01c0.06-0.01,0.16-0.01,0.28,0.01c0.24,0.03,0.61,0.11,0.96,0.39
								c0.17,0.14,0.34,0.34,0.41,0.6c0.08,0.26,0.01,0.55-0.03,0.83c-0.09,0.56-0.06,1.21,0.17,1.83c0.11,0.31,0.25,0.61,0.36,0.9
								c0.11,0.29,0.19,0.6,0.22,0.89c0.06,0.58-0.05,1.11-0.18,1.53c-0.13,0.42-0.3,0.74-0.42,0.95c-0.06,0.11-0.11,0.19-0.15,0.24
								C33.24,38.66,33.22,38.69,33.21,38.68z"/>
						</g>
					</g>
					<g>
						<g>
							<path class="st88" d="M32.2,32.84c0,0.01-0.08,0.08-0.23,0.21c-0.15,0.13-0.38,0.3-0.67,0.51c-0.58,0.41-1.42,0.93-2.42,1.37
								c-1,0.44-1.94,0.72-2.64,0.88c-0.35,0.07-0.64,0.09-0.84,0.07c-0.1-0.01-0.18-0.02-0.23-0.03c-0.05-0.01-0.08-0.02-0.08-0.02
								c0-0.01,0.11,0.01,0.31,0.01c0.2,0,0.48-0.02,0.83-0.1c0.69-0.17,1.63-0.46,2.62-0.9c0.99-0.44,1.83-0.94,2.42-1.34
								c0.29-0.2,0.53-0.37,0.69-0.48C32.11,32.9,32.2,32.84,32.2,32.84z"/>
						</g>
					</g>
					<g>
						<g>
							<path class="st88" d="M30.29,35.71c0,0.01-0.06,0.04-0.17,0.1c-0.11,0.06-0.28,0.13-0.5,0.22c-0.43,0.17-1.04,0.35-1.73,0.44
								c-0.7,0.09-1.33,0.08-1.79,0.04c-0.23-0.02-0.41-0.05-0.54-0.07c-0.13-0.02-0.19-0.04-0.19-0.05c0-0.02,0.28,0.03,0.74,0.05
								c0.45,0.03,1.08,0.03,1.77-0.07c0.69-0.09,1.29-0.26,1.72-0.41C30.02,35.82,30.28,35.7,30.29,35.71z"/>
						</g>
					</g>
					<g>
						<g>
							<path class="st103" d="M27.22,40.42c-0.01,0-0.04-0.04-0.11-0.12c-0.07-0.08-0.16-0.21-0.25-0.37
								c-0.1-0.16-0.19-0.37-0.27-0.61c-0.08-0.24-0.14-0.51-0.16-0.8c-0.02-0.29-0.01-0.57,0.02-0.82
								c0.04-0.25,0.09-0.47,0.16-0.65c0.06-0.18,0.13-0.32,0.18-0.41c0.05-0.09,0.08-0.14,0.09-0.14c0.02,0.01-0.1,0.21-0.2,0.57
								c-0.06,0.18-0.1,0.39-0.13,0.64c-0.03,0.24-0.04,0.51-0.01,0.8c0.03,0.28,0.08,0.55,0.15,0.78c0.07,0.23,0.16,0.44,0.24,0.6
								C27.08,40.23,27.23,40.41,27.22,40.42z"/>
						</g>
					</g>
					<g>
						<g>
							<path class="st103" d="M27.82,35.27c0.02-0.01,0.17,0.25,0.16,0.6c-0.01,0.36-0.18,0.61-0.2,0.59
								c-0.03-0.01,0.09-0.26,0.1-0.59C27.89,35.54,27.79,35.29,27.82,35.27z"/>
						</g>
					</g>
					<g>
						<g>
							<path class="st103" d="M25.86,32.83c0.01,0.01-0.11,0.13-0.19,0.4c-0.08,0.26-0.11,0.64-0.11,1.06
								c0.02,0.84,0.31,1.48,0.28,1.49c-0.01,0-0.1-0.15-0.19-0.41c-0.09-0.26-0.18-0.65-0.19-1.07c-0.01-0.43,0.04-0.82,0.14-1.08
								C25.7,32.94,25.85,32.82,25.86,32.83z"/>
						</g>
					</g>
					<g>
						<g>
							<path class="st103" d="M30.04,34.29c-0.01,0.01-0.14-0.13-0.31-0.38c-0.17-0.25-0.35-0.64-0.46-1.09
								c-0.11-0.45-0.11-0.88-0.08-1.18c0.03-0.3,0.09-0.48,0.1-0.48c0.03,0-0.15,0.74,0.07,1.63
								C29.58,33.69,30.07,34.27,30.04,34.29z"/>
						</g>
					</g>
					<g>
						<g>
							<path class="st103" d="M30.73,35.63c-0.03-0.01,0.09-0.39,0.08-0.88c-0.01-0.49-0.15-0.86-0.12-0.87
								c0.02-0.01,0.21,0.36,0.22,0.87C30.93,35.26,30.76,35.64,30.73,35.63z"/>
						</g>
					</g>
					<g>
						<g>
							<path class="st103" d="M31.4,39.76c0,0.01-0.06-0.02-0.15-0.08c-0.09-0.06-0.22-0.15-0.37-0.28
								c-0.29-0.26-0.64-0.69-0.83-1.26c-0.19-0.57-0.18-1.13-0.1-1.51c0.04-0.19,0.09-0.34,0.13-0.44c0.04-0.1,0.07-0.15,0.07-0.15
								c0.02,0.01-0.08,0.23-0.13,0.61c-0.06,0.37-0.06,0.91,0.13,1.46c0.19,0.55,0.51,0.98,0.79,1.24
								C31.2,39.62,31.4,39.74,31.4,39.76z"/>
						</g>
					</g>
					<g>
						<g>
							<path class="st103" d="M32.57,32.83c0.02,0-0.14,0.34-0.02,0.89c0.05,0.27,0.18,0.58,0.34,0.92
								c0.16,0.34,0.33,0.72,0.42,1.15c0.18,0.86,0.05,1.67-0.15,2.2c-0.1,0.27-0.2,0.47-0.28,0.61c-0.08,0.14-0.13,0.21-0.14,0.2
								c-0.02-0.01,0.18-0.3,0.36-0.84c0.17-0.53,0.29-1.32,0.11-2.16c-0.08-0.42-0.25-0.79-0.4-1.13
								c-0.15-0.34-0.28-0.66-0.32-0.94c-0.05-0.28-0.03-0.52,0-0.67c0.02-0.08,0.04-0.14,0.05-0.18
								C32.56,32.85,32.57,32.83,32.57,32.83z"/>
						</g>
					</g>
					<g>
						<g>
							<path class="st103" d="M23.9,38.78c-0.01,0-0.04-0.08-0.1-0.22c-0.03-0.07-0.06-0.16-0.09-0.27
								c-0.03-0.11-0.07-0.22-0.1-0.36c-0.07-0.27-0.13-0.6-0.17-0.96c-0.03-0.37-0.04-0.77-0.01-1.2c0.04-0.42,0.11-0.82,0.2-1.18
								c0.1-0.35,0.21-0.67,0.32-0.92c0.05-0.13,0.11-0.24,0.16-0.34c0.05-0.1,0.1-0.18,0.14-0.25c0.08-0.13,0.13-0.2,0.13-0.2
								c0.02,0.01-0.16,0.3-0.37,0.81c-0.1,0.25-0.21,0.57-0.3,0.92c-0.09,0.35-0.16,0.75-0.19,1.16c-0.03,0.42-0.03,0.82,0,1.18
								c0.03,0.36,0.08,0.69,0.15,0.95C23.79,38.45,23.92,38.77,23.9,38.78z"/>
						</g>
					</g>
				</g>
				<g>
					<g>
						<g>
							<path class="st81" d="M33.59,50.65c0,0-0.09-1.93-0.67-2.79c-0.57-0.86-3.7-4.65-3.7-4.65s-0.5-0.26-0.92,0.11
								c-0.42,0.38,0.02,1.04,0.4,1.75c0.38,0.71,0.87,1.51,0.87,1.51s-5.24-5.79-5.86-5.53c-0.62,0.26-0.51,0.57-0.29,0.86
								c0.22,0.3,2,2.52,2,2.52s-2.65-3.38-3.35-3c-0.71,0.38-0.28,0.61-0.05,1.08c0.24,0.47,1.82,2.49,1.82,2.49
								s-1.85-2.16-2.3-1.74c-0.45,0.42-0.29,0.57,0.14,1.17c0.43,0.59,1.41,1.89,1.41,1.89s-0.92-0.41-1.16-0.02
								c-0.24,0.39-0.01,0.62,0.54,1.05c0.56,0.43,2.89,2.2,3.79,3.13c0.91,0.93,3.04,3.04,3.04,3.04l4.82-1.84L33.59,50.65z"/>
							<path class="st82" d="M29.31,53.53L29.31,53.53c-0.02-0.02-2.15-2.12-3.05-3.04c-0.79-0.81-2.69-2.28-3.5-2.9
								c-0.12-0.1-0.22-0.17-0.29-0.23c-0.56-0.44-0.78-0.67-0.54-1.06c0.1-0.16,0.33-0.21,0.68-0.14c0.22,0.05,0.42,0.13,0.48,0.15
								c-0.11-0.14-1-1.32-1.4-1.87c-0.02-0.03-0.05-0.07-0.07-0.1c-0.37-0.51-0.5-0.68-0.07-1.08c0.04-0.04,0.09-0.05,0.15-0.05
								c0.01,0,0.01,0,0.02,0c0.26,0.02,0.7,0.32,1.31,0.91c0.31,0.3,0.58,0.6,0.72,0.76c-0.35-0.45-1.52-1.96-1.72-2.36
								c-0.05-0.1-0.11-0.2-0.17-0.28c-0.11-0.17-0.2-0.31-0.17-0.45c0.03-0.12,0.15-0.23,0.39-0.36c0.16-0.09,0.44,0.02,0.83,0.31
								c0.31,0.23,0.68,0.59,1.12,1.05c0.32,0.34,0.63,0.7,0.88,0.99c-0.55-0.68-1.34-1.67-1.47-1.86c-0.1-0.14-0.21-0.32-0.16-0.49
								c0.04-0.15,0.19-0.27,0.45-0.38c0.01-0.01,0.03-0.01,0.05-0.01c0.32,0,1.37,0.9,3.12,2.68c1.25,1.27,2.45,2.59,2.67,2.82
								c-0.11-0.18-0.52-0.86-0.84-1.47c-0.04-0.08-0.09-0.16-0.13-0.24c-0.17-0.31-0.33-0.6-0.4-0.86
								c-0.08-0.29-0.04-0.5,0.13-0.65c0.42-0.37,0.92-0.12,0.93-0.11l0,0c0.03,0.04,3.13,3.79,3.7,4.65
								c0.56,0.85,0.67,2.74,0.67,2.79l0.53,1.03l0,0L29.31,53.53z M22.32,46.14c-0.16,0-0.31,0.04-0.39,0.16
								c-0.12,0.19-0.12,0.34-0.03,0.5c0.09,0.15,0.28,0.32,0.57,0.54c0.07,0.06,0.17,0.13,0.29,0.23c0.81,0.63,2.71,2.09,3.5,2.9
								c0.88,0.91,2.96,2.96,3.04,3.04l4.81-1.84l-0.53-1.03c0-0.02-0.1-1.94-0.67-2.79c-0.56-0.85-3.64-4.57-3.7-4.65
								c-0.02-0.01-0.51-0.25-0.91,0.11c-0.17,0.15-0.21,0.36-0.13,0.64c0.07,0.26,0.23,0.55,0.4,0.86
								c0.04,0.08,0.09,0.16,0.13,0.24c0.37,0.7,0.86,1.5,0.87,1.51l-0.01,0.01c-0.05-0.06-5.03-5.54-5.81-5.54
								c-0.02,0-0.03,0-0.05,0.01c-0.26,0.11-0.41,0.23-0.45,0.37c-0.05,0.17,0.06,0.35,0.16,0.48c0.17,0.24,1.38,1.74,1.83,2.31
								c0.11,0.13,0.17,0.21,0.17,0.21l0,0l0,0l0,0l-0.01,0.01c0,0-0.07-0.08-0.17-0.21c-0.25-0.3-0.72-0.88-1.24-1.43
								c-0.61-0.65-1.4-1.39-1.81-1.39c-0.05,0-0.09,0.01-0.12,0.03c-0.23,0.12-0.35,0.23-0.38,0.35c-0.04,0.14,0.05,0.27,0.17,0.44
								c0.05,0.08,0.12,0.18,0.17,0.28c0.24,0.47,1.8,2.47,1.82,2.49l-0.01,0.01c-0.02-0.02-1.52-1.76-2.13-1.8
								c-0.07,0-0.12,0.01-0.17,0.05c-0.42,0.39-0.31,0.55,0.07,1.06c0.02,0.03,0.05,0.06,0.07,0.1c0.43,0.59,1.4,1.88,1.41,1.89
								l0.01,0.01l-0.02-0.01C23.08,46.32,22.66,46.14,22.32,46.14z"/>
						</g>
						<g>
							<g>
								<path class="st82" d="M26.77,46.43c-0.01,0.01-0.12-0.18-0.29-0.47c-0.18-0.29-0.44-0.69-0.76-1.1
									c-0.32-0.41-0.66-0.75-0.87-1.02c-0.22-0.27-0.33-0.45-0.32-0.46c0.01-0.01,0.14,0.16,0.37,0.42c0.23,0.25,0.57,0.59,0.9,1
									c0.33,0.41,0.58,0.82,0.75,1.12C26.7,46.23,26.78,46.43,26.77,46.43z"/>
							</g>
						</g>
						<g>
							<g>
								<path class="st82" d="M25.51,47.09c-0.01,0.01-0.12-0.14-0.29-0.37c-0.17-0.23-0.41-0.55-0.69-0.89
									c-0.28-0.34-0.55-0.64-0.74-0.85c-0.19-0.21-0.32-0.35-0.31-0.36c0.01-0.01,0.15,0.11,0.36,0.31
									c0.21,0.2,0.48,0.5,0.77,0.84c0.28,0.34,0.51,0.67,0.67,0.92C25.43,46.93,25.52,47.09,25.51,47.09z"/>
							</g>
						</g>
						<g>
							<g>
								<path class="st82" d="M24.81,48.14c-0.02,0.02-0.42-0.37-0.89-0.88c-0.23-0.26-0.44-0.49-0.59-0.66
									c-0.15-0.17-0.24-0.27-0.24-0.28c0.03-0.03,0.44,0.36,0.9,0.87C24.46,47.71,24.82,48.13,24.81,48.14z"/>
							</g>
						</g>
					</g>
					<g class="st89">
						<path class="st105" d="M28.3,54.39c0,0,3.79,9.41,6.44,11.26c2.65,1.84,5.95,1.28,7.72-0.37c0,0-2.39,2.16-4.99,0.18
							C34.88,63.49,28.3,54.39,28.3,54.39z"/>
					</g>
					<g class="st106">
						<g>
							<path class="st105" d="M34.78,43.67c-0.22,1.87,0.29,3.57,0.14,5.44c-0.06,0.72-0.15,1.44,0,2.15
								c0.28,1.32,1.56,2.63,2.59,3.51C36.78,51.13,35.85,47.21,34.78,43.67"/>
						</g>
					</g>
					<g>
						<g>
							<path class="st83" d="M31.33,60.18c-0.2,0.18-0.49,0.19-0.64,0.03c-0.15-0.17-0.11-0.45,0.1-0.63
								c0.2-0.18,0.49-0.19,0.64-0.03C31.57,59.71,31.53,60,31.33,60.18z"/>
						</g>
					</g>
					<g>
						<g>
							<g>
								<path class="st87" d="M39.63,35.33c-0.31-0.3-0.79-0.51-1.35-0.59c-2.36-0.35-5.07,1.14-4.35,5.13l1.97,8.3l1.6,6.6
									L34,51.51l-6.1,2.33c0,0,6.77,9.28,8.95,11.13c2.18,1.85,3.71,1.47,5.61,0.31c0,0,2.33-1.06,2.32-7.75
									C44.76,51.76,43.5,39.1,39.63,35.33z"/>
							</g>
							<g>
								<g>
									<path class="st88" d="M43.82,63.5c0,0-0.01,0.04-0.05,0.11c-0.03,0.07-0.08,0.18-0.14,0.31c-0.14,0.27-0.37,0.66-0.77,1.08
										c-0.4,0.42-0.98,0.86-1.76,1.14c-0.39,0.13-0.83,0.24-1.3,0.23c-0.47,0-0.96-0.12-1.43-0.34c-0.95-0.44-1.82-1.2-2.63-2.11
										c-0.82-0.9-1.64-1.91-2.5-2.97c-1.71-2.14-3.52-4.53-5.39-7.08l-0.04-0.05l0.06-0.02c0.09-0.03,0.19-0.07,0.29-0.11
										c2.02-0.77,3.97-1.52,5.81-2.22l0.03-0.01l0.02,0.02c1.24,1.15,2.41,2.24,3.51,3.25l-0.07,0.04
										c-0.42-1.76-0.81-3.38-1.16-4.82c-0.35-1.43-0.66-2.69-0.91-3.72c-0.25-1.03-0.45-1.84-0.59-2.4
										c-0.07-0.28-0.12-0.49-0.15-0.63c-0.02-0.07-0.03-0.12-0.04-0.16c-0.01-0.04-0.01-0.06-0.01-0.06c0,0,0.01,0.02,0.02,0.05
										c0.01,0.04,0.03,0.09,0.04,0.16c0.04,0.15,0.09,0.36,0.16,0.63c0.14,0.56,0.35,1.37,0.61,2.4
										c0.26,1.03,0.58,2.28,0.93,3.72c0.35,1.44,0.74,3.05,1.17,4.82l0.03,0.14l-0.11-0.1c-1.09-1.01-2.27-2.1-3.51-3.24
										l0.05,0.01c-1.84,0.7-3.79,1.45-5.81,2.22c-0.1,0.04-0.2,0.07-0.29,0.11l0.02-0.07c1.87,2.55,3.69,4.94,5.39,7.08
										c0.85,1.07,1.67,2.07,2.49,2.97c0.8,0.91,1.66,1.66,2.6,2.1c0.46,0.22,0.95,0.34,1.41,0.34c0.46,0.01,0.89-0.09,1.28-0.22
										c0.77-0.27,1.35-0.7,1.75-1.11c0.4-0.41,0.63-0.8,0.78-1.06c0.07-0.13,0.12-0.24,0.15-0.31
										C43.8,63.53,43.82,63.5,43.82,63.5z"/>
								</g>
							</g>
						</g>
						<g>
							<g>
								<path class="st88" d="M38.36,35.63c0,0.02-0.34,0.02-0.87,0.13c-0.26,0.06-0.58,0.14-0.91,0.27c-0.33,0.13-0.69,0.3-1,0.56
									c-0.31,0.26-0.53,0.59-0.68,0.91c-0.15,0.32-0.24,0.63-0.31,0.89c-0.07,0.26-0.11,0.48-0.15,0.63
									c-0.03,0.15-0.05,0.23-0.06,0.23c-0.01,0,0-0.09,0.02-0.24c0.02-0.15,0.06-0.37,0.12-0.63c0.06-0.27,0.15-0.58,0.3-0.91
									c0.15-0.33,0.37-0.68,0.7-0.95c0.33-0.27,0.7-0.44,1.03-0.57c0.34-0.13,0.66-0.21,0.93-0.25c0.27-0.05,0.49-0.06,0.64-0.07
									C38.27,35.62,38.36,35.63,38.36,35.63z"/>
							</g>
						</g>
						<g>
							<g>
								<path class="st88" d="M42.35,56.74c-0.02,0.01-0.09-0.33-0.41-0.76c-0.31-0.43-0.9-0.91-1.67-1.16
									c-0.78-0.24-1.53-0.23-2.06-0.2c-0.27,0.02-0.48,0.04-0.63,0.06c-0.15,0.02-0.23,0.03-0.23,0.02c0-0.01,0.08-0.03,0.23-0.06
									c0.15-0.03,0.36-0.06,0.63-0.09c0.53-0.05,1.3-0.08,2.09,0.17c0.8,0.25,1.4,0.76,1.7,1.21c0.15,0.22,0.25,0.43,0.29,0.57
									C42.34,56.66,42.35,56.74,42.35,56.74z"/>
							</g>
						</g>
						<g>
							<g>
								<path class="st88" d="M39.43,57.51c-0.02,0-0.07-0.19-0.2-0.48c-0.13-0.29-0.34-0.69-0.64-1.07
									c-0.3-0.39-0.64-0.68-0.89-0.88c-0.26-0.2-0.43-0.3-0.42-0.31c0-0.01,0.19,0.07,0.46,0.26c0.27,0.18,0.62,0.48,0.93,0.88
									c0.31,0.39,0.52,0.8,0.63,1.11C39.41,57.31,39.44,57.51,39.43,57.51z"/>
							</g>
						</g>
						<g>
							<g>
								<path class="st83" d="M40.86,58.14c-0.27-0.03-0.47-0.25-0.44-0.49c0.03-0.24,0.27-0.4,0.54-0.37
									c0.27,0.03,0.47,0.25,0.44,0.49C41.37,58,41.13,58.17,40.86,58.14z"/>
							</g>
						</g>
						<g>
							<g>
								<path class="st83" d="M39.23,60.69c-0.21,0.17-0.53,0.13-0.71-0.09c-0.18-0.22-0.16-0.54,0.05-0.71
									c0.21-0.17,0.53-0.13,0.71,0.09C39.46,60.2,39.44,60.52,39.23,60.69z"/>
							</g>
						</g>
						<g>
							<g>
								<path class="st83" d="M35.26,59.5c-0.01,0.14-0.07,0.26-0.19,0.33c-0.11,0.08-0.28,0.1-0.44,0.05
									c-0.16-0.05-0.28-0.17-0.33-0.3c-0.05-0.13-0.03-0.27,0.05-0.38c0.08-0.11,0.19-0.18,0.29-0.23
									c0.11-0.04,0.21-0.06,0.3-0.02c0.09,0.03,0.16,0.1,0.22,0.2C35.22,59.24,35.27,59.36,35.26,59.5z"/>
							</g>
						</g>
					</g>
				</g>
				<g>
					<g>
						<g>
							<path class="st87" d="M18.85,33.03c0,0-5.51,0.3-6.13,5.8c-0.4,3.57-3.66,17.61-2.1,19.45c1.61,1.89,5.08,4.09,7.47,0.67
								c2.39-3.43,4.74-16.42,4.74-16.42l-5.31-2.73L18.85,33.03z"/>
						</g>
						<g>
							<g>
								<g>
									<path class="st81" d="M18.74,36.68c0,0-1.56-2.3-1.58-2.77c-0.03-0.47,0.03-1.46,0.17-1.48c0,0-0.15-0.38,0.03-0.58
										c0.17-0.2,0.55-0.55,0.55-0.55s-0.12-0.58,0.12-0.73c0.23-0.15,1.78-1.46,1.78-1.46s0.64-1.31,0.99-1.34
										c0.35-0.03,0.96-0.06,1.19,0.12c0.23,0.17,1.22,1.02,1.22,1.02s0.32,0,0.47,0c0.15,0,0.61,0.88,0.61,0.88
										s0.49,0.06,0.61,0.32c0.12,0.26-0.23,3.52-0.23,3.52l-1.16,3.7l-0.95,5.12l-4.78-2.57L18.74,36.68z"/>
								</g>
								<g>
									<g>
										<path class="st82" d="M18.74,36.68c0,0,0,0.02-0.01,0.05c-0.01,0.04-0.03,0.09-0.04,0.16c-0.04,0.15-0.1,0.35-0.18,0.62
											c-0.16,0.55-0.4,1.35-0.7,2.36l-0.01-0.03c1.25,0.67,2.89,1.54,4.79,2.56l-0.06,0.03c0.29-1.55,0.6-3.28,0.94-5.12l0,0
											l0,0c0.37-1.18,0.76-2.42,1.16-3.7l0,0.01c0.03-0.26,0.05-0.54,0.08-0.81c0.06-0.58,0.11-1.16,0.15-1.73
											c0.02-0.28,0.04-0.57,0.02-0.85c0.01-0.13-0.09-0.22-0.2-0.28c-0.12-0.06-0.25-0.1-0.38-0.12l-0.03,0l-0.01-0.02
											c-0.12-0.23-0.25-0.45-0.4-0.66c-0.04-0.05-0.07-0.1-0.12-0.14c-0.01-0.01-0.02-0.02-0.03-0.03
											c-0.01-0.01-0.02-0.01-0.02-0.01c-0.01-0.01-0.06,0-0.09,0c-0.13,0-0.25,0-0.38,0H23.2l-0.01-0.01
											c-0.31-0.26-0.61-0.51-0.91-0.76l-0.22-0.19c-0.08-0.07-0.14-0.12-0.23-0.14c-0.17-0.05-0.36-0.06-0.55-0.06
											c-0.09,0-0.19,0-0.28,0.01c-0.09,0.01-0.2,0-0.26,0.03c-0.14,0.08-0.26,0.24-0.36,0.38c-0.2,0.29-0.38,0.6-0.53,0.91
											l0,0.01l-0.01,0.01c-0.42,0.36-0.83,0.7-1.23,1.03c-0.2,0.16-0.4,0.32-0.59,0.46c-0.07,0.08-0.09,0.2-0.09,0.32
											c0,0.12,0.01,0.23,0.03,0.34l0,0.02l-0.01,0.01c-0.18,0.17-0.35,0.33-0.51,0.5c-0.17,0.15-0.13,0.41-0.07,0.6l0.01,0.04
											l-0.04,0c-0.01,0-0.04,0.05-0.05,0.09c-0.01,0.04-0.02,0.08-0.03,0.13c-0.02,0.09-0.03,0.17-0.04,0.26
											c-0.02,0.17-0.03,0.34-0.04,0.51c0,0.16-0.01,0.33,0.01,0.48c0.02,0.14,0.1,0.28,0.15,0.41c0.26,0.52,0.52,0.94,0.73,1.29
											c0.21,0.34,0.38,0.6,0.5,0.79c0.06,0.09,0.1,0.15,0.13,0.2C18.73,36.65,18.74,36.68,18.74,36.68c0,0-0.02-0.02-0.05-0.07
											c-0.03-0.05-0.08-0.11-0.14-0.2c-0.12-0.18-0.29-0.44-0.51-0.78c-0.22-0.34-0.48-0.76-0.75-1.28
											c-0.06-0.13-0.13-0.26-0.16-0.43c-0.01-0.16-0.01-0.32-0.01-0.49c0-0.17,0.01-0.34,0.03-0.51
											c0.01-0.09,0.02-0.18,0.04-0.27c0.01-0.05,0.02-0.09,0.03-0.14c0.01-0.02,0.02-0.05,0.03-0.07
											c0.01-0.02,0.03-0.05,0.07-0.06l-0.02,0.04c-0.04-0.11-0.06-0.22-0.06-0.34c0-0.06,0.01-0.12,0.03-0.18
											c0.02-0.06,0.07-0.11,0.1-0.15c0.16-0.17,0.33-0.34,0.51-0.51l-0.01,0.03c-0.02-0.12-0.03-0.24-0.03-0.36
											c0.01-0.12,0.02-0.26,0.11-0.37c0.21-0.15,0.39-0.3,0.59-0.47c0.39-0.33,0.8-0.67,1.23-1.03l-0.01,0.01
											c0.16-0.31,0.33-0.62,0.54-0.93c0.11-0.15,0.22-0.3,0.39-0.41c0.11-0.05,0.2-0.03,0.29-0.05
											c0.09-0.01,0.19-0.01,0.28-0.01c0.19,0,0.38,0.01,0.58,0.07c0.05,0.02,0.1,0.03,0.14,0.06c0.05,0.03,0.08,0.06,0.12,0.09
											l0.22,0.19c0.3,0.25,0.6,0.5,0.91,0.76l-0.03-0.01c0.13,0,0.25,0,0.38,0c0.04,0,0.06,0,0.1,0
											c0.03,0.01,0.05,0.02,0.06,0.03c0.02,0.01,0.03,0.02,0.04,0.04c0.05,0.05,0.09,0.1,0.13,0.16
											c0.15,0.21,0.28,0.44,0.41,0.67l-0.04-0.03c0.14,0.02,0.28,0.06,0.42,0.13c0.07,0.03,0.13,0.08,0.18,0.14
											c0.05,0.06,0.08,0.15,0.08,0.22c0.01,0.29-0.01,0.57-0.02,0.86c-0.04,0.57-0.09,1.15-0.15,1.74
											c-0.03,0.28-0.06,0.56-0.08,0.82l0,0l0,0c-0.4,1.28-0.79,2.52-1.17,3.7l0-0.01c-0.34,1.84-0.67,3.57-0.96,5.12l-0.01,0.06
											l-0.05-0.03c-1.89-1.02-3.52-1.91-4.77-2.58l-0.02-0.01l0.01-0.02c0.31-1,0.56-1.8,0.73-2.34
											c0.08-0.27,0.15-0.48,0.2-0.62c0.02-0.07,0.04-0.12,0.05-0.16C18.73,36.7,18.74,36.68,18.74,36.68z"/>
									</g>
								</g>
							</g>
							<g>
								<g>
									<path class="st82" d="M23.98,31.32c0.01,0.01-0.19,0.07-0.44-0.09c-0.12-0.08-0.24-0.2-0.35-0.35
										c-0.1-0.15-0.23-0.31-0.32-0.52c-0.08-0.21-0.07-0.43-0.06-0.61c0.01-0.18,0.02-0.36,0.08-0.49
										c0.06-0.14,0.14-0.22,0.21-0.27c0.07-0.04,0.11-0.05,0.12-0.05c0.01,0.01-0.17,0.08-0.26,0.34
										c-0.04,0.13-0.06,0.29-0.06,0.47c0,0.18-0.01,0.38,0.06,0.57c0.07,0.19,0.2,0.35,0.3,0.5c0.1,0.15,0.21,0.27,0.32,0.35
										C23.79,31.33,23.98,31.3,23.98,31.32z"/>
								</g>
							</g>
							<g>
								<g>
									<path class="st82" d="M24.45,33.24c0,0.01-0.15-0.01-0.38-0.09c-0.11-0.04-0.25-0.1-0.38-0.2
										c-0.13-0.09-0.26-0.23-0.34-0.4c-0.17-0.34-0.16-0.7-0.12-0.93c0.04-0.24,0.09-0.38,0.1-0.37c0.01,0-0.02,0.15-0.04,0.38
										c-0.02,0.23-0.02,0.57,0.14,0.88c0.16,0.32,0.45,0.48,0.66,0.58C24.31,33.18,24.46,33.22,24.45,33.24z"/>
								</g>
							</g>
							<g>
								<g>
									<path class="st82" d="M22.99,36.35c-0.03,0.01-0.27-0.54-0.75-1.1c-0.48-0.57-0.99-0.89-0.97-0.92
										c0.01-0.01,0.14,0.06,0.34,0.2c0.2,0.14,0.46,0.37,0.7,0.65c0.24,0.29,0.42,0.58,0.53,0.8C22.95,36.2,23,36.34,22.99,36.35
										z"/>
								</g>
							</g>
							<g>
								<g>
									<path class="st82" d="M23.25,35.88c-0.02,0-0.03-0.14-0.13-0.34c-0.09-0.2-0.27-0.45-0.54-0.66
										c-0.26-0.21-0.54-0.35-0.74-0.46c-0.2-0.1-0.32-0.17-0.32-0.18c0.01-0.01,0.14,0.03,0.35,0.12
										c0.21,0.09,0.49,0.22,0.77,0.44c0.27,0.22,0.46,0.49,0.54,0.71C23.27,35.73,23.26,35.88,23.25,35.88z"/>
								</g>
							</g>
							<g>
								<g>
									<path class="st82" d="M22.55,37.38c0.01,0.01-0.04,0.11-0.18,0.24c-0.14,0.13-0.37,0.27-0.66,0.32
										c-0.29,0.05-0.56-0.01-0.73-0.09c-0.17-0.08-0.26-0.16-0.25-0.17c0.01-0.01,0.11,0.05,0.28,0.11
										c0.17,0.06,0.42,0.11,0.69,0.06c0.27-0.04,0.49-0.17,0.63-0.28C22.47,37.46,22.54,37.37,22.55,37.38z"/>
								</g>
							</g>
							<g>
								<g>
									<path class="st81" d="M19.66,29.24c0.25-0.16,0.46-0.34,0.73-0.46c0.11-0.05,0.23-0.09,0.35-0.09
										c0.14-0.01,0.28,0.04,0.41,0.1c0.6,0.25,1.15,0.63,1.61,1.1c0.15,0.15,0.29,0.32,0.35,0.52c0.05,0.15,0.04,0.32,0.04,0.48
										c-0.01,0.37-0.01,0.75-0.02,1.12c0,0.13-0.01,0.27-0.06,0.39c-0.13,0.29-0.58,0.37-0.8,0.13"/>
								</g>
								<g>
									<g>
										<path class="st82" d="M22.27,32.53c0.01-0.01,0.07,0.08,0.25,0.11c0.09,0.01,0.2,0.01,0.31-0.05
											c0.11-0.05,0.22-0.16,0.24-0.31c0.03-0.15,0.02-0.33,0.02-0.52c0-0.19,0-0.4,0.01-0.61c0-0.21,0.02-0.44-0.02-0.66
											c-0.04-0.22-0.2-0.41-0.37-0.58c-0.34-0.35-0.72-0.63-1.1-0.84c-0.19-0.11-0.37-0.19-0.54-0.26
											c-0.17-0.07-0.34-0.1-0.49-0.05c-0.31,0.09-0.52,0.25-0.67,0.34c-0.15,0.1-0.24,0.15-0.24,0.15
											c0-0.01,0.08-0.07,0.22-0.18c0.14-0.11,0.36-0.28,0.68-0.38c0.08-0.03,0.17-0.04,0.27-0.03c0.09,0.01,0.19,0.04,0.28,0.07
											c0.18,0.07,0.37,0.16,0.56,0.26c0.38,0.21,0.77,0.49,1.12,0.85c0.17,0.18,0.34,0.38,0.39,0.63
											c0.04,0.24,0.02,0.47,0.02,0.68c-0.01,0.21-0.01,0.42-0.02,0.61c-0.01,0.19,0,0.37-0.04,0.54
											c-0.04,0.17-0.16,0.3-0.29,0.34c-0.13,0.05-0.25,0.05-0.34,0.03c-0.09-0.02-0.16-0.06-0.19-0.09
											C22.28,32.55,22.27,32.53,22.27,32.53z"/>
									</g>
								</g>
							</g>
							<g>
								<g>
									<path class="st81" d="M21.1,33.61c0.26,0.28,0.71,0.36,1.05,0.19c0.03-0.38,0.06-0.75,0.09-1.13
										c0.02-0.19,0.03-0.39-0.03-0.57c-0.05-0.13-0.13-0.24-0.21-0.35c-0.32-0.43-0.65-0.85-1.03-1.23
										c-0.19-0.19-0.42-0.38-0.69-0.41c-0.21-0.02-0.41,0.05-0.6,0.13c-0.7,0.3-1.35,0.73-1.9,1.27"/>
								</g>
								<g>
									<g>
										<path class="st82" d="M17.77,31.51c0,0,0.02-0.03,0.06-0.07c0.04-0.04,0.1-0.1,0.18-0.18c0.16-0.15,0.4-0.35,0.73-0.57
											c0.16-0.11,0.35-0.22,0.55-0.32c0.21-0.1,0.42-0.22,0.68-0.28c0.13-0.03,0.27-0.04,0.41,0c0.14,0.04,0.27,0.11,0.38,0.2
											c0.23,0.18,0.42,0.4,0.62,0.62c0.21,0.24,0.39,0.48,0.57,0.72c0.09,0.12,0.18,0.23,0.25,0.36
											c0.07,0.13,0.09,0.28,0.09,0.42c-0.03,0.54-0.08,1.01-0.11,1.4l0,0.02l-0.02,0.01c-0.34,0.16-0.66,0.07-0.83-0.02
											c-0.09-0.05-0.15-0.1-0.19-0.13c-0.04-0.04-0.05-0.06-0.05-0.06c0.01-0.01,0.08,0.08,0.25,0.16
											c0.17,0.08,0.47,0.15,0.79-0.01l-0.02,0.03c0.02-0.39,0.07-0.87,0.09-1.39c0-0.13-0.02-0.26-0.09-0.38
											c-0.06-0.12-0.15-0.23-0.24-0.35c-0.18-0.23-0.36-0.48-0.57-0.71c-0.19-0.22-0.39-0.44-0.6-0.61
											c-0.11-0.08-0.22-0.15-0.35-0.18c-0.12-0.03-0.25-0.03-0.37,0c-0.24,0.06-0.46,0.17-0.67,0.27
											c-0.2,0.1-0.39,0.21-0.55,0.31c-0.33,0.21-0.57,0.4-0.74,0.54C17.87,31.43,17.78,31.51,17.77,31.51z"/>
									</g>
								</g>
							</g>
							<g>
								<g>
									<g>
										<path class="st82" d="M19.64,33.55c0.02,0,0.01,0.12-0.1,0.24c-0.11,0.12-0.28,0.26-0.49,0.38
											c-0.43,0.24-0.85,0.25-0.84,0.23c-0.01-0.03,0.38-0.08,0.8-0.31c0.21-0.11,0.38-0.24,0.49-0.34
											C19.6,33.64,19.62,33.55,19.64,33.55z"/>
									</g>
								</g>
								<g>
									<g>
										<path class="st81" d="M19.45,33.17c0.06,0.18,0.23,0.31,0.41,0.34c-0.02,0.27,0.1,0.54,0.3,0.71
											c0.08,0.07,0.17,0.12,0.27,0.13c0.21,0.01,0.35-0.19,0.46-0.36c0.12-0.21,0.24-0.42,0.34-0.64
											c0.05-0.11,0.11-0.24,0.06-0.36c-0.02-0.06-0.07-0.11-0.12-0.16c-0.26-0.25-0.52-0.51-0.78-0.76
											c-0.12-0.11-0.24-0.23-0.39-0.29c-0.21-0.08-0.44-0.04-0.66-0.01c-0.72,0.13-1.38,0.29-1.99,0.69"/>
									</g>
									<g>
										<g>
											<path class="st82" d="M17.36,32.45c0,0,0.02-0.02,0.06-0.05c0.04-0.03,0.11-0.07,0.2-0.12c0.18-0.1,0.44-0.23,0.79-0.33
												c0.35-0.11,0.76-0.2,1.25-0.26c0.12-0.01,0.25,0,0.38,0.05c0.13,0.05,0.23,0.13,0.33,0.22c0.19,0.18,0.38,0.37,0.57,0.56
												c0.07,0.06,0.13,0.13,0.19,0.19c0.06,0.07,0.13,0.12,0.19,0.2c0.06,0.09,0.06,0.2,0.03,0.29
												c-0.03,0.09-0.07,0.17-0.11,0.24c-0.08,0.15-0.16,0.29-0.24,0.43c-0.07,0.14-0.15,0.28-0.27,0.38
												c-0.06,0.05-0.13,0.1-0.2,0.12c-0.08,0.02-0.16,0.01-0.23-0.02c-0.14-0.06-0.23-0.16-0.3-0.26
												c-0.14-0.2-0.18-0.43-0.17-0.6l0.02,0.03c-0.19-0.03-0.3-0.15-0.35-0.23c-0.03-0.04-0.04-0.07-0.05-0.1
												c-0.01-0.02-0.01-0.04-0.01-0.04c0.01,0,0.02,0.05,0.08,0.12c0.06,0.07,0.17,0.17,0.34,0.19l0.02,0l0,0.02
												c-0.01,0.16,0.04,0.37,0.18,0.55c0.07,0.09,0.16,0.18,0.27,0.22c0.11,0.05,0.24,0.01,0.34-0.09
												c0.1-0.1,0.18-0.23,0.25-0.37c0.07-0.14,0.15-0.28,0.23-0.43c0.08-0.14,0.16-0.31,0.08-0.44
												c-0.04-0.06-0.11-0.12-0.18-0.19c-0.06-0.06-0.13-0.13-0.19-0.19c-0.2-0.19-0.39-0.38-0.57-0.56
												c-0.09-0.09-0.19-0.16-0.3-0.21c-0.11-0.04-0.23-0.05-0.34-0.04c-0.46,0.05-0.89,0.14-1.23,0.24
												c-0.34,0.1-0.61,0.21-0.79,0.3C17.46,32.4,17.36,32.46,17.36,32.45z"/>
										</g>
									</g>
								</g>
								<g>
									<g>
										<path class="st82" d="M19.58,33.59c0.01,0.01-0.05,0.05-0.16,0.08c-0.11,0.03-0.27,0.02-0.43-0.03
											c-0.32-0.11-0.53-0.29-0.52-0.3c0.02-0.03,0.25,0.11,0.55,0.21c0.15,0.05,0.29,0.06,0.4,0.05
											C19.51,33.59,19.57,33.58,19.58,33.59z"/>
									</g>
								</g>
							</g>
						</g>
						<g>
							<g>
								<path class="st88" d="M14.51,45.75c0.84-1.87,1.69-3.96,2.6-6.17l0.02-0.05l0.05,0.03c0.38,0.2,0.78,0.41,1.19,0.63
									c1.55,0.83,3.06,1.62,4.45,2.36l0.03,0.02l-0.01,0.04c-0.26,0.93-0.5,1.84-0.71,2.71c-0.11,0.43-0.2,0.86-0.29,1.28
									c-0.09,0.42-0.17,0.83-0.26,1.22c-0.19,0.79-0.38,1.52-0.5,2.22c-0.12,0.7-0.28,1.34-0.42,1.91
									c-0.3,1.15-0.57,2.06-0.76,2.68c-0.1,0.31-0.17,0.55-0.22,0.71c-0.03,0.08-0.05,0.14-0.06,0.18
									c-0.01,0.04-0.02,0.06-0.02,0.06c0,0,0-0.02,0.02-0.06c0.01-0.05,0.03-0.11,0.05-0.19c0.05-0.17,0.12-0.41,0.21-0.72
									c0.18-0.62,0.44-1.53,0.73-2.69c0.14-0.58,0.29-1.21,0.41-1.91c0.11-0.7,0.31-1.44,0.49-2.23c0.09-0.39,0.17-0.8,0.26-1.22
									c0.09-0.42,0.18-0.85,0.29-1.28c0.21-0.87,0.45-1.78,0.7-2.71l0.02,0.05c-1.39-0.74-2.9-1.54-4.45-2.36
									c-0.41-0.22-0.81-0.43-1.19-0.63l0.07-0.02C16.29,41.82,14.07,46.68,14.51,45.75z"/>
							</g>
						</g>
					</g>
				</g>
			</g>
		</g>
	</g>
	
		<line style="clip-path:url(#SVGID_00000011028015428988265210000000470558490097645711_);fill:none;stroke:#263238;stroke-width:0.25;stroke-linecap:round;stroke-miterlimit:10;" x1="14.91" y1="28.24" x2="11.33" y2="26.21"/>
	
		<line style="clip-path:url(#SVGID_00000011028015428988265210000000470558490097645711_);fill:none;stroke:#263238;stroke-width:0.25;stroke-linecap:round;stroke-miterlimit:10;" x1="14.79" y1="30.05" x2="10.98" y2="31.12"/>
	
		<line style="clip-path:url(#SVGID_00000011028015428988265210000000470558490097645711_);fill:none;stroke:#263238;stroke-width:0.25;stroke-linecap:round;stroke-miterlimit:10;" x1="14.82" y1="29.13" x2="10.94" y2="28.8"/>
</g>
</svg>
