<?xml version="1.0" encoding="utf-8"?>
<!-- Generator: Adobe Illustrator 26.3.1, SVG Export Plug-In . SVG Version: 6.00 Build 0)  -->
<svg version="1.1" id="Layer_1" xmlns="http://www.w3.org/2000/svg" xmlns:xlink="http://www.w3.org/1999/xlink" x="0px" y="0px"
	 viewBox="0 0 58 60.58" style="enable-background:new 0 0 58 60.58;" xml:space="preserve">
<style type="text/css">
	.st0{display:none;fill:#F0EFEF;}
	.st1{display:none;fill:none;stroke:#22A199;stroke-linecap:round;stroke-linejoin:round;stroke-miterlimit:10;}
	.st2{fill:#333333;}
	.st3{opacity:0.5;}
	.st4{fill:#F0E0E4;}
	.st5{fill:#972F48;}
	.st6{fill:#E9E9E9;}
	.st7{fill:none;}
	.st8{fill:#FFFFFF;}
	.st9{fill:none;stroke:#333333;stroke-linecap:round;stroke-miterlimit:10;}
	.st10{fill:none;stroke:#972F48;stroke-linecap:round;stroke-miterlimit:10;}
	.st11{fill:none;stroke:#333333;stroke-miterlimit:10;}
	.st12{fill:#F0E0E4;stroke:#972F48;stroke-linecap:round;stroke-linejoin:round;stroke-miterlimit:10;}
	.st13{fill:#E9E9E9;stroke:#972F48;stroke-linecap:round;stroke-linejoin:round;stroke-miterlimit:10;}
	.st14{fill:none;stroke:#972F48;stroke-miterlimit:10;}
	.st15{fill:none;stroke:#21A199;stroke-linecap:round;stroke-linejoin:round;stroke-miterlimit:10;}
	.st16{fill:#FFFFFF;stroke:#333333;stroke-linecap:round;stroke-linejoin:round;stroke-miterlimit:10;}
	.st17{fill:none;stroke:#333333;stroke-linecap:round;stroke-linejoin:round;stroke-miterlimit:10;}
	.st18{fill:#F0E0E4;stroke:#972F48;stroke-miterlimit:10;}
	.st19{fill:#E9E9E9;stroke:#972F48;stroke-linecap:round;stroke-miterlimit:10;}
	.st20{fill:#E9E9E9;stroke:#333333;stroke-linecap:round;stroke-linejoin:round;stroke-miterlimit:10;}
	.st21{fill:none;stroke:#972F48;stroke-linecap:round;stroke-linejoin:round;stroke-miterlimit:10;}
	.st22{fill:none;stroke:#333333;stroke-width:0.9722;stroke-linecap:round;stroke-miterlimit:10;}
	.st23{fill:none;stroke:#333333;stroke-width:0.9722;stroke-miterlimit:10;}
	.st24{fill:#F0E0E4;stroke:#972F48;stroke-width:0.9722;stroke-miterlimit:10;}
	.st25{fill:#FFFFFF;stroke:#982F48;stroke-width:0.9722;stroke-miterlimit:10;}
	.st26{fill:none;stroke:#972F48;stroke-width:0.9722;stroke-miterlimit:10;}
	.st27{fill:none;stroke:#333333;stroke-linecap:round;stroke-linejoin:round;}
	.st28{fill:none;stroke:#333333;stroke-linecap:round;stroke-linejoin:round;stroke-dasharray:2.2305,2.2305;}
	.st29{fill:#98D4C6;stroke:#21A199;stroke-linecap:round;stroke-linejoin:round;stroke-miterlimit:10;}
	.st30{fill:#F0E0E4;stroke:#972F48;stroke-width:0.75;stroke-linecap:round;stroke-linejoin:round;stroke-miterlimit:10;}
	.st31{fill:#E9E9E9;stroke:#972F48;stroke-width:0.75;stroke-linecap:round;stroke-linejoin:round;stroke-miterlimit:10;}
	.st32{fill:none;stroke:#21A199;stroke-linecap:round;stroke-miterlimit:10;}
	.st33{fill:none;stroke:#21A199;stroke-miterlimit:10;}
	.st34{fill:#CCE9E2;stroke:#21A199;stroke-linecap:round;stroke-linejoin:round;stroke-miterlimit:10;}
	.st35{fill:#21A199;}
	.st36{fill-rule:evenodd;clip-rule:evenodd;fill:#22A199;}
	.st37{fill:#22A199;}
	.st38{fill:#CDCFCE;}
	.st39{clip-path:url(#SVGID_00000083799202796709372940000008055375349158247860_);}
	.st40{fill:#F4F8F9;}
	.st41{fill:none;stroke:#F4F8F9;stroke-width:0.25;stroke-linecap:round;stroke-miterlimit:10;}
	.st42{fill:#E5F4F2;}
	.st43{clip-path:url(#SVGID_00000036224535377615236300000015674032467639990155_);}
	.st44{fill:#98D4C6;}
	.st45{fill:#EFE0E5;}
	.st46{fill:#963048;}
	.st47{clip-path:url(#SVGID_00000114772755556052888510000010438703712357380756_);}
	.st48{clip-path:url(#SVGID_00000049902748898878097820000008416815176002095762_);}
	.st49{fill:#FAC1A2;}
	.st50{fill:#F68F6C;}
	.st51{clip-path:url(#SVGID_00000006694792827007696580000001142671447877274026_);}
	
		.st52{clip-path:url(#SVGID_00000003809849818853560580000000181116733410730934_);fill-rule:evenodd;clip-rule:evenodd;fill:#E9DFEF;}
	.st53{clip-path:url(#SVGID_00000047055831716546047030000001631317913911286415_);}
	.st54{clip-path:url(#SVGID_00000141421983064005733900000011265577557757477529_);}
	
		.st55{clip-path:url(#SVGID_00000069356230443566064880000008963635455133083009_);fill-rule:evenodd;clip-rule:evenodd;fill:#E9DFEF;}
	.st56{clip-path:url(#SVGID_00000146479814578982534950000009857244994280574089_);}
	
		.st57{clip-path:url(#SVGID_00000111187759483216364040000016112803930963601058_);fill-rule:evenodd;clip-rule:evenodd;fill:#FAAF7B;}
	
		.st58{clip-path:url(#SVGID_00000111187759483216364040000016112803930963601058_);fill-rule:evenodd;clip-rule:evenodd;fill:#E9DFEF;}
	
		.st59{clip-path:url(#SVGID_00000036939244299195405720000010488511726856349841_);fill:none;stroke:#847AA7;stroke-width:0.25;stroke-linecap:round;stroke-linejoin:round;stroke-miterlimit:10;}
	.st60{clip-path:url(#SVGID_00000083062519796597732570000015425425156739612549_);}
	
		.st61{clip-path:url(#SVGID_00000021836022810461182660000000917685861262385281_);fill-rule:evenodd;clip-rule:evenodd;fill:#D65154;}
	
		.st62{clip-path:url(#SVGID_00000047740835850779247590000017311078462560724106_);fill:none;stroke:#847AA7;stroke-width:0.25;stroke-linecap:round;stroke-linejoin:round;stroke-miterlimit:10;}
	.st63{clip-path:url(#SVGID_00000129196881794838328700000013106398405884679051_);}
	.st64{clip-path:url(#SVGID_00000033331658267727693870000013742291047653851561_);}
	.st65{fill:#242638;}
	.st66{fill:none;stroke:#242638;stroke-width:0.2;stroke-linecap:round;stroke-miterlimit:10;}
	.st67{fill:none;stroke:#D64F4F;stroke-width:0.2;stroke-linecap:round;stroke-linejoin:round;stroke-miterlimit:10;}
	.st68{fill:none;stroke:#242638;stroke-width:0.2;stroke-linecap:round;stroke-linejoin:round;stroke-miterlimit:10;}
	
		.st69{clip-path:url(#SVGID_00000033331658267727693870000013742291047653851561_);fill-rule:evenodd;clip-rule:evenodd;fill:#F6B89C;}
	
		.st70{clip-path:url(#SVGID_00000105390516518550047150000007685276839036060062_);fill:none;stroke:#F68F6C;stroke-width:0.25;stroke-miterlimit:10;}
	
		.st71{clip-path:url(#SVGID_00000183960668305207535410000006237572030055929525_);fill-rule:evenodd;clip-rule:evenodd;fill:#F6B89C;}
	
		.st72{clip-path:url(#SVGID_00000183960668305207535410000006237572030055929525_);fill-rule:evenodd;clip-rule:evenodd;fill:#F68F6C;}
	.st73{clip-path:url(#SVGID_00000168098809334000741690000013601056902877374142_);}
	.st74{fill:#233642;}
	.st75{fill:#AEA580;}
	.st76{fill:#F6B89C;}
	.st77{fill:#FCFDFD;}
	.st78{fill:#5D778F;}
	.st79{fill:#FFEBBF;}
	.st80{clip-path:url(#SVGID_00000087393798446420704140000006282330010313850021_);}
	.st81{fill:#FBBF9E;}
	.st82{fill:#F7996E;}
	.st83{fill:#263238;}
	.st84{fill:#455B64;}
	.st85{fill:#263238;stroke:#263238;stroke-width:0.25;stroke-miterlimit:10;}
	.st86{fill:#FFFFFF;stroke:#263238;stroke-width:0.1;stroke-miterlimit:10;}
	.st87{fill:#E9DFEF;}
	.st88{fill:#847AA7;}
	.st89{opacity:0.3;}
	.st90{fill:#FBBF9E;stroke:#F7996E;stroke-width:0.05;stroke-miterlimit:10;}
	.st91{clip-path:url(#SVGID_00000087403731719035931180000009830620639446000786_);}
	.st92{fill:#FFFCD9;}
	.st93{fill:#F8A78A;}
	.st94{fill:#CE7E75;}
	.st95{fill:#F4805A;}
	.st96{fill:none;stroke:#F7996E;stroke-width:0.25;stroke-linecap:round;stroke-miterlimit:10;}
	.st97{fill:#F3725F;}
	.st98{fill:#6F453A;}
	.st99{fill:#FABAA7;}
	.st100{clip-path:url(#SVGID_00000004547200248623785170000001870733486538051989_);}
	.st101{clip-path:url(#SVGID_00000173126399985187238790000015474908157285714602_);}
	.st102{fill:#C4B7DA;}
	.st103{fill:#FAFBFB;}
	.st104{fill:#AEA5D1;}
	.st105{fill:#A5A2C3;}
	.st106{opacity:0.37;}
	
		.st107{clip-path:url(#SVGID_00000004547200248623785170000001870733486538051989_);fill:none;stroke:#263238;stroke-width:0.25;stroke-linecap:round;stroke-miterlimit:10;}
	.st108{fill:#F4F9FD;}
	.st109{clip-path:url(#SVGID_00000146496063498304911190000013097893457768738711_);}
	.st110{clip-path:url(#SVGID_00000065774269006478180180000012949275859998179206_);}
	.st111{clip-path:url(#SVGID_00000155859884873007401200000002011336836389968046_);}
	
		.st112{clip-path:url(#SVGID_00000075877485329081944000000015316986884851415211_);fill-rule:evenodd;clip-rule:evenodd;fill:#E9DFEF;}
	.st113{clip-path:url(#SVGID_00000001643443941917724090000014038197503986733228_);}
	.st114{clip-path:url(#SVGID_00000007425679404861611030000015945465197049193609_);}
	
		.st115{clip-path:url(#SVGID_00000106828136053201681090000008207212261729533588_);fill-rule:evenodd;clip-rule:evenodd;fill:#E9DFEF;}
	.st116{clip-path:url(#SVGID_00000030481819156183051640000009725942525315795617_);}
	
		.st117{clip-path:url(#SVGID_00000071528365324023450360000008955021953807980160_);fill-rule:evenodd;clip-rule:evenodd;fill:#FAAF7B;}
	
		.st118{clip-path:url(#SVGID_00000071528365324023450360000008955021953807980160_);fill-rule:evenodd;clip-rule:evenodd;fill:#E9DFEF;}
	
		.st119{clip-path:url(#SVGID_00000033345083334682656600000000413717917951933876_);fill:none;stroke:#847AA7;stroke-width:0.25;stroke-linecap:round;stroke-linejoin:round;stroke-miterlimit:10;}
	.st120{clip-path:url(#SVGID_00000176001618322795679210000016907601551556025251_);}
	
		.st121{clip-path:url(#SVGID_00000136399766032743539630000003921730688191294856_);fill-rule:evenodd;clip-rule:evenodd;fill:#D65154;}
	
		.st122{clip-path:url(#SVGID_00000044857304848067405400000006282034368829307797_);fill:none;stroke:#847AA7;stroke-width:0.25;stroke-linecap:round;stroke-linejoin:round;stroke-miterlimit:10;}
	.st123{clip-path:url(#SVGID_00000003101869515573279670000011248302497632658839_);}
	.st124{clip-path:url(#SVGID_00000161633191821609189960000009049345755745104817_);}
	
		.st125{clip-path:url(#SVGID_00000161633191821609189960000009049345755745104817_);fill-rule:evenodd;clip-rule:evenodd;fill:#F6B89C;}
	
		.st126{clip-path:url(#SVGID_00000110448415344127347750000016597942497940141200_);fill:none;stroke:#F68F6C;stroke-width:0.25;stroke-miterlimit:10;}
	
		.st127{clip-path:url(#SVGID_00000060024838954616229190000006761237155001142457_);fill-rule:evenodd;clip-rule:evenodd;fill:#F6B89C;}
	
		.st128{clip-path:url(#SVGID_00000060024838954616229190000006761237155001142457_);fill-rule:evenodd;clip-rule:evenodd;fill:#F68F6C;}
	.st129{clip-path:url(#SVGID_00000035497188111500856690000016489904936897715359_);}
	.st130{clip-path:url(#SVGID_00000023256593493509409790000017025754954187360699_);}
	.st131{clip-path:url(#SVGID_00000028306108292096181510000002912194565515504303_);}
	.st132{clip-path:url(#SVGID_00000021111022972616950760000004244872311186853254_);}
	.st133{clip-path:url(#SVGID_00000109001586861605063770000017078074077928409250_);}
	
		.st134{clip-path:url(#SVGID_00000021111022972616950760000004244872311186853254_);fill:none;stroke:#263238;stroke-width:0.25;stroke-linecap:round;stroke-miterlimit:10;}
	.st135{clip-path:url(#SVGID_00000011709401195965715310000007581660884527238027_);}
	.st136{clip-path:url(#SVGID_00000183945132617042590130000004927824155892558265_);}
	.st137{clip-path:url(#SVGID_00000054946720895498349460000003240539028792781440_);}
	.st138{clip-path:url(#SVGID_00000160175416688357754830000002504490540708911549_);}
	.st139{fill-rule:evenodd;clip-rule:evenodd;fill:#E9DFEF;}
	.st140{clip-path:url(#SVGID_00000036966603739511696410000002525516189275694489_);}
	.st141{clip-path:url(#SVGID_00000088115219875560569250000001747214839307889291_);}
	.st142{clip-path:url(#SVGID_00000137128100070770056560000002094097961380608169_);}
	.st143{clip-path:url(#SVGID_00000077314304518437750440000007402825197198920849_);}
	.st144{clip-path:url(#SVGID_00000098208035090933408730000009221534004671598520_);}
	.st145{fill-rule:evenodd;clip-rule:evenodd;fill:#FAAF7B;}
	.st146{clip-path:url(#SVGID_00000076578121807948155500000005613800351586623895_);}
	.st147{clip-path:url(#SVGID_00000034076891897216230410000017171891231173666738_);}
	.st148{clip-path:url(#SVGID_00000151521200025922878500000003633407427728572594_);}
	.st149{fill-rule:evenodd;clip-rule:evenodd;fill:#D65154;}
	.st150{clip-path:url(#SVGID_00000132783224365932104330000014000803278795724457_);}
	.st151{clip-path:url(#SVGID_00000005978167760564544820000014217446345752936121_);}
	.st152{clip-path:url(#SVGID_00000169516201656113829390000009795697572007686822_);}
	.st153{fill:#D64F4F;}
	.st154{fill-rule:evenodd;clip-rule:evenodd;fill:#F6B89C;}
	.st155{clip-path:url(#SVGID_00000171705790725410119160000017916222192689087670_);}
	.st156{clip-path:url(#SVGID_00000055672829235669940210000013758022192897291190_);}
	.st157{fill-rule:evenodd;clip-rule:evenodd;fill:#F68F6C;}
	.st158{clip-path:url(#SVGID_00000140001187328006693600000004574829431663754373_);}
	.st159{clip-path:url(#SVGID_00000163031582476788226890000001457520638147903888_);}
	.st160{clip-path:url(#SVGID_00000121279962995440560970000010939608317567050917_);}
	.st161{clip-path:url(#SVGID_00000084525681651769004490000015210863857679448972_);}
	.st162{clip-path:url(#SVGID_00000083781332006435156410000005143876207819238793_);}
	
		.st163{clip-path:url(#SVGID_00000084525681651769004490000015210863857679448972_);fill:none;stroke:#263238;stroke-width:0.25;stroke-linecap:round;stroke-miterlimit:10;}
	.st164{clip-path:url(#SVGID_00000075855356672633563250000005417184391993166739_);}
	.st165{clip-path:url(#SVGID_00000111192441779422855550000004948999166367362991_);}
	.st166{clip-path:url(#SVGID_00000066502131008102613160000004568203116599661231_);}
	
		.st167{clip-path:url(#SVGID_00000109026263799158599780000000594312730567861128_);fill-rule:evenodd;clip-rule:evenodd;fill:#E9DFEF;}
	.st168{clip-path:url(#SVGID_00000006689534209556108100000012940405642785536401_);}
	.st169{clip-path:url(#SVGID_00000072994871733132139730000005976861145147260329_);}
	
		.st170{clip-path:url(#SVGID_00000104697437706578112950000007823011605650803891_);fill-rule:evenodd;clip-rule:evenodd;fill:#E9DFEF;}
	.st171{clip-path:url(#SVGID_00000080164191879396885730000016688278112504211114_);}
	
		.st172{clip-path:url(#SVGID_00000036964754428510828060000015490228089468036484_);fill-rule:evenodd;clip-rule:evenodd;fill:#FAAF7B;}
	
		.st173{clip-path:url(#SVGID_00000036964754428510828060000015490228089468036484_);fill-rule:evenodd;clip-rule:evenodd;fill:#E9DFEF;}
	
		.st174{clip-path:url(#SVGID_00000027580430084239070710000012704487531875914431_);fill:none;stroke:#847AA7;stroke-width:0.25;stroke-linecap:round;stroke-linejoin:round;stroke-miterlimit:10;}
	.st175{clip-path:url(#SVGID_00000106831526196070402230000009029409297989469585_);}
	
		.st176{clip-path:url(#SVGID_00000034781603816774805630000001669322580649720218_);fill-rule:evenodd;clip-rule:evenodd;fill:#D65154;}
	
		.st177{clip-path:url(#SVGID_00000036209519225001617590000016700372616506491296_);fill:none;stroke:#847AA7;stroke-width:0.25;stroke-linecap:round;stroke-linejoin:round;stroke-miterlimit:10;}
	.st178{clip-path:url(#SVGID_00000077295459384547500920000013514599823840956339_);}
	.st179{clip-path:url(#SVGID_00000048495949619105573060000009985841694463947951_);}
	
		.st180{clip-path:url(#SVGID_00000048495949619105573060000009985841694463947951_);fill-rule:evenodd;clip-rule:evenodd;fill:#F6B89C;}
	
		.st181{clip-path:url(#SVGID_00000027563639256144366260000001089514982694639037_);fill:none;stroke:#F68F6C;stroke-width:0.25;stroke-miterlimit:10;}
	
		.st182{clip-path:url(#SVGID_00000130606580049781811880000016051312198698783674_);fill-rule:evenodd;clip-rule:evenodd;fill:#F6B89C;}
	
		.st183{clip-path:url(#SVGID_00000130606580049781811880000016051312198698783674_);fill-rule:evenodd;clip-rule:evenodd;fill:#F68F6C;}
	.st184{clip-path:url(#SVGID_00000056399348037200093460000002241496073112499091_);}
	.st185{clip-path:url(#SVGID_00000142171256908475864960000017043480065024476319_);}
	.st186{clip-path:url(#SVGID_00000057826765986866949130000010410763712290404486_);}
	.st187{clip-path:url(#SVGID_00000098221278968200633590000007902743862417450934_);}
	.st188{clip-path:url(#SVGID_00000082351739534500632100000010665969050577180085_);}
	
		.st189{clip-path:url(#SVGID_00000098221278968200633590000007902743862417450934_);fill:none;stroke:#263238;stroke-width:0.25;stroke-linecap:round;stroke-miterlimit:10;}
	.st190{fill:#D8D8D8;}
	.st191{fill-rule:evenodd;clip-rule:evenodd;fill:#F7EBEE;}
	.st192{fill:#595A5A;}
	.st193{fill:#383838;}
	.st194{fill:#9FA3A9;}
	.st195{fill:#EC795A;}
	.st196{fill:#93C9C3;}
	.st197{fill:#3D2316;}
	.st198{fill:#B3B3B3;}
	.st199{fill:#BB5336;}
	.st200{fill:#763D36;}
	.st201{fill:#401E1E;}
	.st202{fill:#572B23;}
	.st203{fill:#4F271F;}
	.st204{fill:#5C5C5C;}
	.st205{fill-rule:evenodd;clip-rule:evenodd;fill:#21A199;}
	.st206{fill:#24406F;}
	.st207{fill-rule:evenodd;clip-rule:evenodd;fill:#C95835;}
	.st208{fill:#C95835;}
	.st209{fill-rule:evenodd;clip-rule:evenodd;fill:#383838;}
	.st210{fill-rule:evenodd;clip-rule:evenodd;fill:#D8D8D8;}
	.st211{fill-rule:evenodd;clip-rule:evenodd;fill:#E3633D;}
	.st212{fill-rule:evenodd;clip-rule:evenodd;fill:#4A2B1B;}
	.st213{fill-rule:evenodd;clip-rule:evenodd;fill:#5C5C5C;}
	.st214{fill-rule:evenodd;clip-rule:evenodd;fill:#F0E0E4;}
	.st215{fill-rule:evenodd;clip-rule:evenodd;fill:#643D1F;}
	.st216{fill:#DBC2C9;}
	.st217{fill-rule:evenodd;clip-rule:evenodd;fill:#972F48;}
	.st218{fill-rule:evenodd;clip-rule:evenodd;fill:#E2E2E2;}
	.st219{fill-rule:evenodd;clip-rule:evenodd;fill:#9FA3A9;}
	.st220{fill-rule:evenodd;clip-rule:evenodd;fill:#909396;}
	.st221{fill-rule:evenodd;clip-rule:evenodd;fill:#FFF9F5;}
	.st222{fill:none;stroke:#383838;stroke-linecap:round;stroke-linejoin:round;stroke-miterlimit:10;}
	.st223{fill:#F4F9F8;}
	.st224{fill:#BDC1C6;}
	.st225{fill-rule:evenodd;clip-rule:evenodd;fill:#595A5A;}
	.st226{fill:#E9F5F2;}
	.st227{fill:none;stroke:#21A199;stroke-width:0.5;stroke-linecap:round;stroke-linejoin:round;stroke-miterlimit:10;}
	.st228{fill:none;stroke:#383838;stroke-width:0.25;stroke-linecap:round;stroke-linejoin:round;stroke-miterlimit:10;}
	.st229{fill-rule:evenodd;clip-rule:evenodd;fill:#F4F4F5;}
	.st230{fill:#D3D3D3;}
	.st231{fill:#334564;}
	.st232{fill-rule:evenodd;clip-rule:evenodd;fill:#883C25;}
	.st233{fill-rule:evenodd;clip-rule:evenodd;fill:#FFFFFF;}
	.st234{fill:#EAF5F2;}
	.st235{fill:#A2BDE2;}
	.st236{fill:#CCE9E2;}
	.st237{fill:#9C4522;}
	.st238{fill:#222E42;}
	.st239{fill:#AB533A;}
	.st240{fill:none;stroke:#21A199;stroke-width:0.25;stroke-linecap:round;stroke-linejoin:round;}
	.st241{fill:none;stroke:#21A199;stroke-width:0.25;stroke-linecap:round;stroke-linejoin:round;stroke-dasharray:6.6923;}
	.st242{fill:none;stroke:#972F48;stroke-width:0.25;stroke-linecap:round;stroke-linejoin:round;}
	
		.st243{fill:none;stroke:#972F48;stroke-width:0.25;stroke-linecap:round;stroke-linejoin:round;stroke-dasharray:3.7662,0.9416,0,0;}
	.st244{fill:none;stroke:#68919D;stroke-width:1.5;stroke-linecap:round;stroke-miterlimit:10;}
	.st245{fill:none;stroke:#68919D;stroke-width:1.5;stroke-linecap:round;stroke-linejoin:round;stroke-miterlimit:10;}
	.st246{fill:#68919D;}
	.st247{fill:none;stroke:#68919D;stroke-linecap:round;stroke-miterlimit:10;}
</style>
<g>
	<defs>
		<circle id="SVGID_00000134232853139884278280000001172449184060240550_" cx="29" cy="30.58" r="25.58"/>
	</defs>
	<clipPath id="SVGID_00000097496226380397356480000013285429157909669532_">
		<use xlink:href="#SVGID_00000134232853139884278280000001172449184060240550_"  style="overflow:visible;"/>
	</clipPath>
	<g style="clip-path:url(#SVGID_00000097496226380397356480000013285429157909669532_);">
		<g>
			<defs>
				<polygon id="SVGID_00000103234184463636851160000004955302680675362203_" points="52.3,1.36 2.42,1.36 2.42,82.14 52.3,82.14 
					52.3,1.36 				"/>
			</defs>
			<defs>
				<rect id="SVGID_00000060019528447114135000000017651712949355428258_" x="2.42" y="1.36" width="49.88" height="80.77"/>
			</defs>
			<clipPath id="SVGID_00000052100671865115979420000007468386563984312704_">
				<use xlink:href="#SVGID_00000103234184463636851160000004955302680675362203_"  style="overflow:visible;"/>
			</clipPath>
			
				<clipPath id="SVGID_00000157284591760405304030000015587745813078550928_" style="clip-path:url(#SVGID_00000052100671865115979420000007468386563984312704_);">
				<use xlink:href="#SVGID_00000060019528447114135000000017651712949355428258_"  style="overflow:visible;"/>
			</clipPath>
		</g>
		<g>
			<path class="st49" d="M24.79,37.17l0.13,4.63c-0.04,0.55-0.46,0.99-1.01,1.07l-1.35-0.5c0,0,5.56,9.91,14.08,5.1l-2.74-5.66
				c-0.31-0.31-0.63-2.45-0.67-3.37c-0.07-1.51-0.17-6.06-0.17-6.06L24.79,37.17z"/>
		</g>
		<g>
			<path class="st50" d="M33.1,32.23c0,0,0.1,1.24,0.17,2.1c-2.73,8.67-7.07,6.65-8.39,6.04c-0.02-1.6-0.39-5.92-0.39-5.92
				L33.1,32.23z"/>
		</g>
		<g>
			<defs>
				<polygon id="SVGID_00000003106759815677856860000011863505399932485275_" points="52.3,1.36 2.42,1.36 2.42,82.14 52.3,82.14 
					52.3,1.36 				"/>
			</defs>
			<defs>
				<rect id="SVGID_00000172401534728368895970000003149722057170892188_" x="3.65" y="0.64" width="50.12" height="81.5"/>
			</defs>
			<clipPath id="SVGID_00000007406070558583786350000006091730058604985258_">
				<use xlink:href="#SVGID_00000003106759815677856860000011863505399932485275_"  style="overflow:visible;"/>
			</clipPath>
			
				<clipPath id="SVGID_00000158746670258033749120000016480132295616873401_" style="clip-path:url(#SVGID_00000007406070558583786350000006091730058604985258_);">
				<use xlink:href="#SVGID_00000172401534728368895970000003149722057170892188_"  style="overflow:visible;"/>
			</clipPath>
			<g style="clip-path:url(#SVGID_00000158746670258033749120000016480132295616873401_);">
				<path class="st139" d="M11.43,112.25c0.28,0.21-0.47-8.22-0.05-10.07c1.61-7.17,5.6-21.19,6.29-24.82
					c0.84-4.39-1.32-21.85-3.57-27.4c-1.31-3.24,3.82-7.62,10.84-8.05c0,0,3.28,5.37,4.78,5.36c1.49-0.02,3.3-3.38,4.19-5.45
					c0.04-0.09,5.5,0.43,8.15,2.26c1.88,1.3,3.29,3.07,3.81,5.14c0.27,1.1-1.53,1.42-2.37,5.4c-1.37,6.52-3.52,17.73-2.51,22.18
					c3.15,13.94,8.13,31.45,8,31.19c0,0-3.04,2.07-4.43,1.8c-1.66-0.33-1.39,0.1-4,0.23c-1.81,0.09-4.55,1.7-7.49,1.73
					c-3.29,0.03-6.83-1.54-8.98-1.48c-4.83,0.14-7.23,1.42-9.59,1.45C11.23,111.76,11.43,112.25,11.43,112.25L11.43,112.25z"/>
			</g>
		</g>
		<g>
			<defs>
				<path id="SVGID_00000029761171384019715000000010221111093242024844_" d="M11.43,112.25c0.28,0.21-0.47-8.22-0.05-10.07
					c1.61-7.17,5.6-21.19,6.29-24.82c0.84-4.39-1.32-21.85-3.57-27.4c-1.31-3.24,3.82-7.62,10.84-8.05c0,0,3.28,5.37,4.78,5.36
					c1.49-0.02,3.3-3.38,4.19-5.45c0.04-0.09,5.5,0.43,8.15,2.26c1.88,1.3,3.29,3.07,3.81,5.14c0.27,1.1-1.53,1.42-2.37,5.4
					c-1.37,6.52-3.52,17.73-2.51,22.18c3.15,13.94,8.13,31.45,8,31.19c0,0-3.04,2.07-4.43,1.8c-1.66-0.33-1.39,0.1-4,0.23
					c-1.81,0.09-4.55,1.7-7.49,1.73c-3.29,0.03-6.83-1.54-8.98-1.48c-4.83,0.14-7.23,1.42-9.59,1.45
					C11.23,111.76,11.43,112.25,11.43,112.25L11.43,112.25z"/>
			</defs>
			<defs>
				<polygon id="SVGID_00000035531128286752201360000009962464634227125898_" points="52.3,1.36 2.42,1.36 2.42,82.14 52.3,82.14 
					52.3,1.36 				"/>
			</defs>
			<defs>
				<rect id="SVGID_00000078766690209934204470000018339080324217804216_" x="2.42" y="1.36" width="49.88" height="80.77"/>
			</defs>
			<clipPath id="SVGID_00000142862655155202470200000016532747559776265371_">
				<use xlink:href="#SVGID_00000029761171384019715000000010221111093242024844_"  style="overflow:visible;"/>
			</clipPath>
			
				<clipPath id="SVGID_00000106133778032338515430000001931666308229797270_" style="clip-path:url(#SVGID_00000142862655155202470200000016532747559776265371_);">
				<use xlink:href="#SVGID_00000035531128286752201360000009962464634227125898_"  style="overflow:visible;"/>
			</clipPath>
			
				<clipPath id="SVGID_00000030459594937479535740000004255129055876891012_" style="clip-path:url(#SVGID_00000106133778032338515430000001931666308229797270_);">
				<use xlink:href="#SVGID_00000078766690209934204470000018339080324217804216_"  style="overflow:visible;"/>
			</clipPath>
			<g style="clip-path:url(#SVGID_00000030459594937479535740000004255129055876891012_);">
				<path class="st139" d="M25.28,41.45c-3.42,7.65-2.97,13.35-2.75,19.59c0.13,3.6-0.06,8.07,0.28,11.65
					c0.45,4.69,0.52,7.82,0.55,12.53c0.02,3.03,0.28,4.64-0.29,5.5c-0.47,0.71-5,0.63-7.78,0.8c-2.92,0.18-6.48-0.77-8.07-3.76
					C3.3,80.4,6.6,68.6,6.86,60.61C7.39,44.51,23.56,38.41,25.28,41.45L25.28,41.45z"/>
			</g>
			<g style="clip-path:url(#SVGID_00000030459594937479535740000004255129055876891012_);">
				<path class="st139" d="M33,40.06c3.48,7.28,3.17,13.86,3.35,20.26c0.1,3.79-0.15,7.85-0.27,11.53
					c-0.17,5.17-0.53,9.58-0.96,14.4c-0.16,1.82-0.58,3.6,0.17,4.28c0.55,0.5,4.92,0.85,6.82,0.98c3.41,0.23,5.79,0.97,7.24-2.1
					c3.57-7.57,0.91-20.65,0.67-28.87C49.54,43.99,34.57,36.93,33,40.06L33,40.06z"/>
			</g>
		</g>
		<g>
			<defs>
				<polygon id="SVGID_00000180336725977524495830000017011362645733392572_" points="52.3,1.36 2.42,1.36 2.42,82.14 52.3,82.14 
					52.3,1.36 				"/>
			</defs>
			<defs>
				<rect id="SVGID_00000007390601980809391210000016731056141303476362_" x="2.42" y="1.36" width="49.88" height="80.77"/>
			</defs>
			<clipPath id="SVGID_00000018197443671911051670000003475595053051677616_">
				<use xlink:href="#SVGID_00000180336725977524495830000017011362645733392572_"  style="overflow:visible;"/>
			</clipPath>
			
				<clipPath id="SVGID_00000027601864916394841430000009470058575122979743_" style="clip-path:url(#SVGID_00000018197443671911051670000003475595053051677616_);">
				<use xlink:href="#SVGID_00000007390601980809391210000016731056141303476362_"  style="overflow:visible;"/>
			</clipPath>
			<g style="clip-path:url(#SVGID_00000027601864916394841430000009470058575122979743_);">
				<path class="st145" d="M46.46,51.4c1.94,1.24,2.85,4.07,3.14,6.79c0.13,1.23,0.64,9.38,0.38,12.74
					c-0.23,2.96-5.67,16.29-5.46,17.71c0.26,1.73-4.08-0.2-3.79-2.47c0.55-4.28,2.96-14.95,3.19-17.21
					c0.43-4.19-1.49-13.63-1.7-13.45L46.46,51.4L46.46,51.4z"/>
			</g>
			<g style="clip-path:url(#SVGID_00000027601864916394841430000009470058575122979743_);">
				<path class="st139" d="M41.18,43.73c0.52-0.1,8.34,2.75,8.69,15.2l-7.85-0.03l-0.39-4.98L41.18,43.73L41.18,43.73z"/>
			</g>
		</g>
		<g>
			<defs>
				<path id="SVGID_00000026864175474692676030000003792823964992400017_" d="M41.18,43.73c0.52-0.1,8.34,2.75,8.69,15.2l-7.85-0.03
					l-0.39-4.98L41.18,43.73L41.18,43.73z"/>
			</defs>
			<clipPath id="SVGID_00000076572181368757284380000018438417849255793317_">
				<use xlink:href="#SVGID_00000026864175474692676030000003792823964992400017_"  style="overflow:visible;"/>
			</clipPath>
			<g style="clip-path:url(#SVGID_00000076572181368757284380000018438417849255793317_);">
				<path class="st88" d="M42.61,60.1c-0.06,0-0.11-0.04-0.12-0.1c-0.04-0.16,0.23-4.66,1.19-7.86c0.02-0.07,0.09-0.1,0.16-0.08
					c0.07,0.02,0.1,0.09,0.08,0.16c-0.92,3.06-1.22,7.49-1.19,7.73c0.02,0.07-0.03,0.13-0.09,0.15C42.63,60.1,42.62,60.1,42.61,60.1
					z"/>
			</g>
		</g>
		<g>
			<defs>
				<polygon id="SVGID_00000175297413537599122430000005489825199076807825_" points="52.3,1.36 2.42,1.36 2.42,82.14 52.3,82.14 
					52.3,1.36 				"/>
			</defs>
			<defs>
				<rect id="SVGID_00000030471680601515173740000008338747726351230649_" x="2.42" y="1.36" width="49.88" height="80.77"/>
			</defs>
			<clipPath id="SVGID_00000001643835216858832630000012113402971223758227_">
				<use xlink:href="#SVGID_00000175297413537599122430000005489825199076807825_"  style="overflow:visible;"/>
			</clipPath>
			
				<clipPath id="SVGID_00000005237410968642684670000015622794385723545512_" style="clip-path:url(#SVGID_00000001643835216858832630000012113402971223758227_);">
				<use xlink:href="#SVGID_00000030471680601515173740000008338747726351230649_"  style="overflow:visible;"/>
			</clipPath>
			<g style="clip-path:url(#SVGID_00000005237410968642684670000015622794385723545512_);">
				<path class="st149" d="M16,45.07c0,0-6.4,2.85-6.34,13.6l8.47,0.17L17.93,52L16,45.07L16,45.07z"/>
			</g>
		</g>
		<g>
			<defs>
				<path id="SVGID_00000074435408150026075250000002769911066513326222_" d="M16,45.07c0,0-6.4,2.85-6.34,13.6l8.47,0.17L17.93,52
					L16,45.07L16,45.07z"/>
			</defs>
			
				<use xlink:href="#SVGID_00000074435408150026075250000002769911066513326222_"  style="overflow:visible;fill-rule:evenodd;clip-rule:evenodd;fill:#E9DFEF;"/>
			<clipPath id="SVGID_00000178184350740211081990000013074890993560684475_">
				<use xlink:href="#SVGID_00000074435408150026075250000002769911066513326222_"  style="overflow:visible;"/>
			</clipPath>
			<g style="clip-path:url(#SVGID_00000178184350740211081990000013074890993560684475_);">
				<path class="st88" d="M16.26,60.09C16.25,60.09,16.25,60.09,16.26,60.09c-0.08-0.01-0.13-0.07-0.12-0.13
					c0.2-2.58,0.01-5.12-0.56-7.57c-0.02-0.07,0.03-0.13,0.09-0.15c0.07-0.02,0.13,0.03,0.15,0.09c0.58,2.47,0.77,5.04,0.57,7.64
					C16.38,60.04,16.32,60.09,16.26,60.09z"/>
			</g>
		</g>
		<g>
			<defs>
				<polygon id="SVGID_00000129908801919045067020000015395634244953691530_" points="52.3,1.36 2.42,1.36 2.42,82.14 52.3,82.14 
					52.3,1.36 				"/>
			</defs>
			<defs>
				<rect id="SVGID_00000024716773921873559890000010271164351735493816_" x="2.42" y="1.36" width="49.88" height="80.77"/>
			</defs>
			<clipPath id="SVGID_00000106868902550613693520000009205942118965102986_">
				<use xlink:href="#SVGID_00000129908801919045067020000015395634244953691530_"  style="overflow:visible;"/>
			</clipPath>
			
				<clipPath id="SVGID_00000162336858497925504090000012099079525227106472_" style="clip-path:url(#SVGID_00000106868902550613693520000009205942118965102986_);">
				<use xlink:href="#SVGID_00000024716773921873559890000010271164351735493816_"  style="overflow:visible;"/>
			</clipPath>
			<g style="clip-path:url(#SVGID_00000162336858497925504090000012099079525227106472_);">
				<g>
					<path class="st49" d="M33.02,25.35c-1.39-1.71-3.18-5.24-4.53-4.94c-1.51,0.33-2.01-0.71-3.06-0.63
						c-1.17,0.1-3.34,2.08-4.33,2.52c-0.86,0.39-0.49,1.29-1.15,1.73c-0.84,0.55-1.02,1.56-0.88,2.47c0.57,3.73,2.19,6.73,2.19,6.73
						c1.59,2.91,3.73,6.19,7.77,5.04c4.48-1.28,5.37-4.45,4.97-8.6C34.12,29.71,33.52,24.67,33.02,25.35z"/>
					<g>
						<path class="st65" d="M33.28,26.95c0,0-2.74-1.33-4.76-5.53c0,0-2.14,0.19-3.32,0.87c-1.18,0.68-2.17,2.38-4.68,3.35
							c-2.5,0.97-4.39-0.38-4.39-0.38s0.5-0.19,0.78-0.34c0,0-1.09-0.5-2.6-1.62c0,0,0.66-0.15,2.87-1.54c0,0-0.96-0.27-1.64-0.82
							c0,0,2.08-0.44,4.32-1.88c2.23-1.45,5.18-3.3,7.13-2.92c1.95,0.38,2.11,0.55,2.11,0.55s-1.28-1.53-2.12-1.6
							c0,0,1.95-0.01,2.79,1.59c0,0,1-0.27,1.55-0.33c0.55-0.06-1.11,0.6-1.11,0.6s4.81,3.19,4.16,10.87L33.28,26.95z"/>
					</g>
					<g>
						<path class="st65" d="M27.25,32.54c-0.01,0-0.01,0-0.02,0c-0.05-0.01-0.09-0.06-0.08-0.12c0.04-0.16,0-0.24-0.15-0.36
							c-0.03-0.03-0.12,0-0.19,0.02c-0.04,0.01-0.08,0.02-0.11,0.03l-0.1,0.02c-0.19,0.04-0.39,0.08-0.6,0.06
							c-0.24-0.03-0.52-0.17-0.6-0.44c-0.04-0.13-0.02-0.25-0.01-0.37l0-0.03c0.11-1.02-0.12-2.08-0.62-2.97
							c-0.03-0.05-0.01-0.11,0.04-0.14c0.05-0.03,0.11-0.01,0.14,0.04c0.53,0.93,0.76,2.02,0.65,3.09l0,0.03
							c-0.01,0.1-0.02,0.2,0,0.29c0.05,0.18,0.26,0.28,0.43,0.3c0.17,0.02,0.35-0.02,0.54-0.05l0.1-0.02
							c0.03-0.01,0.06-0.02,0.09-0.02c0.11-0.03,0.26-0.08,0.37,0.02c0.21,0.17,0.27,0.32,0.22,0.56
							C27.34,32.51,27.3,32.54,27.25,32.54z"/>
					</g>
					<g>
						<path class="st49" d="M32.49,26.43c0,0,0.69-1.5,1.68-1.31c0.99,0.19,2.03,2.38-0.27,3.73
							C33.89,28.86,32.87,28.08,32.49,26.43z"/>
					</g>
					<g>
						<path class="st49" d="M20.4,30.86c0,0-1.31-0.39-1.54,0.36c-0.24,0.75,0.92,2.65,2.73,1.9C21.59,33.13,21.42,32.03,20.4,30.86
							z"/>
					</g>
					<g>
						<path class="st65" d="M29.09,16.69c0,0-1.93-1.44-4.1-1.32c-2.17,0.11-5.55,2.28-7.17,2.38c0,0,1.61,0.88,4.1,0.51
							c2.48-0.37,4.59-0.27,4.59-0.27L29.09,16.69z"/>
					</g>
					<g>
						<path class="st65" d="M19.1,25.78c0,0,0.49,3.37,1,5.03c0,0-2.32-4.21-2.21-5.66C18,23.7,19.1,25.78,19.1,25.78z"/>
					</g>
					<g>
						<path class="st65" d="M29.7,25.58c0.32,0.33-0.51,0.49-1.03,0.54c-0.53,0.05-1.48,0.75-1.9,0.85
							c-0.42,0.1-0.85-0.69-0.22-1.08C27.17,25.52,28.84,24.71,29.7,25.58z"/>
					</g>
					<g>
						<path class="st65" d="M20.21,28.7c-0.05,0.46,0.7,0.08,1.15-0.21c0.45-0.29,1.63-0.32,2.02-0.5c0.39-0.18,0.25-1.07-0.48-0.99
							C22.17,27.1,20.35,27.49,20.21,28.7z"/>
					</g>
					<g>
						<path class="st153" d="M28.81,29.66c-0.41,0-0.74-0.14-0.75-0.14c-0.05-0.02-0.07-0.08-0.05-0.13
							c0.02-0.05,0.08-0.07,0.13-0.05c0.05,0.02,1.17,0.48,1.76-0.48c0.03-0.05,0.09-0.06,0.14-0.03c0.05,0.03,0.06,0.09,0.03,0.14
							C29.73,29.52,29.23,29.66,28.81,29.66z"/>
					</g>
					<g>
						<path class="st65" d="M27.69,28.67c-0.04,0-0.08-0.02-0.09-0.06c-0.02-0.04,0-0.09,0.03-0.12l1.54-1.29
							c0.04-0.03,0.11-0.03,0.14,0.01c0.04,0.04,0.03,0.1-0.01,0.14L28,28.44l1.71-0.16c0.06-0.01,0.1,0.04,0.11,0.09
							c0,0.06-0.04,0.1-0.09,0.11L27.69,28.67C27.69,28.67,27.69,28.67,27.69,28.67z"/>
					</g>
					<g>
						<path class="st153" d="M22.77,31.36c-0.17,0-0.35-0.03-0.54-0.11c-0.05-0.02-0.08-0.08-0.06-0.13
							c0.02-0.05,0.08-0.08,0.13-0.06c1.06,0.41,1.66-0.64,1.69-0.68c0.03-0.05,0.09-0.06,0.14-0.04s0.07,0.09,0.04,0.14
							C24.15,30.49,23.65,31.36,22.77,31.36z"/>
					</g>
					<g>
						<path class="st65" d="M22.16,30.68c-0.03,0-0.07-0.02-0.08-0.05c-0.03-0.05-0.01-0.11,0.03-0.14l1.45-0.91l-1.69-0.08
							c-0.05,0-0.1-0.05-0.09-0.1c0-0.05,0.05-0.1,0.1-0.1c0,0,0,0,0,0l2.01,0.09c0.04,0,0.08,0.03,0.09,0.07
							c0.01,0.04-0.01,0.09-0.04,0.11l-1.73,1.08C22.19,30.67,22.18,30.68,22.16,30.68z"/>
					</g>
					<g>
						<path class="st8" d="M28.92,33.21c-0.54,0.25-1,0.72-1.6,0.78c-0.27,0.02-0.53-0.04-0.8-0.06c-0.27-0.02-0.56,0.01-0.75,0.19
							c-0.2,0.18-0.26,0.49-0.18,0.76c0.03,0.12,0.09,0.23,0.19,0.32c0.19,0.18,0.5,0.18,0.75,0.1c0.25-0.08,0.47-0.23,0.71-0.35
							c0.62-0.3,1.34-0.33,2.01-0.5c0.2-0.05,0.4-0.12,0.53-0.27c0.19-0.23,0.16-0.58-0.01-0.82c-0.07-0.1-0.17-0.19-0.29-0.23
							C29.29,33.06,29.09,33.13,28.92,33.21z"/>
					</g>
				</g>
			</g>
			<g style="clip-path:url(#SVGID_00000162336858497925504090000012099079525227106472_);">
				<path class="st154" d="M17.26,33.01c-0.07-0.48-0.15-0.92-0.23-1.27c-1.01-4.28-3.4-3.14-2.38-8.27
					c0.16-0.8,0.96-2.35,2.18-3.65c0.12-0.13,0.35-0.18,0.49-0.12c0.13,0.06,0.13,0.3,0.23,0.24c0.31-0.17,0.54-0.77,0.96-0.58
					c0.1,0.04,0.08,0.23,0.08,0.5c0,0.17,0.28-0.09,0.32,0.15c0.09,0.64-0.18,1.01-0.32,1.68c-0.02,0.08,0.11-0.11,0.17-0.16
					c0.12-0.09,0.28-0.07,0.32,0.16c0.26,1.38-0.71,2.55-0.5,3.89c0.26,1.64,1.67,2.6,1.97,4.21c0.15,0.79-0.31,3.47-0.36,4.43
					L17.26,33.01L17.26,33.01z"/>
			</g>
		</g>
		<g>
			<defs>
				<path id="SVGID_00000096776555376355696230000013189379578381319838_" d="M17.26,33.01c-0.07-0.48-0.15-0.92-0.23-1.27
					c-1.01-4.28-3.4-3.14-2.38-8.27c0.16-0.8,0.96-2.35,2.18-3.65c0.12-0.13,0.35-0.18,0.49-0.12c0.13,0.06,0.13,0.3,0.23,0.24
					c0.31-0.17,0.54-0.77,0.96-0.58c0.1,0.04,0.08,0.23,0.08,0.5c0,0.17,0.28-0.09,0.32,0.15c0.09,0.64-0.18,1.01-0.32,1.68
					c-0.02,0.08,0.11-0.11,0.17-0.16c0.12-0.09,0.28-0.07,0.32,0.16c0.26,1.38-0.71,2.55-0.5,3.89c0.26,1.64,1.67,2.6,1.97,4.21
					c0.15,0.79-0.31,3.47-0.36,4.43L17.26,33.01L17.26,33.01z"/>
			</defs>
			<clipPath id="SVGID_00000018196041820082953370000000595328531220952449_">
				<use xlink:href="#SVGID_00000096776555376355696230000013189379578381319838_"  style="overflow:visible;"/>
			</clipPath>
			<g style="clip-path:url(#SVGID_00000018196041820082953370000000595328531220952449_);">
				<path class="st50" d="M17.43,25.97l-0.25-0.01c0.04-0.89,0.06-1.15,0.29-1.97c0.12-0.43,0.31-0.83,0.48-1.22l0.21-0.48
					c0.14-0.33,0.29-0.67,0.49-0.96l0.21,0.14c-0.19,0.28-0.33,0.59-0.47,0.92l-0.21,0.48c-0.17,0.38-0.35,0.78-0.47,1.19
					C17.48,24.85,17.46,25.1,17.43,25.97z M15.39,25.91l-0.25-0.03c0.03-0.26,0.05-0.55,0.07-0.86c0.03-0.58,0.07-1.17,0.2-1.66
					c0.32-1.19,0.89-2.18,2.03-3.54l0.19,0.16c-1.28,1.53-1.72,2.48-1.98,3.44c-0.13,0.47-0.16,1.05-0.19,1.61
					C15.44,25.34,15.43,25.64,15.39,25.91z M16.31,25.76l-0.25-0.02c0.06-0.62,0.11-1.26,0.29-2.02c0.12-0.51,0.19-0.69,0.32-0.99
					c0.05-0.12,0.11-0.27,0.19-0.47c0.31-0.82,0.84-1.42,1.35-2c0.12-0.14,0.25-0.28,0.37-0.43L18.76,20
					c-0.12,0.15-0.25,0.29-0.37,0.43c-0.52,0.59-1.01,1.15-1.3,1.93c-0.08,0.2-0.14,0.35-0.19,0.47c-0.12,0.29-0.19,0.46-0.3,0.95
					C16.43,24.52,16.37,25.15,16.31,25.76z"/>
			</g>
		</g>
		<g>
			<defs>
				<polygon id="SVGID_00000034808905490456161840000011054577629863121051_" points="52.3,1.36 2.42,1.36 2.42,82.14 52.3,82.14 
					52.3,1.36 				"/>
			</defs>
			<clipPath id="SVGID_00000150819520232112445180000013247292969474853017_">
				<use xlink:href="#SVGID_00000034808905490456161840000011054577629863121051_"  style="overflow:visible;"/>
			</clipPath>
			<g style="clip-path:url(#SVGID_00000150819520232112445180000013247292969474853017_);">
				<path class="st154" d="M16.67,54.57c-0.83,3.7-3.02,6.56-6.38,5c-2.57-1.19-2.82-2.84-2-6.19c0.71-2.9,2.1-5.78,3.2-8.57
					c1.58-4.01,3.1-8.11,5.35-11.8c0.04-0.06,0.57-0.98,0.63-0.97c0.55,0.05,0.84,0.73,1.37,0.85c0.58,0.13,1.41,0.35,1.41,0.35
					s-0.14,1.91-0.24,2.92c-0.12,1.15-0.17,1.79-0.54,3.75c-0.27,1.41-0.61,2.82-0.84,4.23C18.04,47.6,17.64,51.14,16.67,54.57
					L16.67,54.57z"/>
			</g>
			<g style="clip-path:url(#SVGID_00000150819520232112445180000013247292969474853017_);">
				<polygon class="st157" points="20.16,14.51 19.38,11.1 20.53,10.35 20.2,7.42 21.48,11.1 20.21,11.73 20.16,14.51 				"/>
			</g>
			<g style="clip-path:url(#SVGID_00000150819520232112445180000013247292969474853017_);">
				<polygon class="st157" points="17.35,15.43 14.09,14.57 13.82,13.11 11.14,12.04 14.81,12.56 14.93,14.07 17.35,15.43 				"/>
			</g>
			<g style="clip-path:url(#SVGID_00000150819520232112445180000013247292969474853017_);">
				<polygon class="st157" points="18.7,14.39 16.25,12.5 16.47,10.82 14.56,8.86 17.46,10.51 17.09,12.2 18.7,14.39 				"/>
			</g>
		</g>
	</g>
</g>
</svg>
